<svg xmlns="http://www.w3.org/2000/svg" viewBox="0 0 140 104"><defs><style>.cls-1 {
  fill: #fff;
}

.cls-2 {
  fill: #01a9e0;
}

.cls-3 {
  fill: #264c5b;
}

.cls-4 {
  fill: #e2deda;
}

.cls-5 {
  fill: #e1d5cf;
}

.cls-6 {
  fill: #a1b1c9;
}

.cls-7 {
  fill: #4dc3e9;
}

.cls-8 {
  fill: #cceef9;
}

</style></defs><g id="Layer_2" data-name="Layer 2"><g id="design"><rect class="cls-1" x="14.21" y="15.93" width="93.42" height="64.91"></rect><path class="cls-2" d="M120.16,98.82l-9-11.28a3.4,3.4,0,0,0-2.67-1.27H13.22a3.46,3.46,0,0,0-2.54,1.11L.82,98.32a3.13,3.13,0,0,0-.52,3.45,3.41,3.41,0,0,0,3.05,1.89l114.13.34h0a3.38,3.38,0,0,0,3-1.79A3.11,3.11,0,0,0,120.16,98.82Z"></path><path class="cls-2" d="M14.21,83.43h93.42a2.65,2.65,0,0,0,2.69-2.59V15.93a2.64,2.64,0,0,0-2.69-2.58H14.21a2.65,2.65,0,0,0-2.7,2.58V80.84A2.65,2.65,0,0,0,14.21,83.43ZM16.9,18.52h88V78.26h-88Z"></path><rect class="cls-3" x="61.86" y="24.3" width="1.8" height="60.4"></rect><rect class="cls-3" x="27.42" y="69.78" width="35.42" height="1.72"></rect><rect class="cls-3" x="37.62" y="57.02" width="1.8" height="13.71"></rect><rect class="cls-3" x="62.58" y="39.26" width="21.01" height="1.72"></rect><rect class="cls-3" x="82.6" y="28.09" width="1.8" height="21.43"></rect><rect class="cls-3" x="34.88" y="16.54" width="21.01" height="1.72"></rect><rect class="cls-4" x="75.93" y="48.06" width="38.23" height="27.01"></rect><path class="cls-1" d="M114.17,76.58H75.93a1.54,1.54,0,0,1-1.58-1.51v-27a1.55,1.55,0,0,1,1.58-1.52h38.24a1.55,1.55,0,0,1,1.58,1.52v27A1.54,1.54,0,0,1,114.17,76.58Zm-36.66-3h35.08v-24H77.51Z"></path><path class="cls-5" d="M99.12,60.4,114.88,47l-39.33-.08,17.6,13.65A4.73,4.73,0,0,0,99.12,60.4Z"></path><path class="cls-1" d="M96,63a6.57,6.57,0,0,1-4-1.37L74.56,48.07a1.48,1.48,0,0,1-.49-1.69,1.58,1.58,0,0,1,1.48-1h0l39.33.08a1.57,1.57,0,0,1,1.47,1,1.48,1.48,0,0,1-.43,1.67L100.29,61.43h0A6.55,6.55,0,0,1,96,63Zm3.21-2.69ZM80,48.41,94,59.25a3.33,3.33,0,0,0,4.2-.09l12.54-10.68Z"></path><ellipse class="cls-6" cx="31.67" cy="47.51" rx="19.73" ry="18.95"></ellipse><path class="cls-1" d="M31.67,67.86c-11.69,0-21.19-9.13-21.19-20.35S20,27.16,31.67,27.16s21.19,9.13,21.19,20.35S43.35,67.86,31.67,67.86Zm0-37.89c-10.08,0-18.28,7.87-18.28,17.54s8.2,17.55,18.28,17.55,18.27-7.87,18.27-17.55S41.74,30,31.67,30Z"></path><path class="cls-1" d="M31.32,49a1.43,1.43,0,0,1-1.46-1.4v-10a1.46,1.46,0,0,1,2.92,0v10A1.44,1.44,0,0,1,31.32,49Z"></path><path class="cls-1" d="M42.53,49.62H31.32a1.4,1.4,0,1,1,0-2.8H42.53a1.4,1.4,0,1,1,0,2.8Z"></path><ellipse class="cls-7" cx="62.49" cy="16.32" rx="14.37" ry="13.8"></ellipse><path class="cls-1" d="M62.49,31.28c-8.59,0-15.58-6.71-15.58-15s7-14.95,15.58-14.95,15.58,6.71,15.58,15S71.08,31.28,62.49,31.28Zm0-27.59A12.92,12.92,0,0,0,49.33,16.32a13.17,13.17,0,0,0,26.32,0A12.92,12.92,0,0,0,62.49,3.69Z"></path><path class="cls-1" d="M60.58,14.91,58,11.31a1,1,0,0,1-.2-.59.88.88,0,0,1,.45-.78,1.21,1.21,0,0,1,.7-.22,1,1,0,0,1,.87.49l2.72,4.09,2.72-4.09a1,1,0,0,1,.85-.49,1.24,1.24,0,0,1,.81.28.88.88,0,0,1,.36.71,1,1,0,0,1-.21.6l-2.62,3.6h2.28a.6.6,0,0,1,.39.14.69.69,0,0,1,.21.51.64.64,0,0,1-.26.53.53.53,0,0,1-.34.1H63.62v1.45h3.06a.52.52,0,0,1,.36.13.61.61,0,0,1,.24.51.62.62,0,0,1-.31.57.57.57,0,0,1-.29.07H63.62v2.26a.82.82,0,0,1-.23.58,1.22,1.22,0,0,1-.91.33,1.09,1.09,0,0,1-1-.46.77.77,0,0,1-.13-.45V18.92H58.3a.6.6,0,0,1-.39-.14.69.69,0,0,1-.21-.51.61.61,0,0,1,.28-.54.55.55,0,0,1,.32-.09h3.06V16.19H58.3a.54.54,0,0,1-.4-.15A.69.69,0,0,1,58,15a.57.57,0,0,1,.29-.07Z"></path><ellipse class="cls-1" cx="30.48" cy="17.06" rx="5.03" ry="4.83"></ellipse><path class="cls-3" d="M30.48,22.75a5.83,5.83,0,0,1-5.93-5.69,5.93,5.93,0,0,1,11.85,0A5.82,5.82,0,0,1,30.48,22.75Zm0-9.66a4.05,4.05,0,0,0-4.13,4,4.13,4.13,0,0,0,8.26,0A4.05,4.05,0,0,0,30.48,13.09Z"></path><ellipse class="cls-1" cx="62.53" cy="86.2" rx="5.03" ry="4.83"></ellipse><path class="cls-3" d="M62.53,91.89a5.69,5.69,0,1,1,5.93-5.69A5.82,5.82,0,0,1,62.53,91.89Zm0-9.65a4,4,0,1,0,4.13,4A4.06,4.06,0,0,0,62.53,82.24Z"></path><ellipse class="cls-1" cx="83.82" cy="24.3" rx="5.03" ry="4.83"></ellipse><path class="cls-3" d="M83.82,30a5.82,5.82,0,0,1-5.93-5.69,5.93,5.93,0,0,1,11.85,0A5.82,5.82,0,0,1,83.82,30Zm0-9.66a4,4,0,1,0,4.13,4A4.06,4.06,0,0,0,83.82,20.33Z"></path><ellipse class="cls-1" cx="22.31" cy="71.2" rx="5.03" ry="4.83"></ellipse><path class="cls-3" d="M22.31,76.89a5.69,5.69,0,1,1,5.92-5.69A5.82,5.82,0,0,1,22.31,76.89Zm0-9.65a4,4,0,1,0,4.13,4A4,4,0,0,0,22.31,67.24Z"></path><ellipse class="cls-3" cx="62.62" cy="70.17" rx="5.03" ry="4.83"></ellipse><path class="cls-1" d="M62.62,75.86a5.69,5.69,0,1,1,5.93-5.69A5.82,5.82,0,0,1,62.62,75.86Zm0-9.66a4,4,0,1,0,4.13,4A4.06,4.06,0,0,0,62.62,66.2Z"></path><ellipse class="cls-3" cx="62.18" cy="41.2" rx="5.03" ry="4.83"></ellipse><path class="cls-1" d="M62.18,46.89A5.69,5.69,0,1,1,68.1,41.2,5.83,5.83,0,0,1,62.18,46.89Zm0-9.66a4,4,0,1,0,4.13,4A4.06,4.06,0,0,0,62.18,37.23Z"></path><rect class="cls-1" x="100.58" y="3.23" width="36.06" height="34.63" rx="1.32"></rect><path class="cls-8" d="M135.3,41.08H101.92a4.62,4.62,0,0,1-4.7-4.52v-32A4.62,4.62,0,0,1,101.92,0H135.3A4.62,4.62,0,0,1,140,4.52v32A4.62,4.62,0,0,1,135.3,41.08Zm-31.36-6.45h29.34V6.45H103.94Z"></path><line class="cls-1" x1="112.56" y1="19.61" x2="116.29" y2="24.52"></line><path class="cls-8" d="M116.29,26.85a2.48,2.48,0,0,1-2-1L110.6,21a2.28,2.28,0,0,1,.52-3.26,2.5,2.5,0,0,1,3.4.51l3.73,4.9a2.28,2.28,0,0,1-.52,3.26A2.55,2.55,0,0,1,116.29,26.85Z"></path><line class="cls-1" x1="116.4" y1="24.55" x2="126.63" y2="15.86"></line><path class="cls-8" d="M116.41,26.88a2.46,2.46,0,0,1-1.82-.79,2.26,2.26,0,0,1,.21-3.29L125,14.11a2.5,2.5,0,0,1,3.43.21,2.27,2.27,0,0,1-.21,3.29L118,26.29A2.47,2.47,0,0,1,116.41,26.88Z"></path></g></g></svg>