<?xml version="1.0" standalone="no"?>
<!DOCTYPE svg PUBLIC "-//W3C//DTD SVG 20010904//EN"
 "http://www.w3.org/TR/2001/REC-SVG-20010904/DTD/svg10.dtd">
<svg version="1.0" xmlns="http://www.w3.org/2000/svg"
 width="1067.000000pt" height="1066.000000pt" viewBox="0 0 1067.000000 1066.000000"
 preserveAspectRatio="xMidYMid meet">

<g transform="translate(0.000000,1066.000000) scale(0.100000,-0.100000)"
fill="#fff" stroke="none">
<path d="M5230 10653 c-643 -15 -1270 -139 -1838 -363 -168 -67 -212 -87 -442
-201 -380 -190 -711 -407 -1051 -690 -152 -127 -481 -453 -613 -609 -1023
-1201 -1458 -2764 -1205 -4330 231 -1435 1066 -2732 2289 -3553 364 -245 855
-487 1266 -625 751 -253 1562 -331 2374 -231 1161 144 2242 673 3080 1509 480
479 851 1022 1126 1646 582 1324 587 2892 13 4217 -414 955 -1074 1752 -1928
2326 -605 406 -1297 689 -1994 816 -332 60 -762 95 -1077 88z m59 -2139 c82
-23 159 -66 227 -126 34 -29 671 -641 1415 -1360 1452 -1401 1424 -1372 1470
-1516 27 -85 35 -222 20 -304 -16 -83 -78 -211 -133 -273 -23 -27 -455 -443
-958 -924 -503 -482 -1121 -1073 -1373 -1314 -255 -244 -485 -455 -518 -477
-166 -107 -392 -117 -567 -25 -344 181 -429 644 -169 930 30 33 417 407 861
830 l806 770 -208 2 c-114 2 -981 4 -1927 6 -1623 3 -1723 4 -1780 21 -201 60
-357 223 -410 427 -21 81 -21 225 0 304 52 195 200 351 395 418 l65 22 1720 3
c946 1 1814 3 1929 5 l209 2 -799 771 c-439 424 -825 798 -856 832 -96 105
-158 261 -158 402 0 251 175 492 414 570 91 30 231 31 325 4z"/>
</g>
</svg>
