<svg xmlns="http://www.w3.org/2000/svg" xmlns:xlink="http://www.w3.org/1999/xlink" viewBox="0 0 690 543.18"><defs><style>.cls-1{fill:none;}.cls-2{fill:#fff;}.cls-3{fill:#29abe2;}.cls-4{fill:url(#新規パターンスウォッチ_24);}.cls-5{fill:#01a9e0;}.cls-6{fill:url(#新規パターンスウォッチ_24-13);}.cls-7{fill:#4d4d4d;}</style><pattern id="新規パターンスウォッチ_24" data-name="新規パターンスウォッチ 24" width="2.37" height="2.37" patternTransform="translate(67.19 29.84) scale(2.56)" patternUnits="userSpaceOnUse" viewBox="0 0 2.37 2.37"><rect class="cls-1" width="2.37" height="2.37"/><rect class="cls-2" width="2.37" height="2.37"/><circle class="cls-3" cx="1.18" cy="1.18" r="0.82"/></pattern><pattern id="新規パターンスウォッチ_24-13" data-name="新規パターンスウォッチ 24" width="2.37" height="2.37" patternTransform="translate(76.16 24.96) scale(2.56)" patternUnits="userSpaceOnUse" viewBox="0 0 2.37 2.37"><rect class="cls-1" width="2.37" height="2.37"/><rect class="cls-2" width="2.37" height="2.37"/><circle class="cls-3" cx="1.18" cy="1.18" r="0.82"/></pattern></defs><g id="Layer_2" data-name="Layer 2"><g id="design"><path class="cls-4" d="M373.77,194.75a3.11,3.11,0,0,0-.52-.33c-.64-.34-1.32-.57-2-.85a2.46,2.46,0,0,1-.64.69l-11.82,8.51a90.64,90.64,0,0,0,16.21-.83l-.41-.15a4.15,4.15,0,0,1-2-1.18,3.37,3.37,0,0,1-.85-2.53,4.45,4.45,0,0,1,1.56-3Z"/><path class="cls-5" d="M384.58,176.88a8.24,8.24,0,0,0-6.8-5.64c-.11,0-.21-.08-.32-.11l0,0s-.1.06-.15.1a14.66,14.66,0,0,1-7.3,6c-.14.82-.29,1.67-.45,2.54A77.51,77.51,0,0,0,384.66,188l1,.38a14.45,14.45,0,0,1-.68-3.53c-.07-1.06,0-2.13,0-3.2A17,17,0,0,0,384.58,176.88Z"/><path class="cls-5" d="M377.76,140.8c-2.65-4-7.59-8.68-13.5-9.64a2.64,2.64,0,0,1-1.32-.64c-3.22-3-6.85-3.15-10.68-3.36H352c-13.57-.75-22.47,4-27.88,15a29.14,29.14,0,0,0-2.54,15,119.13,119.13,0,0,0,17.78,2.51,26.45,26.45,0,0,1-7.33-9,20.46,20.46,0,0,1-1.21-15,2.56,2.56,0,1,1,4.87,1.59,15.36,15.36,0,0,0,1,11.17,22.27,22.27,0,0,0,8,8.81,2.52,2.52,0,0,1,1,2.88c4.25.28,8.5.56,12.7,1a24.43,24.43,0,0,1-3.49-4.3,42.28,42.28,0,0,1-6.74-20.17,2.57,2.57,0,0,1,2.39-2.73,2.52,2.52,0,0,1,2.73,2.38A37,37,0,0,0,359.12,154c1.91,2.94,3.74,4.64,5.74,5.37a2.54,2.54,0,0,1,1.66,2.47,2.14,2.14,0,0,1,.28-.32,10.94,10.94,0,0,1,3.46-1.82,7.25,7.25,0,0,1,4.79.13,6,6,0,0,1,2.7,2.26C381.13,155.25,381.41,146.33,377.76,140.8Z"/><path class="cls-2" d="M345.34,160.73a2.57,2.57,0,0,1-3.55.73c-.87-.58-1.67-1.21-2.46-1.85a119.13,119.13,0,0,1-17.78-2.51,18.71,18.71,0,0,0,.82,4,2.37,2.37,0,0,1,.12.95s0,0,0,0c.14,2.06.4,4.12.64,6.19s.49,4,.64,6l.06.84a20.19,20.19,0,0,0,.67,4.56,13.75,13.75,0,0,0,2.19,4c1.46,2,4.56,5.37,8.9,5.95,2.83.38,5.81-.45,8.36-1.32a63.06,63.06,0,0,0,14.36-7,2.56,2.56,0,0,1,2.82,4.28,68.37,68.37,0,0,1-14.88,7.31,19.76,19.76,0,0,1-.46,5.94,2.6,2.6,0,0,1-.1.25,46.39,46.39,0,0,0,5.44,2.89l.05,0,12.15-8.74a2.45,2.45,0,0,1-.51-1.47,75.6,75.6,0,0,1,1.58-12.38c.28-1.54.56-3,.77-4.43a3,3,0,0,1,.12-.32,2.47,2.47,0,0,1,.22-.59,3.09,3.09,0,0,1,.33-.39,2.58,2.58,0,0,1,.32-.34,2.44,2.44,0,0,1,.56-.28,2.29,2.29,0,0,1,.31-.16c3.64-1,6.46-3.76,6.71-6.58.05-.49,0-1.48-.64-1.73a2.28,2.28,0,0,0-1.39,0,6.15,6.15,0,0,0-1.86,1,2.51,2.51,0,0,1-4.05-2.09,2.57,2.57,0,0,1-1.82.8,2.61,2.61,0,0,1-.87-.15,13.75,13.75,0,0,1-4.81-3.09c-4.2-.43-8.45-.71-12.7-1A2.42,2.42,0,0,1,345.34,160.73Zm-10.29,12.34.48,0a1.93,1.93,0,0,1-.11,3.85h-.11l-.45,0a1.92,1.92,0,0,1-1.83-2A1.94,1.94,0,0,1,335.05,173.07Zm-4.65-7a2.82,2.82,0,0,1-2.74,2.29,3.57,3.57,0,0,1-.46,0,2.83,2.83,0,0,1-2.28-2.49c0-.05,0-.23,0-.29h0a3,3,0,0,1,.15-1.53,2.83,2.83,0,0,1,3.71-1.64,2.89,2.89,0,0,1,1.75,2.42A3.48,3.48,0,0,1,330.4,166.05Zm11.81,16.7a23.83,23.83,0,0,1-7.11,1.08c-.33,0-.66,0-1,0a2.56,2.56,0,0,1,.22-5.12,19.13,19.13,0,0,0,6.33-.82,2.56,2.56,0,1,1,1.55,4.88Zm5.66-18a3.48,3.48,0,0,1-.11,1.28,2.82,2.82,0,0,1-2.74,2.29,3.57,3.57,0,0,1-.46,0,2.83,2.83,0,0,1-2.28-2.49c0-.05,0-.23,0-.28a1.48,1.48,0,0,0,.07.36,3.1,3.1,0,0,1,.09-1.91,2.92,2.92,0,0,1,1.56-1.62,3,3,0,0,1,2.14,0A2.91,2.91,0,0,1,347.87,164.77Z"/><path class="cls-5" d="M318.37,190.4a24.14,24.14,0,0,0,4.56-3.32c-.11-.15-.24-.29-.35-.44a19,19,0,0,1-3-5.51,16.49,16.49,0,0,1-.54-2.4,3.08,3.08,0,0,0-.32.75,9.89,9.89,0,0,0-.07,3l0,.64a19.33,19.33,0,0,1-.91,7.54A5.6,5.6,0,0,0,318.37,190.4Z"/><path class="cls-2" d="M324.9,165.52h0a2,2,0,0,0,.07.36C324.94,165.76,324.92,165.64,324.9,165.52Z"/><path class="cls-4" d="M150.81,248.84a36.32,36.32,0,0,0,8-.08l1.91-.14a91.16,91.16,0,0,1,29.92,2.88c.05,0,.08.05.13.06.49-.39,1-.78,1.47-1.12,3.86-2.66,8-5.28,13-5.56a11.15,11.15,0,0,1,3.05.4,11.16,11.16,0,0,0,1.61.28c1.8-.08,2.84-.16,3.93-.31l1.48-12.6-30.48,2.09c-5.49.38-11.17.77-16.36,2.46a2.44,2.44,0,0,1-.8.13,2.59,2.59,0,0,1-1.27-.33,2.53,2.53,0,0,1-.92-1,30.24,30.24,0,0,0-8,4.06,40.92,40.92,0,0,1-7.71,4.13c0,.1,0,.2,0,.3l-.55,4.08C149.77,248.68,150.29,248.77,150.81,248.84Z"/><path class="cls-2" d="M226,281.38a4.92,4.92,0,0,0,.19,2.16,2.64,2.64,0,0,0,1,.86,8,8,0,0,0,7.21.05,14.83,14.83,0,0,0,6.07-5.73,23.2,23.2,0,0,0,2.45-19.13,11.33,11.33,0,0,0-1.59-3.36,12.13,12.13,0,0,0-4.13-3.22,30.76,30.76,0,0,0-19.11-3.29,44.67,44.67,0,0,1-8,1,10.91,10.91,0,0,1-2.94-.4,8.61,8.61,0,0,0-1.64-.28c-3.63.2-7.11,2.41-10.37,4.66-4.89,3.37-9.64,9.69-12,13.15-.42.67-1.34,2.91-.85,4a2.4,2.4,0,0,0,1.67.93,34.83,34.83,0,0,1,3.28-5.44,112.56,112.56,0,0,1,10.5-12.77,2.56,2.56,0,1,1,3.71,3.53,108.37,108.37,0,0,0-10,12.2,29.89,29.89,0,0,0-2.81,4.65,2.29,2.29,0,0,1,.74-.35c2.26-.56,4.36.49,4.88,2.43a3.52,3.52,0,0,1-3.32,4.4h0a2.55,2.55,0,0,1-2-1,7.39,7.39,0,0,1-1.23-2.34,7,7,0,0,0,.6,4.28,7.8,7.8,0,0,0,5.63,3.52c5,.88,10.47-1.33,14.88-3.11l11-4.41a2.52,2.52,0,0,1,1.51-.08,65.24,65.24,0,0,1,3.93-17.07A2.56,2.56,0,0,1,229.9,263,60.38,60.38,0,0,0,226,281.38Zm-23.48-13.57a3.62,3.62,0,0,1-1.53.92,3.91,3.91,0,0,1-1.17.18,4,4,0,0,1-1.94-.5,2.55,2.55,0,0,1-1.29-2.5l.15-1.45a2.43,2.43,0,0,1,.51-1.29,3.62,3.62,0,0,1,4.75-.65,3.49,3.49,0,0,1,.52,5.29Zm15.3,1.6a3.8,3.8,0,0,1-1.53.33,3.48,3.48,0,0,1-2.09-.68,2.55,2.55,0,0,1-1-2.49l.31-1.82a2.53,2.53,0,0,1,1.55-1.93,3.41,3.41,0,0,1,3.34.53,3.46,3.46,0,0,1-.58,6.06Z"/><path class="cls-2" d="M315.15,271.58a6.46,6.46,0,0,1,3.36-1.13,35,35,0,0,0,.8-8v-.31c.05-3.13.16-6.26.31-9.4-6.42,7-13,12.58-21.55,14.77a8.06,8.06,0,0,1-2,.3,5,5,0,0,1-1.45-.23c-.57.46-1.15.89-1.74,1.31,5.68,4.53,11.78,9.61,12.41,17.6,2-1.27,4-2.48,6.11-3.59,2.53-1.35,2.5-2,2.5-2a4.34,4.34,0,0,0-.45-1,9,9,0,0,1-.9-2.13A5.79,5.79,0,0,1,315.15,271.58Z"/><path class="cls-2" d="M271.32,258.34a3.49,3.49,0,0,0-1.43,1.07.75.75,0,0,0-.1.33s.17.1.48.24a16.33,16.33,0,0,0,4.19,1c.68.1,1.36.19,2,.32,3.62.67,6.19,2.16,7.62,4.44.17.27.33.56.48.85a4.6,4.6,0,0,0,.39.67,5.1,5.1,0,0,0,1.59-.51,24.51,24.51,0,0,0,4-2.48,33.17,33.17,0,0,1-3.75-5.22l0,0h-.08C281.09,257.43,275.65,256.22,271.32,258.34Z"/><path class="cls-2" d="M283,252.79a1.45,1.45,0,0,1,.17-.26c5-5.05,6.6-9.85,4.83-14.68-.88-2.38-2.71-4.59-4.49-6.73a31.66,31.66,0,0,0-5.61-5.72A6,6,0,0,0,274,224a2.81,2.81,0,0,0-1.77.85,3,3,0,0,0,.26.32,19.24,19.24,0,0,0,4,3.11c1,.67,2.05,1.36,3,2.11a16.33,16.33,0,0,1,6.42,11.57c.2,3.3-1.68,7.34-4.16,10.59Z"/><path class="cls-4" d="M141.27,202a2.51,2.51,0,0,1,1.11,1.19,4.79,4.79,0,0,1,1.66,1.19,11.6,11.6,0,0,0,2.38,1.81c1.1-6.06,2.07-12.28.9-18.22a52.49,52.49,0,0,0-1.65-5.9,39.15,39.15,0,0,1-2.22-9.95c-.23-4.46,1-8.65,2.12-12.7.47-1.67,1-3.34,1.31-5,.64-2.91,1.64-10.06-2.7-13.72a2.56,2.56,0,0,1,3.3-3.92c4.56,3.84,6.17,10.67,4.41,18.73-.39,1.78-.89,3.56-1.39,5.33-1.09,3.82-2.12,7.43-1.93,11.05a34.59,34.59,0,0,0,2,8.64,59,59,0,0,1,1.79,6.47c1.4,7.1.16,14.37-1,20.86a7.19,7.19,0,0,1,2,.69,8.72,8.72,0,0,1,2,1.51l1.13,1.14c1.58,1.61,3.09,3.08,4.77,3.65a2.57,2.57,0,0,1,1.54-1.23,189.44,189.44,0,0,1,33.5-6.16c0-.16,0-.32,0-.47a6.86,6.86,0,0,1,3-4.82A8.65,8.65,0,0,1,204,201c-.51-16.24-.66-32.68-.42-48.88a26.58,26.58,0,0,1,1-8.29,27.16,27.16,0,0,1,3.67-6.59,22.29,22.29,0,0,0,3.05-5.39,2.56,2.56,0,0,1,4.87,1.6,26.32,26.32,0,0,1-3.7,6.7,22.85,22.85,0,0,0-3,5.32,22.27,22.27,0,0,0-.77,6.73c-.24,16.51-.08,33.28.45,49.82l.89.29a19.42,19.42,0,0,0,3.22,1,2.56,2.56,0,0,1-.89,5,24.63,24.63,0,0,1-4.06-1.19c-.73-.26-1.46-.53-2.21-.74-1-.27-2.87-.63-4.06.12a1.65,1.65,0,0,0-.68,1.12.56.56,0,0,0,0,.36,2.55,2.55,0,0,1-1.67,4.31,185.8,185.8,0,0,0-33.27,5.62l3.06,13.66a84.1,84.1,0,0,1,14.91-1.92l34.2-2.35c2.67-.18,5.19-.46,6.59-1.85s1.67-3.61,1.95-6.05a363.56,363.56,0,0,0-.58-87.59c-.37-2.86-.83-5.56-2.41-7.21-1.29-1.34-3.48-2.06-5.41-2.69l-19-6.2a3.11,3.11,0,0,1-.4-.22l-35,5.12a2.31,2.31,0,0,1-.37,0,2.62,2.62,0,0,1-.38-.09,2.56,2.56,0,0,1-.79.49,91.38,91.38,0,0,0-19.46,10,13.45,13.45,0,0,0-4.21,3.87c-1,1.67-1.22,3.89-1.44,6L132,197.67a2.49,2.49,0,0,1-.37,1.05,46.2,46.2,0,0,1,8,2.49C140.14,201.45,140.71,201.7,141.27,202Zm81,16a2.57,2.57,0,0,1-1,3.49,2.5,2.5,0,0,1-1.26.33,2.54,2.54,0,0,1-2.23-1.3,23.84,23.84,0,0,0-6.17-7.09,2.56,2.56,0,1,1,3.12-4.06A28.91,28.91,0,0,1,222.31,218Z"/><path class="cls-2" d="M111,407.25c-3.84-.1-7.64-.23-11.44-.37a76,76,0,0,1-3.23,11.29l13.31,1.51C110.12,415.48,110.56,411.32,111,407.25Z"/><path class="cls-4" d="M197.55,106.83A187.13,187.13,0,0,0,170.32,112c-.62,1-1.2,1.93-1.73,2.85l28.89-4.23Z"/><path class="cls-2" d="M124.66,226.94l14.19-4.09a2.56,2.56,0,1,1,1.42,4.92l-14.18,4.1c-1.07.3-2.25.63-3.49.86l0,0-.55.34c5.9-.38,11.74-2.31,17.41-4.19a2.56,2.56,0,0,1,1.61,4.87c-1.26.41-2.56.84-3.89,1.26l.22,0a14.33,14.33,0,0,0,3.56-.82,2.56,2.56,0,1,1,2.07,4.68,18.3,18.3,0,0,1-4.89,1.21,19.25,19.25,0,0,0-2.63.49c-.39.11-.77.25-1.14.39l6.63-.4a29.81,29.81,0,0,0,5.67-.7c2.81-.74,5.38-2.38,8.11-4.12a34.32,34.32,0,0,1,9.44-4.7l-2.47-11a2.17,2.17,0,0,1-.43.08,2.94,2.94,0,0,1-.51,0c-3.46-.69-5.86-3.14-8-5.29-.35-.36-.7-.72-1.06-1.06A4.28,4.28,0,0,0,151,213a5.27,5.27,0,0,0-1.34-.34l-.57-.1a16.69,16.69,0,0,1-7.51-3.58,1.46,1.46,0,0,0,.35.83,6.91,6.91,0,0,0,1.4.93c.39.21.78.43,1.15.67a6.74,6.74,0,0,1,2.55,2.88c.25-.09.51-.15.75-.24a2.56,2.56,0,0,1,1.78,4.8A63.92,63.92,0,0,1,138,221.61c-1.9.32-3.8.64-5.67,1.06-5.06,1.12-8.84,2.81-11.46,5.15A22.63,22.63,0,0,0,124.66,226.94Z"/><path class="cls-2" d="M189.72,87.46a2.56,2.56,0,0,1,3,4.16,71.11,71.11,0,0,1-16.79,8.93l-1.29.45a19.09,19.09,0,0,1,.3,4.53A194.76,194.76,0,0,1,195.24,102c.09-5.17,1.18-12.53,2.06-18.5l.34-2.29a2,2,0,0,1-.23-.47,2.55,2.55,0,0,1,1.72-3.19c4.05-1.21,7.19-4.66,7.48-8.22.09-1-.2-2.26-.9-2.58a2.27,2.27,0,0,0-1.5,0A6.74,6.74,0,0,0,202.15,68a2.56,2.56,0,0,1-3.61-.37,2.52,2.52,0,0,1-.53-1.56,35.37,35.37,0,0,1-7.64-8.82,52.85,52.85,0,0,1-5.74-11.73,120.56,120.56,0,0,1-33.78,20.82c.16,1.76.34,3.52.53,5.28.26,2.37.52,4.73.69,7.09l.07,1a26.67,26.67,0,0,0,.74,5.54,17.84,17.84,0,0,0,2.45,4.92c1.61,2.37,5,6.46,9.76,7.16,3,.44,6.29-.55,9-1.57A66.5,66.5,0,0,0,189.72,87.46Zm-16-20.66a3,3,0,0,1,1.62-1.74,2.89,2.89,0,0,1,2.22,0,3,3,0,0,1,1.7,2.49,4.3,4.3,0,0,1-.1,1.24,2.87,2.87,0,0,1-2.78,2.42,2.63,2.63,0,0,1-.49,0,2.86,2.86,0,0,1-2.27-2.53A3.07,3.07,0,0,1,173.73,66.8Zm-9.24,10.87.51,0a1.92,1.92,0,0,1-.11,3.84h-.12l-.51,0a1.92,1.92,0,0,1,.23-3.84Zm-5.23-8.86a2.85,2.85,0,0,1-2.77,2.42,2.81,2.81,0,0,1-.5,0,2.85,2.85,0,0,1-2.26-2.53,3,3,0,0,1,.1-1.86,3,3,0,0,1,1.62-1.74,2.9,2.9,0,0,1,2.22,0,3,3,0,0,1,1.69,2.47A3.81,3.81,0,0,1,159.26,68.81Zm13,19.5a23.57,23.57,0,0,1-7.7,1.29c-.36,0-.72,0-1.07,0A2.56,2.56,0,0,1,161,86.9a2.6,2.6,0,0,1,2.68-2.45,18.45,18.45,0,0,0,6.86-1,2.56,2.56,0,0,1,1.68,4.84Z"/><path class="cls-4" d="M131.21,217.66c1.95-.43,3.93-.77,5.91-1.1,1.54-.26,3-.53,4.5-.82-.26-.18-.54-.33-.82-.49a10,10,0,0,1-2.62-1.87,6.8,6.8,0,0,1-1.06-7.62,41.13,41.13,0,0,0-7.12-2.15c.13,4.81,0,9.64-.32,14.44C130.18,217.92,130.68,217.78,131.21,217.66Z"/><path class="cls-2" d="M341.18,194.9a2.45,2.45,0,0,1-.36.6l.28.23C341.13,195.45,341.17,195.18,341.18,194.9Z"/><path class="cls-4" d="M336.19,200.65a3.65,3.65,0,0,1-1.09,3.81,3.22,3.22,0,0,1-.28.24,34,34,0,0,0,9.72-.43,49.55,49.55,0,0,1-8.05-5.68,2.49,2.49,0,0,1-.77-1.38,3.09,3.09,0,0,0-.59.36,1.41,1.41,0,0,0-.46,1.19A3.78,3.78,0,0,1,336.19,200.65Z"/><path class="cls-5" d="M186.74,38.37a2.56,2.56,0,0,1,1.75,1.89,44.16,44.16,0,0,0,6.19,14.21,29.65,29.65,0,0,0,6.84,7.85,11,11,0,0,1,1.1-.44,7.19,7.19,0,0,1,5.18.16,6.42,6.42,0,0,1,2.95,2.79c3.86-8.28,4.22-19.3.12-26.11-2.91-4.83-8.31-10.41-14.75-11.55a2.61,2.61,0,0,1-1.36-.72c-3.55-3.54-7.48-3.77-11.64-4h-.31c-14.81-.88-24.43,4.82-30.34,17.94A36.4,36.4,0,0,0,150,61.11,115,115,0,0,0,184.23,39,2.57,2.57,0,0,1,186.74,38.37Z"/><path class="cls-5" d="M207.46,78.32a20,20,0,0,0,4.83,15.21,19.26,19.26,0,0,0,6.26,4.54c-.18-.46-.37-.9-.52-1.39a41,41,0,0,1-1.33-10.13c0-1.14-.1-2.27-.19-3.41a10.76,10.76,0,0,0-1.22-4.87,6.64,6.64,0,0,0-5.54-2.79A15.09,15.09,0,0,1,207.46,78.32Z"/><path class="cls-2" d="M276.11,306a9.08,9.08,0,0,0-5.54,3.37,19.17,19.17,0,0,0,8.1-1.5,2.58,2.58,0,0,1,2.68.48A95.67,95.67,0,0,1,300,290.14c1.24-8-4.36-12.45-10.82-17.6l-1.13-.9a8.33,8.33,0,0,1-3.07.67,5,5,0,0,1-3.21-1.09,6.64,6.64,0,0,1-1.72-2.27c-.1-.18-.19-.36-.29-.53-.8-1.26-2.73-1.85-4.22-2.12-.6-.11-1.21-.2-1.82-.29a20,20,0,0,1-5.54-1.35,6,6,0,0,1-2.72-2.15,5.31,5.31,0,0,1-.3-.64,149.8,149.8,0,0,0-16.46.12,28.41,28.41,0,0,1-3.89,19.46,19.76,19.76,0,0,1-8.28,7.66,14,14,0,0,1-5.84,1.28,12,12,0,0,1-6.09-1.57,7.43,7.43,0,0,1-2.89-2.83,7.07,7.07,0,0,1-.77-2.65l-10.33,4.16c-4.09,1.64-9,3.61-14.13,3.67l-1.36,9.26a4.86,4.86,0,0,1-.77,2.16,4.77,4.77,0,0,1-1.72,1.43,4.24,4.24,0,0,0-1.88,4.92c.74,1.94,3,3.43,6.81,4.43a45.33,45.33,0,0,0,6,1.15,11.92,11.92,0,0,0,4.91-.19,3.9,3.9,0,0,0,2.07-1.51c-.1-.13-.22-.25-.31-.39a18.32,18.32,0,0,0-8.44-6.93,2.56,2.56,0,1,1,1.92-4.75,23.68,23.68,0,0,1,9.87,7.53,58.09,58.09,0,0,1,11.47-7.44,2.56,2.56,0,0,1,2.4,4.53,58.79,58.79,0,0,0-9.85,6.22,2.26,2.26,0,0,1,.2.73c.1,1.28,2.07,2.3,3.93,2.56,3.46.48,7.35-.33,12.26-2.53a58.53,58.53,0,0,0,17.15-11.72,2.56,2.56,0,0,1,3.62,0,2.52,2.52,0,0,1,.59,2.55A66.54,66.54,0,0,0,269.57,298a16,16,0,0,1,.34-6,21.67,21.67,0,0,1,12.87-14.65,2.56,2.56,0,0,1,1.88,4.77,16.46,16.46,0,0,0-9.78,11.13c-.75,3-.29,6.7,2.05,8a2.56,2.56,0,0,1-.82,4.75Z"/><path class="cls-5" d="M433,127.59c-2.28,1.07-4.62,2.27-6.09,4a17.93,17.93,0,0,0-2.79,6.08c-9.41,29.53-15.28,60.58-20.95,90.61-.55,2.9-1.11,5.9-.57,8.62a21.88,21.88,0,0,0,3.41,7.18c2,3.2,4.56,6.49,7.7,6.67,2.66.13,5.59-2.13,8.68-7,2.77-4.37,5.83-9.84,8.48-15.07-.57.31-1.13.64-1.71.92a16.91,16.91,0,0,1-7.22,1.82,10.69,10.69,0,0,1-3.78-.66c-3-1.11-5.48-3.71-7.09-7.31a39.63,39.63,0,0,1-1.9-5.73c-.24-.87-.47-1.73-.74-2.59A2.57,2.57,0,0,1,410.1,212c.06,0,.12,0,.19,0,1-6.88,1.86-13.8,2.62-20.68a10.39,10.39,0,0,1,1-3.93c1.5-2.79,4.51-3.69,6.31-4.22.1,0,10.49-2.46,13.38-2.31,0-3,.07-5.75.15-7.95a2.27,2.27,0,0,1,.06-.25,2.45,2.45,0,0,1-.34-1.14c-.06-1.65-.14-2.72-.22-3.76-.09-1.26-.18-2.47-.23-4.47a39.75,39.75,0,0,0-5.22-18.82,2.56,2.56,0,0,1,4.45-2.54,44.83,44.83,0,0,1,5.9,21.25c0,1.88.12,3,.21,4.2,0,.48.07,1,.11,1.53,4.3-1.71,10-2.27,15.61-2.21,1-6.36,1.88-13.45,2.81-20.95,1.24-10.11,2.52-20.49,4.21-29.58C451.25,119.85,439.63,124.46,433,127.59Z"/><path class="cls-2" d="M435.3,206.77c-.21-1.35-.38-2.72-.54-4.09l-1.68.78c-2.06.94-5.88,2.69-6.67,3.74a2.55,2.55,0,0,1-2.05,1,2.51,2.51,0,0,1-1.53-.51,2.56,2.56,0,0,1-.52-3.59c1.45-1.93,4.49-3.42,8.64-5.32,1.23-.57,2.39-1.1,3.05-1.48a2,2,0,0,1,.22-.08c-.09-1.2-.18-2.39-.25-3.56l-1.87.78c-2.69,1.12-6.75,2.8-8,4a2.56,2.56,0,0,1-3.62,0,2.55,2.55,0,0,1,0-3.62c2-1.92,6-3.61,9.63-5.1,1.4-.58,2.67-1.11,3.54-1.54l0,0c0-.79,0-1.57-.06-2.33a2.37,2.37,0,0,1-.53,0c-1.48.11-9.86,1.69-11.44,2.16-1.4.42-2.8.89-3.26,1.74a6.43,6.43,0,0,0-.42,2.06c-1,8.76-2.12,17.61-3.41,26.32a25.56,25.56,0,0,0,1.14,3.26c.6,1.36,2,3.76,4.2,4.6h0a2.43,2.43,0,0,1,1.1-.28,4.4,4.4,0,0,0,4.61-2.28,7.27,7.27,0,0,0,1.66-2.49,7.7,7.7,0,0,0,.11-1.3,12.75,12.75,0,0,1,.11-1.63,8.64,8.64,0,0,1,.61-2.11,2.55,2.55,0,0,1-3.6-3.6c1.28-1.36,3.66-2.43,7.14-3.91a33,33,0,0,0,3.54-1.64Z"/><path class="cls-5" d="M432.35,287.62l2.1.49a.75.75,0,0,0,.55-.1c.05-.11.17-.72.22-.95,2.3-11.53,5-23.94,7.56-35.93,2.45-11.37,5-23.09,7.18-34.09l-7.46.33-.7,0a6.31,6.31,0,0,1-2.36-.42,7.92,7.92,0,0,1-2.84,1.74c.53.8,1,1.66,1.45,2.51a2.94,2.94,0,0,1,.59,3.14c-1.12,2.49-2.44,5.19-3.84,7.92a76.51,76.51,0,0,0-.75,11.4c-.06,3.1-.11,6.3-.43,9.23-.78,7-4.1,17-8.93,22.27-.4.43-.82.86-1.24,1.29-1.59,1.64-3.09,3.19-3.07,4.74a7.46,7.46,0,0,0,.11,1,10.26,10.26,0,0,1,.16,1.91,2.4,2.4,0,0,1-.74,1.47A67.62,67.62,0,0,1,432.35,287.62Z"/><path class="cls-2" d="M432.57,222l-.17-.27c0,.13,0,.26-.06.39Z"/><path class="cls-2" d="M436.36,212.7l0-.15c0-.16-.06-.33-.1-.5-.58.27-1.24.55-1.93.85a2.35,2.35,0,0,1,.48,1A2.66,2.66,0,0,0,436.36,212.7Z"/><path class="cls-2" d="M438.84,174.34c-.27,8.84-.21,24.29,2.5,37.15a7.2,7.2,0,0,0,.2.77c.23,0,.58,0,.73,0l22.59-1a4.08,4.08,0,0,0,1.75-.28,5.2,5.2,0,0,0,.27-1,142,142,0,0,0,2.41-36.11c0-.1,0-.31,0-.48l-.63-.14C458,171.16,444.44,171.09,438.84,174.34Z"/><path class="cls-2" d="M611.87,264.57a5.15,5.15,0,0,0,.3-3,6.19,6.19,0,0,0-1.89-1.91L605,255.59l3.7,7.18a10.54,10.54,0,0,1,1,2.55,8.25,8.25,0,0,1-.25,4.4A26.48,26.48,0,0,0,611.87,264.57Z"/><path class="cls-2" d="M551.11,128.57c3.38,3.81,4.74,8.9,5.84,13,2.88,10.73,8.36,23.6,13.66,36s10.78,25.31,13.81,36.35a7.35,7.35,0,0,0,.47,1.08l.22.46a284.52,284.52,0,0,1,12.18,29.65l.1-.07c10.5-4.37,23.84-9.13,34.21-12.68h0c1.59-36,1.66-72.5.21-108.52-2.43-5.13-9.57-5.88-16.68-6.21-17-.8-35-1.77-52.29-2.72-13.82-.75-28-1.52-41.81-2.21l19.3,8.86C544,123.26,548.09,125.15,551.11,128.57Zm57.16-2.84a107.34,107.34,0,0,1,15.31-3.9,2.56,2.56,0,0,1,.9,5,100.8,100.8,0,0,0-14.58,3.71,2.6,2.6,0,0,1-.82.13,2.56,2.56,0,0,1-.81-5Zm-11.08,8.58a2.56,2.56,0,0,1,4.92,1.45,242.23,242.23,0,0,0-9.64,78.63,2.56,2.56,0,0,1-2.45,2.67h-.11a2.57,2.57,0,0,1-2.56-2.46A247.19,247.19,0,0,1,597.19,134.31Z"/><path class="cls-6" d="M469.6,168.2a5.1,5.1,0,0,1,4.8,5.33A146.28,146.28,0,0,1,471.91,211a7.07,7.07,0,0,1-1.41,3.36c-1.62,1.9-4.09,2-5.41,2.07l-9.85.43c-2.27,11.39-4.9,23.59-7.45,35.4-1.93,8.94-3.91,18.1-5.74,27a332.18,332.18,0,0,1,42.26,3.27c0-29.78,4.28-59.57,8.42-88.55,2.58-18,5.24-36.67,6.84-55A111.91,111.91,0,0,1,501,127.07l-21.77,0a80.48,80.48,0,0,1-14.62-1c-1,6.54-1.83,13.45-2.67,20.24-.9,7.32-1.76,14.24-2.74,20.54A87.87,87.87,0,0,1,469.6,168.2Z"/><path class="cls-2" d="M420.89,271.73c4.06-4.47,7-13.32,7.63-19.38.3-2.69.35-5.64.4-8.76,0-.23,0-.46,0-.69-.76,1.27-1.51,2.51-2.24,3.66-1.49,2.35-5.95,9.37-12.73,9.37l-.55,0c-4.11-.22-7.19-2.9-9.57-5.93a77.7,77.7,0,0,1-2.93,29.08,2.55,2.55,0,0,1-1.3,1.54l-.5.23a17.7,17.7,0,0,1,2.67,7.66l.48-.16c2.22-.81,10.25-4.06,13.13-5.55a12.48,12.48,0,0,1-.14-1.5c-.05-3.66,2.48-6.28,4.52-8.37C420.16,272.51,420.54,272.12,420.89,271.73Z"/><path class="cls-2" d="M95.85,238.09c.21,0,.52,0,.65,0,6.66.17,13.39,0,20.07-.42a3.93,3.93,0,0,1-2.19-4.24,4.88,4.88,0,0,1,.73-1.88,3.31,3.31,0,0,1-1.1-2.37,3.9,3.9,0,0,1,.86-2.41,21.93,21.93,0,0,1,9.54-7,139.51,139.51,0,0,0,.38-19,3.77,3.77,0,0,0-.62-.06,225,225,0,0,0-24.64.13A27.71,27.71,0,0,0,92.21,202a149.54,149.54,0,0,0,3.5,35.54A4.85,4.85,0,0,0,95.85,238.09Z"/><path class="cls-4" d="M257.32,373.87l-.21.19a9.76,9.76,0,0,0-2.22,2.48,1.49,1.49,0,0,0-.1,1.32c.07.07.39.28,1.77.29,8.94-.12,17.4-5.79,24.2-10.34a5.49,5.49,0,0,0,1.18-.95,5,5,0,0,0,.4-1.38,78.51,78.51,0,0,1,3.22-11.08,41.94,41.94,0,0,1-10.85,1.75,24.28,24.28,0,0,1-2.82-.19A78.18,78.18,0,0,1,257.32,373.87Z"/><path class="cls-2" d="M74.43,406c-1.18,12.92-2.72,26.24-6.11,39.36a41.06,41.06,0,0,0,13.24-1.65h0c1.39-6.42,3.85-12.41,6.28-18.27s5-12.11,6.43-18.74Z"/><path class="cls-2" d="M202.6,111.2,220.39,117c2.38.77,5.34,1.74,7.52,4,2.66,2.77,3.33,6.51,3.79,10.1a368.71,368.71,0,0,1,.6,88.83c-.38,3.24-1,6.62-3.44,9.09s-5.84,3-8.51,3.23a2.55,2.55,0,0,1,.06.73l-1.35,11.44a35.88,35.88,0,0,1,20.58,4,17.3,17.3,0,0,1,5.8,4.66,14.82,14.82,0,0,1,2,3.87,2.64,2.64,0,0,1,.57-.14,158.17,158.17,0,0,1,17.49-.14l0-.06a8.14,8.14,0,0,1,3.51-2.95,16.45,16.45,0,0,1,6-1.55c3-2.54,5.85-7.39,5.7-9.94a11.23,11.23,0,0,0-4.5-7.88c-.82-.65-1.72-1.24-2.62-1.83a23.1,23.1,0,0,1-5-4,6,6,0,0,1-1.55-3.14,5,5,0,0,1,1.18-3.78,7.89,7.89,0,0,1,5.34-2.73,11.11,11.11,0,0,1,7.35,2.37,35.63,35.63,0,0,1,6.56,6.61c1.95,2.35,4.17,5,5.35,8.23a15.79,15.79,0,0,1,.54,9.24c2.84-3.92,5.44-8,8-12.1,1.37-2.22,2.74-4.43,4.16-6.61,5.13-7.91,12.33-17.71,22.57-23.34a2,2,0,0,1,.35-.11,4.92,4.92,0,0,1,1.19-1.26,6.28,6.28,0,0,1,.69-.45,5.45,5.45,0,0,1-.78-2.76,6.65,6.65,0,0,1,2.16-4.89,18,18,0,0,1-5.19-3,30.73,30.73,0,0,1-5.73,4.16,14.72,14.72,0,0,1-6.72,1.79,11.26,11.26,0,0,1-2.21-.22,2.56,2.56,0,0,1-.91-4.65c2.76-1.83,2.8-6.51,2.69-8.44l0-.59a14.6,14.6,0,0,1,.22-4.61,8.75,8.75,0,0,1,4.67-5.66c-.13-1.24-.25-2.49-.4-3.74-.26-2.14-.52-4.29-.67-6.43,0,0,0-.08,0-.12-2.42-7.61-.72-16.69,2.1-22.41,6.34-12.85,17-18.67,32.75-17.83l.28,0c4.18.22,8.88.47,13.3,4.18C372,127.49,378,131.83,382,138c5.1,7.74,4.33,20.17-1.1,28.78a13.27,13.27,0,0,1,8.58,8.75,21.47,21.47,0,0,1,.53,6.21c0,.93,0,1.86,0,2.78.13,1.92.85,4.21,2.5,4.91a2.57,2.57,0,0,1-.51,4.88,11.44,11.44,0,0,1-2.09.19,19.44,19.44,0,0,1-7.25-1.75,81.85,81.85,0,0,1-14.14-7.46c-.11.66-.19,1.3-.27,1.95a29.94,29.94,0,0,1,7.31,2.66c3.12,1.64,4.45,4.47,3.23,6.89a4.34,4.34,0,0,1-.68,1,13.29,13.29,0,0,1,2.9,2,3.49,3.49,0,0,1,1.28,2.7,3.59,3.59,0,0,1-.19,1c6.86,4.3,12.2,11.62,16.26,22.37,5.6-29.68,11.46-60.31,20.79-89.62a22.82,22.82,0,0,1,3.73-7.79c2.14-2.59,5.06-4.1,7.85-5.42,7.19-3.39,20.07-8.47,30.41-12.34-87-2.61-241.08-1.51-258.58-1.38Z"/><path class="cls-5" d="M187.29,302.06a8.62,8.62,0,0,1,2.66-2.4l.12-.07,1.33-9a12.33,12.33,0,0,1-7.72-5.78,11.71,11.71,0,0,1-1.21-7.13,6.84,6.84,0,0,1-4.92-3.81c-1.8-4.1,1.3-8.89,1.33-8.94a81.1,81.1,0,0,1,7.38-9.19,86,86,0,0,0-25.2-2l-1.85.14a41.36,41.36,0,0,1-9.11,0c-.82-.11-1.62-.27-2.38-.45a2.49,2.49,0,0,1-1.44,1.33c-19.74,7.27-40.15,14.79-58.53,25.56-4.59,2.68-9.32,5.73-12.82,9.84-3.1,3.64-5.29,8.19-7.18,12.56-13.43,30.95-18.58,65.9-22.94,97.08l51.36,1.81c20.43.72,41.54,1.47,62.1-1.06l6.37-51.72c1.12-9.12,1.75-17.2-1.94-23.75a2.56,2.56,0,0,1,.6-3.23Zm-28.14,19.21a2.56,2.56,0,0,1-3.61-.25A111.33,111.33,0,0,1,142.21,302a2.56,2.56,0,1,1,4.48-2.48,107,107,0,0,0,12.72,18.19A2.56,2.56,0,0,1,159.15,321.27Zm.83-7.46h-.24a2.56,2.56,0,0,1-2.55-2.32,143.34,143.34,0,0,1-.37-22.22,2.56,2.56,0,0,1,5.12.31,138,138,0,0,0,.35,21.42A2.57,2.57,0,0,1,160,313.81Z"/><path class="cls-2" d="M287.85,348.84a77.93,77.93,0,0,1,8.88-14.77q-4.86-.57-9.7-1a19.1,19.1,0,0,0-6.4.12,2.43,2.43,0,0,1,.05,1.23A78,78,0,0,1,274.59,351c4,0,8.19-1.13,12-2.18A2.39,2.39,0,0,1,287.85,348.84Z"/><path class="cls-4" d="M393.67,227.69c-3.89-10.36-9.16-17.36-15.66-20.82a3.76,3.76,0,0,1-.31-.25c-.65.16-1.3.29-1.93.38a93.84,93.84,0,0,1-13.7,1,96.56,96.56,0,0,1-9.76-.54,39.32,39.32,0,0,1-20.94,1.92,5.36,5.36,0,0,1-2.13-.81c-8.55,5.19-14.87,13.78-19.44,20.83-1.4,2.15-2.75,4.34-4.11,6.52-4.19,6.75-8.52,13.72-14.05,19.74-.12.14-.34.37-.48.56l.15.26a28.18,28.18,0,0,0,4.43,5.88,3.22,3.22,0,0,0,.43.39c-.05,0,.13,0,.64-.17,9.12-2.34,16-9.58,23.39-18.18.56-7.06,1.38-14.12,2.48-21.09a2.56,2.56,0,1,1,5.06.81,272,272,0,0,0-3.3,38.13v.31a39.89,39.89,0,0,1-1.62,11.69,2.59,2.59,0,0,1-1.64,1.71,2.55,2.55,0,0,1-2.34-.36,1,1,0,0,0-.82.22,1,1,0,0,0-.52.69,6.59,6.59,0,0,0,.46,1,7.45,7.45,0,0,1,1,3c.32,4-3.69,6.14-5.2,6.95a88.35,88.35,0,0,0-9.46,5.95,2.55,2.55,0,0,1-1.32.94,89.71,89.71,0,0,0-28.66,35.51,4.08,4.08,0,0,0-.42,1.23,4.56,4.56,0,0,0,.94,1.68c.21.3.44.62.66,1,0-.14.09-.29.12-.44a2.16,2.16,0,0,1-.25-.27,2.56,2.56,0,0,1,.84-3.52c3.45-2.11,7.46-1.93,11.27-1.56,12.81,1.22,25.7,3.05,38.32,5.42l.36-2.38c.77-4.75,1.64-9,4.42-12.49,2.57-3.25,6.21-5.11,10-6.87,10.42-4.8,21.08-9.17,31.9-13.12a2.05,2.05,0,0,1,.1-.48c.45-1.06.91-2.09,1.35-3.1,3-6.78,5.31-12.13,5.47-19.47a2.8,2.8,0,0,1,.15-.65c-1.54-8.36-2.87-16.81-4-25.22l-.06-.47c-.75-5.79-1.53-11.77-4.53-16.41a2.56,2.56,0,0,1,4.31-2.78c3.63,5.61,4.48,12.18,5.3,18.53l.06.47c1.37,10.46,3.09,21,5.15,31.34a54.45,54.45,0,0,0,10.45-3.75C400.74,261.3,399.8,244,393.67,227.69ZM367.44,291l-.49.53a2.55,2.55,0,0,1-3.62.16l-.16-.16c-7.3-.76-14.94,1.42-21.74,3.34a2.47,2.47,0,0,1-.7.1,2.56,2.56,0,0,1-.7-5l.11,0-.71-.29-13.08-5.09a2.56,2.56,0,1,1,1.85-4.77l13.09,5.08a25.84,25.84,0,0,1,5.17,2.48,2.6,2.6,0,0,1,.72.72c6-1.46,12.41-2.42,18.82-1.29a2.56,2.56,0,0,1,1.44,4.25Z"/><path class="cls-2" d="M394.47,282.86a59.62,59.62,0,0,1-7.09,2.28,23.61,23.61,0,0,1-2.63,7.54,2.56,2.56,0,0,1,2.68.5c.05,0,.07.11.11.15,3.06-1,6.13-1.93,9.21-2.85a12.55,12.55,0,0,0-2.12-7.24A1.8,1.8,0,0,1,394.47,282.86Z"/><path class="cls-2" d="M320.56,354.64a2.54,2.54,0,0,1,1.2.08c.38-.75.77-1.5,1.15-2.28a1.83,1.83,0,0,1,.13-.16q1-7,2-13.87c-2.5-.47-5-.9-7.54-1.33a64.13,64.13,0,0,1-6.24,18.17,10.77,10.77,0,0,0,3.41.31,34.08,34.08,0,0,0,5.1-.77Z"/><path class="cls-4" d="M308.77,359.84c-.47.81-.95,1.63-1.46,2.46a213.42,213.42,0,0,1-14.89,20.23L291,384.32c-1.41,1.78-1.25,2.27-1.24,2.28s.31.38,1.88.84c1.9.56,3.45,1,4.73.65s2.59-1.53,4-2.91a16.05,16.05,0,0,1,9.1-5.26c2.16-.61,4-1.14,5-2.42.83-1.1,1-2.84,1.19-4.68l.06-.58a37.78,37.78,0,0,1,3.43-12.1,32.35,32.35,0,0,1-4.13.54l-1,0A14.81,14.81,0,0,1,308.77,359.84Z"/><path class="cls-5" d="M78.82,471.54c2.87-2.49,2.41-7.42,2-12.2-.07-.79-.15-1.57-.2-2.34a44.51,44.51,0,0,1,.14-7.77,46.43,46.43,0,0,1-11,1.33c-1,0-1.91-.07-2.86-.13a117.45,117.45,0,0,1-7.54,19.17,22.9,22.9,0,0,1,10.33,2.46,24.66,24.66,0,0,1,5.1,3.38,23.42,23.42,0,0,1,3.32-3.3Z"/><path class="cls-2" d="M335.65,479.58a60.38,60.38,0,0,1,2.72-14.07c-5.88.64-11.53,1.09-16.71,1.43a93,93,0,0,1-2,16.36,30.47,30.47,0,0,0,4-.75l8.58-2C333.42,480.25,334.56,479.94,335.65,479.58Z"/><path class="cls-2" d="M352.81,510.28a6.22,6.22,0,0,0-2.24-.42,4.07,4.07,0,0,0-2.32.61c-6.75,4.7-12.95,9.47-14.83,16a4,4,0,0,0-.17,2,4.39,4.39,0,0,0,1.23,1.87c3,3.11,7.89,4.78,13.44,4.63,5.27-.16,10.53-1.82,15.62-3.43l.76-.24a2.63,2.63,0,0,1,.42-1c1.48-2.09,1.24-5.37-.72-9.77C361.8,515.72,354,510.77,352.81,510.28Z"/><path class="cls-5" d="M336.49,509.52A223.83,223.83,0,0,1,335.35,485l-1.88.48-8.58,2a27.24,27.24,0,0,1-6.32,1c-.14,0-.28,0-.41,0-.44,1.19-.92,2.36-1.48,3.51a67.09,67.09,0,0,1-4,6.83l-7,10.86c3.42,2.1,9.54,6.69,11.86,11.88.18.4.29.76.44,1.15,4.59-2.44,12.94-3.85,13.64-4a33,33,0,0,1,5.22-5.87Z"/><path class="cls-2" d="M549.75,235.09a1.68,1.68,0,0,1-.15-.3c-3.44-8.25-7.92-18.57-12.66-29.5-.28-.65-.57-1.3-.85-1.94A261.49,261.49,0,0,0,529.75,239L534,277.08a284.31,284.31,0,0,1,28.76-15.35h0c-2.46-4.56-4-8.14-5.53-11.61A123.86,123.86,0,0,0,549.75,235.09Z"/><path class="cls-3" d="M567.4,259.56l.06.11.42-.77A5,5,0,0,0,567.4,259.56Z"/><path class="cls-5" d="M574.87,252.35a2.55,2.55,0,0,1,2.3-2.8,25.83,25.83,0,0,0,8.27-2.23l.34-.15a10.06,10.06,0,0,1,3.91-1.17,9.39,9.39,0,0,1,2.55.3h0a279,279,0,0,0-11.79-28.64l-.18-.39a11.48,11.48,0,0,1-.81-2c-2.94-10.71-8.35-23.41-13.58-35.7C560.53,167,555,154,552,142.88c-1-3.75-2.14-8-4.72-10.92-2.31-2.61-5.75-4.19-9.08-5.72l-25.66-11.78c-6.15,6.05-7.12,16.4-7.86,24.85-1.62,18.49-4.29,37.21-6.88,55.31-5,34.79-10.11,70.77-7.81,106.21a4,4,0,0,0,.2,1.28,3.34,3.34,0,0,1,.82,0l18.78,1.7c.08-.73.17-1.48.25-2.2a21.43,21.43,0,0,1,9.06-15q4.93-3.42,10-6.64l-4.5-40.75a3.25,3.25,0,0,1,0-.54,268.87,268.87,0,0,1,8-42.45,2.69,2.69,0,0,1,.24-.48c-5.46-12.62-10.76-25-14.59-34.58a2.56,2.56,0,1,1,4.76-1.9c4.77,11.94,11.82,28.21,18.65,43.94,4.72,10.88,9.18,21.16,12.62,29.41a129.34,129.34,0,0,1,7.66,15.41c1.55,3.58,3.06,7,5.48,11.49a5,5,0,0,1,.48-.66l2.06-3.75a2.56,2.56,0,0,1,3.48-1,2.51,2.51,0,0,1,.89.85,10,10,0,0,0,1.4-1A2.52,2.52,0,0,1,574.87,252.35Zm-6.37-23.56a43.9,43.9,0,0,1-6.88,2.08,6,6,0,0,1-1.21.12,3.81,3.81,0,0,1-3-1.3c-1.39-1.64-1-4,.88-5.9a32.76,32.76,0,0,1,12-7.5,2.56,2.56,0,1,1,1.71,4.83,27.45,27.45,0,0,0-6.45,3.29l1.2-.44c3.81-1.38,7.75-2.81,12.08-2.27a2.56,2.56,0,0,1-.64,5.08C575.06,226.39,571.87,227.56,568.5,228.79Z"/><path class="cls-2" d="M604.8,266.51a7,7,0,0,0-.61-1.39L600,257a2.57,2.57,0,0,1,1.1-3.45,2.52,2.52,0,0,1,1.06-.27,2.54,2.54,0,0,1-.64-2.28c-.61.08-1.23.15-1.84.24a23.17,23.17,0,0,1-7.69.28l-.79-.16a7.67,7.67,0,0,0-1.27-.19,6.25,6.25,0,0,0-2,.69l-.36.17a30.75,30.75,0,0,1-9.91,2.67,2.56,2.56,0,0,1-2-.66,10,10,0,0,1-1.4,1,2.56,2.56,0,0,1,.13,2.63l-5.81,10.56a5.51,5.51,0,0,0-1,3.76l0,8.09a8,8,0,0,0,1.36-1.58,12.76,12.76,0,0,0,2.2-4.41,17.18,17.18,0,0,0,.29-1.77,17.7,17.7,0,0,1,.6-3c1.15-3.68,4.11-6.06,7.24-8.58.86-.69,1.76-1.41,2.68-2.2a2.56,2.56,0,0,1,3.78.49c2.23,3.23,5,7.26,5.13,12.1a22.8,22.8,0,0,1-.54,4.91l-.1.57a71.65,71.65,0,0,0-1.1,10.43,12.35,12.35,0,0,0,1.27-2,63,63,0,0,0,6-15.59,7.85,7.85,0,0,0,.31-2.59,8.7,8.7,0,0,0-.68-2l-3.5-8.16a2.57,2.57,0,1,1,4.72-2l3.49,8.17a12.54,12.54,0,0,1,1,3.3,12,12,0,0,1-.4,4.48c-.44,1.87-1,3.71-1.59,5.54a39,39,0,0,0,3.95-6C604.4,269,605.05,267.56,604.8,266.51Z"/><path class="cls-2" d="M519.26,509.07c.08,1.71,1.35,2.92,4.69,4.47a12.65,12.65,0,0,0,12-.72c2.58-1.54,3.68-2.39,3.72-3.69.2-5.32.27-12.78.33-20,0-4.19.08-8.21.14-11.57-7.65-.3-14.85-.95-21.14-1.64C518.87,485.09,518.89,501.34,519.26,509.07Z"/><path class="cls-2" d="M319.39,527.81a13.51,13.51,0,0,1,0,4.44l1-.32c2.86-1,5.7-1.94,7.82-2.61a9.21,9.21,0,0,1,.31-4.2c.06-.22.16-.42.22-.63-3.81.88-8.34,2.3-9.22,3.24C319.47,527.77,319.42,527.78,319.39,527.81Z"/><path class="cls-2" d="M642.68,420.65c.08,2.27.26,6.84.54,12.68.08,1.7,1.35,2.91,4.7,4.46a12.63,12.63,0,0,0,12-.71c2.59-1.55,3.68-2.4,3.73-3.7l.1-2.87c.23-6.13.67-17.8.84-25.23l-10.61,7.46Z"/><path class="cls-2" d="M301.61,513.28a6.22,6.22,0,0,0-2.24-.42,4.1,4.1,0,0,0-2.33.61c-6.74,4.7-12.94,9.47-14.82,16a4,4,0,0,0-.17,2,4.39,4.39,0,0,0,1.23,1.87c3,3.11,7.89,4.81,13.44,4.63,5.26-.16,10.53-1.82,15.62-3.43l.75-.24a2.52,2.52,0,0,1,.43-1c1.48-2.09,1.24-5.38-.72-9.77C310.6,518.71,302.77,513.77,301.61,513.28Z"/><path class="cls-2" d="M89.65,233.54c-.22.29-.47.56-.67.86l.88.23Z"/><path class="cls-2" d="M389.15,518.84c-2.4,1.68-5.17,1.76-7.61,1.82-.87,0-1.74.05-2.58.15-2.63.35-6.8,2.33-8.26,3.92,0,0-.07,0-.11.08a13.46,13.46,0,0,1,0,4.57l5.74-1.81c6.46-2.05,13.1-4.15,19.34-6.78,6.93-2.93,11.6-5.83,15.16-9.42,1.45-1.45,2.19-3,1.83-3.73-.29-.59-1.41-1.12-1.77-1.29a20.64,20.64,0,0,0-17.42.06,1.46,1.46,0,0,1-.36.09C393.44,510.82,393.22,516,389.15,518.84Z"/><path class="cls-5" d="M486.86,306c-1.77-1.45-1.91-3.73-2-4.82-.3-4.52-.47-9-.54-13.55A327.39,327.39,0,0,0,441,284.27c-.25,1.26-.52,2.55-.77,3.79a6.37,6.37,0,0,1-1.86,3.8,5.85,5.85,0,0,1-5.07,1.24l-2.14-.5c-7.18-1.69-14.58-3.43-25.29-.08l-1.17.4a2.48,2.48,0,0,1-1.31.94,419.93,419.93,0,0,0-60.6,22.4c-3.36,1.55-6.29,3-8.16,5.39-2,2.56-2.72,6.11-3.38,10.14A1007.18,1007.18,0,0,0,319.09,462c6.42-.39,13.7-.92,21.24-1.82l21.93-96c-1.79-1.33-3.37-4-3.64-9.09a5.52,5.52,0,0,1,1.39-4.51c2.17-2.08,5-.92,6.49-.3l.28.12a7.33,7.33,0,0,0,9.13-4,2.59,2.59,0,0,1,2.27-1.65q1.13-7.6,2.33-15.22a2.57,2.57,0,0,1,1.21-1.79c18.09-10.94,38.38-16.37,58.47-20.94a2.42,2.42,0,0,1-.06-1c.66-4.61,1.15-9.33,1.47-14a2.62,2.62,0,0,1,2.73-2.39,2.56,2.56,0,0,1,2.38,2.73c-.3,4.51-.78,9-1.39,13.48l4.5-1a2.56,2.56,0,1,1,1.11,5c-22.38,4.94-45.51,10.05-65.54,21.87-6.67,42.22-11.57,83.83-15,127.08,7.45-.24,14.95-.72,22.36-1.42l.53-.06c.06-.18.12-.42.15-.53q1.14-4.36,2.25-8.73c1.49-5.82,3-11.85,4.69-17.75S404,417.89,405.81,412c5.89-19.12,12-38.89,12.81-59.11a2.57,2.57,0,0,1,4.14-1.92l2.77,2.17a17.16,17.16,0,0,0,2.33-4.11,2.42,2.42,0,0,1-1.34.65l-.33,0a2.56,2.56,0,0,1-2.54-2.23,49.18,49.18,0,0,0-6.54-18.8A2.56,2.56,0,0,1,421.5,326a54.2,54.2,0,0,1,7.23,20.74,2.54,2.54,0,0,1,2-1.09c22.15-1.1,44.57-2.63,66.64-4.56,2.64-.23,5.12-.55,6.49-1.95a2.52,2.52,0,0,1,3.14-.35c.59-10.56,1.34-20.67,2.28-29.9l-18.69-1.68A6.5,6.5,0,0,1,486.86,306ZM364.22,343.1a2.55,2.55,0,0,1-2.36,1.58,2.47,2.47,0,0,1-1-.2,80.21,80.21,0,0,0-17.17-5,2.56,2.56,0,1,1,.86-5.05,85.61,85.61,0,0,1,18.28,5.3A2.55,2.55,0,0,1,364.22,343.1Zm8.5,4.38a2.56,2.56,0,0,1-3.58-.54A208.76,208.76,0,0,1,355,325.16a2.56,2.56,0,1,1,4.46-2.52,206.62,206.62,0,0,0,13.81,21.25A2.56,2.56,0,0,1,372.72,347.48Zm47.38-2.15a2.56,2.56,0,0,1,.46,3.59,2.56,2.56,0,0,1-3.59.47,82.88,82.88,0,0,0-17.77-10.46,2.56,2.56,0,1,1,2-4.7A88,88,0,0,1,420.1,345.33Zm54.33-46.7a135.83,135.83,0,0,0-15,6.12,2.56,2.56,0,0,1-3.41-1.2,2.55,2.55,0,0,1,1.2-3.42,141.29,141.29,0,0,1,15.53-6.35,2.56,2.56,0,0,1,1.65,4.85Z"/><path class="cls-2" d="M432.7,350.71a22.32,22.32,0,0,1-4.2,6.86,3.82,3.82,0,0,1-1.92,1.22,3.77,3.77,0,0,1-3.14-.8c-1.52,19.13-7.21,37.59-12.73,55.5-1.82,5.88-3.69,12-5.37,17.95-1.65,5.83-3.18,11.82-4.66,17.62-.21.82-.43,1.64-.64,2.46,41.91,4.49,78.18,8.34,105.27,11.15-.37-21.82-.88-73.81,1.41-119.25-2.76,2.25-6.43,2.59-8.94,2.81C476.22,348.11,454.34,349.61,432.7,350.71Z"/><path class="cls-2" d="M318.51,380.58c-2,2.66-5,3.51-7.68,4.27a16.85,16.85,0,0,0-4,1.48,16.37,16.37,0,0,0-2.88,2.48c-1.69,1.68-3.6,3.58-6.37,4.26a9.2,9.2,0,0,1-2.19.25,18.61,18.61,0,0,1-5.21-1c-1.29-.39-4-1.18-5.11-3.66-1.48-3.31,1-6.4,1.91-7.57l1.43-1.79A209.09,209.09,0,0,0,303,359.59c5.1-8.2,8.21-15.84,9.51-23.33-3.33-.52-6.68-1-10-1.45a2.83,2.83,0,0,1-.37.71,73.17,73.17,0,0,0-14.69,30.93,8.72,8.72,0,0,1-1.14,3.2,8.44,8.44,0,0,1-2.62,2.41c-7.36,4.94-16.52,11.08-27,11.21h-.24a7.17,7.17,0,0,1-5.17-1.73,6.31,6.31,0,0,1-.93-7.25,13.48,13.48,0,0,1,3.39-4l.2-.19a73.39,73.39,0,0,0,19.91-30.46,2.54,2.54,0,0,1-2.11-2.16,5,5,0,0,0-1-1.7,8,8,0,0,1-1.91-4.59,8,8,0,0,1,.86-3.4,93.94,93.94,0,0,1,7.86-14.16,25.3,25.3,0,0,1-6.48.87c-.74,0-1.48,0-2.21-.1a4.62,4.62,0,0,1-3.21-1.43c-1.18-1.38-1.21-3.36-.07-5.3a13.82,13.82,0,0,1,3.1-3.62c-6.12,2.74-12.59,5-19.43,5.07a63.92,63.92,0,0,1-13.1,7.94c-4.68,2.09-8.68,3.1-12.38,3.1a21.1,21.1,0,0,1-2.66-.17,10.78,10.78,0,0,1-6.82-3.53,9.23,9.23,0,0,1-4.14,2.77,13.07,13.07,0,0,1-4.14.61,25.72,25.72,0,0,1-3-.2,50.07,50.07,0,0,1-6.74-1.29c-5.47-1.44-8.93-4-10.29-7.56-.1-.25-.14-.52-.22-.78l-17.61,14.56c3.65,8.17,2.47,17.79,1.58,24.95l-6.6,53.71a2.57,2.57,0,0,1-2.21,2.22c-6.75.9-13.54,1.41-20.34,1.71A106,106,0,0,1,136,422.67c48,5.38,111.19,12.33,178.73,19.66,1.05-21.84,2.73-43.35,5.07-64.39A9.47,9.47,0,0,1,318.51,380.58ZM172.51,326a2.55,2.55,0,0,1,2.77-2.34c27.64,2.35,58,5,89.17,7.71a2.56,2.56,0,0,1-.22,5.11H264c-31.16-2.73-61.52-5.36-89.15-7.7A2.57,2.57,0,0,1,172.51,326Z"/><path class="cls-2" d="M348.82,446l17.35,1.87c2.71-32.09,6.28-63.38,10.79-94.78a12.8,12.8,0,0,1-2.76,1.72,12.16,12.16,0,0,1-9.35.28l-.3-.13c-.23-.09-.53-.22-.81-.32v.12c.17,3.16.94,5.2,2.06,5.47a2.56,2.56,0,0,1,1.9,3.07Z"/><path class="cls-2" d="M389.55,462.5c-5.54.47-11.1.8-16.67,1a94,94,0,0,1-2.05,17,62.9,62.9,0,0,0,16-4.45A57,57,0,0,1,389.55,462.5Z"/><path class="cls-5" d="M381.4,515.54c2,0,3.67-.1,4.81-.9,2.07-1.44,2-5.31,1.77-8.09-.12-1.52-.26-3.05-.39-4.59a191.06,191.06,0,0,1-1.07-20.28,68.36,68.36,0,0,1-17.32,4.24q-.58,1.56-1.32,3.06a66.65,66.65,0,0,1-4,6.81l-7,10.88c3.42,2.11,9.54,6.7,11.86,11.88.15.32.23.62.36.93a23.61,23.61,0,0,1,9.26-3.75C379.31,515.6,380.36,515.57,381.4,515.54Z"/><path class="cls-2" d="M681.2,234.72c-7.82-1.62-20.75-2.13-27.76-2.29A32.44,32.44,0,0,0,642.67,234c-8.52,2.84-23.33,7.89-36.13,12.87l.14.09,4,2.73a17.42,17.42,0,0,1,4.07,3.5,7.72,7.72,0,0,1,1.74,5.63,5.08,5.08,0,0,1,.42.76,9.29,9.29,0,0,1-.16,6.52c-.15.47-.34.93-.52,1.4A483,483,0,0,1,673,242.14a2.56,2.56,0,0,1,1.78,4.81,477.19,477.19,0,0,0-62.9,28.74c-.09.05-.19.07-.28.11s-.21.31-.33.46a10.4,10.4,0,0,1-3.28,2.85,6.3,6.3,0,0,1-2.83.68,5.33,5.33,0,0,1-1.5-.2c-.36.45-.68.93-1,1.36-1.83,2.09-3.52,2.65-4.81,2.65a4,4,0,0,1-.81-.11c-.61,1.34-1.27,2.65-2,3.94a13.1,13.1,0,0,1-3,4,7,7,0,0,1-4.36,1.63,5.47,5.47,0,0,1-1.84-.31,2.55,2.55,0,0,1-1.19-.87c-4.71,3-9.41,6.1-14,9.27a2.58,2.58,0,0,1-1.45.45,2.56,2.56,0,0,1-1.46-4.67c5.41-3.72,10.94-7.36,16.46-10.83a76.71,76.71,0,0,1,1.13-10.46l.11-.59a19.09,19.09,0,0,0,.46-3.83c-.07-2.35-1.13-4.57-2.68-7l-.58.47c-2.72,2.19-4.88,3.91-5.56,6.11a13.89,13.89,0,0,0-.41,2.18,21.5,21.5,0,0,1-.38,2.27,18.11,18.11,0,0,1-3,6.17c-.76,1.08-3.07,4.33-6.74,4.3a3.94,3.94,0,0,1-3.4-1.81,4.23,4.23,0,0,1-.54-2.26l-.05-9.64a12.26,12.26,0,0,1,.25-3.08,9,9,0,0,1,.66-1.81A281.07,281.07,0,0,0,522,290.86a16.32,16.32,0,0,0-6.89,11.39c-6.17,51-5.11,138.13-4.64,163.62a4.5,4.5,0,0,0,4,4.38A270.73,270.73,0,0,0,552,472.58,22.48,22.48,0,0,0,563.9,469c13.88-9.08,47.13-32.36,74.13-51.32a2.48,2.48,0,0,1,1.29-.9l11.67-8.2,16.54-11.62a18.42,18.42,0,0,0,7.83-13.42c3.73-39.89,6.75-85.7,9.51-144.15A4.54,4.54,0,0,0,681.2,234.72ZM555.79,459l-2.56.11h-2.57c0-43.78,0-88.92,5.89-146.21a2.56,2.56,0,0,1,5.1.53C555.79,370.46,555.79,415.47,555.79,459Z"/><path class="cls-2" d="M41,416.66a3.06,3.06,0,0,1-.41.1h-.09A2.56,2.56,0,0,1,38,414.28C37.08,387.5,38,363,39,337c.71-18.44,1.43-37.5,1.43-57.35a2.57,2.57,0,0,1,5.13,0c0,19.95-.73,39.06-1.44,57.55-.52,13.69-1,27-1.25,40.4,4-25.53,9.51-52.35,20.16-76.91,2.06-4.74,4.45-9.69,8-13.84,4-4.69,9.16-8,14.13-10.95,18.58-10.88,39-18.43,58.72-25.7a.22.22,0,0,0,0-.08l.64-4.73c-1.09.12-2.18.19-3.24.25l-8.14.5c-.4,0-.84.05-1.32.05a7.66,7.66,0,0,1-3-.54,5.27,5.27,0,0,1-3-3l-.89,0a10.7,10.7,0,0,1-2-.33,2.63,2.63,0,0,1-.3.09c-6.25.57-12.57.85-18.87.9-10.51,5.24-29.28,13.43-46.33,20.78a2.56,2.56,0,0,1-2-4.71c13.18-5.68,27.39-11.86,38-16.77a4.52,4.52,0,0,1-.83-.54,3.53,3.53,0,0,1-1.87.56,3.38,3.38,0,0,1-.94-.13,2.55,2.55,0,0,1-1.48-1.11,3.17,3.17,0,0,1-.47-2l-1.56-.4a4,4,0,0,1-2.7-1.91,3.88,3.88,0,0,1,.23-3.81l.45-.79a4,4,0,0,1-1.58-.69,3.29,3.29,0,0,1-.73-.77c-11.27,4.11-50.49,19.73-67.46,27.6-2.22,1-4.15,2-5.29,3.5-1.49,1.93-1.82,4.77-1.95,7.3C5.3,305.23,3.79,358.83,7,410.78c.17,2.67.43,5.19,1.85,6.6a10.1,10.1,0,0,0,4.45,2c7.72,2.09,20.27,2.63,25.31,2.76a12.14,12.14,0,0,0,5.23-1c1.89-.8,4.61-1.94,7.39-3.13-4.2-.52-7.56-.95-10-1.29A1.29,1.29,0,0,1,41,416.66Z"/><path class="cls-2" d="M69.3,405.83l-26.44-.93c0,2.29.11,4.59.17,6.91,5.17.69,13.67,1.74,25.36,3.12Q68.9,410.36,69.3,405.83Z"/><path class="cls-2" d="M67.36,476.62a17.77,17.77,0,0,0-8.08-1.93A17.53,17.53,0,0,0,52.54,476a17.83,17.83,0,0,0-10,10.92,5.48,5.48,0,0,0-.33,2.42c.4,1.92,3.65,2.82,6.5,2.83,8,.13,16.24-2.23,25.2-6.92C74.32,483,73.85,480,67.36,476.62Z"/><path class="cls-2" d="M108.45,480.13A17.63,17.63,0,0,0,83.6,490.45a5.22,5.22,0,0,0-.33,2.42c.4,1.92,3.65,2.81,6.5,2.83,7.9-.07,16.24-2.23,25.19-6.92C115.42,486.48,115,483.47,108.45,480.13Z"/><path class="cls-2" d="M96.51,467.75A6.76,6.76,0,0,0,98,464.67c.12-1.86-2-3.53-4-3.88-2.47-.42-5.12.39-7.85,1.38.28,4.73-.05,9.84-4,13.24l-.74.63a16,16,0,0,0-3,3.12c-.09.14-.24.2-.36.32a10.26,10.26,0,0,1,.95,2.88c1.51-.92,3.05-1.91,4.6-3C88,476.41,93,472.69,96.51,467.75Z"/><path class="cls-2" d="M38.47,427.24c-3.79-.1-9.49-.36-15.16-1,.21,9.89.55,20.19.78,25,.08,1.7,1.35,2.91,4.69,4.46a12.63,12.63,0,0,0,12-.72c2.59-1.54,3.67-2.39,3.72-3.69.2-5.31.27-12.76.33-20,0-1.75,0-3.44.05-5.1a17.55,17.55,0,0,1-5.89,1Z"/><path class="cls-2" d="M86.09,227.63l2.67.55c-.19-1.27-.37-2.54-.52-3.82a2.91,2.91,0,0,1-.4-.05c-.62-.13-1.25-.32-1.87-.47C86,225.1,86,226.37,86.09,227.63Z"/><path class="cls-2" d="M81.72,217.48c2,.57,4,1.05,6,1.51q-.3-3.51-.45-7.16c-.06,0-.11,0-.17,0a14.12,14.12,0,0,0-3.26-.14,3.05,3.05,0,0,0-1.85.78c-.63.7-.78,2.11-.88,3.5a3.74,3.74,0,0,0,0,1.39C81.12,217.31,81.54,217.43,81.72,217.48Z"/><path class="cls-2" d="M460.3,30.86c-2.42,2-4.57,6.29-5.91,11.75a1.41,1.41,0,0,1,0,.2c-1.79,7.46-1,15.15-.16,23.29.28,2.73.56,5.45.74,8.16l.08,1.16a32.65,32.65,0,0,0,.82,6.52,21.63,21.63,0,0,0,2.7,5.83c1.76,2.78,5.47,7.57,10.65,8.38,3.3.52,6.79-.63,9.78-1.82a69.73,69.73,0,0,0,16.84-9.61A2.57,2.57,0,0,1,499,88.78a75,75,0,0,1-18.08,10.31,33.94,33.94,0,0,1-6.54,2,60.86,60.86,0,0,1-.08,8,2.58,2.58,0,0,1-.65,1.45,2.54,2.54,0,0,1-1.53,1.59c-1.58.56-3.4,1.22-5.35,1.94-.46,2.25-.89,4.58-1.29,7a74.9,74.9,0,0,0,13.82.89l23.07,0a27.78,27.78,0,0,1,5.22-9.78l-3.2-1.47a2.56,2.56,0,0,1-1.35-1.52,2.53,2.53,0,0,1-1.48-2c-1.22-9.89-.16-23.38,2.51-32.06a2.56,2.56,0,0,1,2.19-1.8,11.29,11.29,0,0,0,1.25-.51,2.43,2.43,0,0,1,.93-.52,11.78,11.78,0,0,0,5.81-8.78c.1-1.39-.26-3-1.17-3.46a2.32,2.32,0,0,0-1.64,0,7.36,7.36,0,0,0-2.26,1.47,2.57,2.57,0,0,1-3.62-.23c-.07-.09-.1-.19-.16-.28h-.05a2.55,2.55,0,0,1-1.39-.41A62.63,62.63,0,0,1,486.66,43.8l-.66-1a27.11,27.11,0,0,0-2.49-3.34l0,0a13.21,13.21,0,0,0-1.61,3.89,16.54,16.54,0,0,1-2.64,5.84,4.6,4.6,0,0,1-3.38,2,5.05,5.05,0,0,1-4.2-2.41,46.21,46.21,0,0,1-8-18h-3.28A1.43,1.43,0,0,0,460.3,30.86ZM480,58.27a2.86,2.86,0,0,1,4-1.75A3,3,0,0,1,485.59,59a4.45,4.45,0,0,1-.1,1.32,3.14,3.14,0,0,1-1.32,2.07,2.86,2.86,0,0,1-1.52.43,2.24,2.24,0,0,1-.52,0,2.9,2.9,0,0,1-2.23-2.6v0A3.15,3.15,0,0,1,480,58.27Zm-3.52,21.14a2.56,2.56,0,0,1,2.65,4.39,16.64,16.64,0,0,1-8.55,2.37,17.29,17.29,0,0,1-1.9-.11,2.56,2.56,0,0,1,.6-5.09A11.43,11.43,0,0,0,476.47,79.41Zm-8.74-6.64.55,0a1.92,1.92,0,0,1-.13,3.83H468l-.55,0a1.93,1.93,0,0,1-1.79-2A2,2,0,0,1,467.73,72.77Zm-6-12.44a3.14,3.14,0,0,1-1.32,2.07,2.83,2.83,0,0,1-1.52.43,2.15,2.15,0,0,1-.51,0,2.87,2.87,0,0,1-2.23-2.64h0a3.12,3.12,0,0,1,.08-1.83,3,3,0,0,1,1.67-1.85A2.87,2.87,0,0,1,461.87,59,4.4,4.4,0,0,1,461.77,60.33Z"/><path class="cls-5" d="M525.44,45.5c-1.17-8.36-4.38-20.12-13-28.67-2.35-2.34-2.54-4.49-1.82-6a28.56,28.56,0,0,0-13.29-5.26,58.32,58.32,0,0,0-16.21.27c-5.12.67-10.85,1.83-14.54,5.42a2.57,2.57,0,0,1-3.62,0A2.5,2.5,0,0,1,462.3,9a14.09,14.09,0,0,1-4.05,3.11,2.45,2.45,0,0,1,1.31,1.09,2.56,2.56,0,0,1-1,3.49c-1.8,1-3,3-4.44,5.56-2.68,4.78-5.71,10.19-6.25,15.77-.05.44-.07.88-.1,1.32a24.11,24.11,0,0,1-.34,3.05,24.82,24.82,0,0,1-.89,3.12,17.14,17.14,0,0,0-.76,2.73c-.32,2,.86,4.51,2.42,7a51,51,0,0,1,1.1-13.35,2.44,2.44,0,0,1,0-.27c.94-3.88,3.18-10.94,7.66-14.69a2.55,2.55,0,0,1,3.4,3.79h3.28a45.25,45.25,0,0,1-.84-6,2.57,2.57,0,0,1,5.12-.34,41.24,41.24,0,0,0,7.61,21.07A15.07,15.07,0,0,0,477,41.88a15.74,15.74,0,0,1,2.9-6.14,4.93,4.93,0,0,1,2.48-1.62c1.17-.3,3-.21,4.93,1.89a30.84,30.84,0,0,1,3,4l.63.92a57.24,57.24,0,0,0,15.84,15.45,2.81,2.81,0,0,1,.35.34,10.47,10.47,0,0,1,2.64-1.42,7.37,7.37,0,0,1,5.57.18c3.33,1.6,4.27,5.42,4.05,8.47,0,.5-.15,1-.24,1.49,3.16-3.44,5.68-7.38,6.27-9.76A27.26,27.26,0,0,0,525.44,45.5Z"/><path class="cls-2" d="M116.09,407.33c-1.25,13.35-3.11,27.73-6.74,41.55a41.39,41.39,0,0,0,13.24-1.63c1.4-7.15,4-14.07,6.57-20.84a136.44,136.44,0,0,0,6.12-19.07c-3.21.08-6.43.13-9.64.13S119.27,407.39,116.09,407.33Z"/><path class="cls-2" d="M122.55,479.55a15.27,15.27,0,0,0-3,3.12,2.17,2.17,0,0,1-.37.31,9.81,9.81,0,0,1,1,2.89c1.52-.92,3-1.91,4.61-3,4.39-3,9.35-6.69,12.92-11.64a6.75,6.75,0,0,0,1.46-3.09c.12-1.85-2-3.52-4-3.87-2.46-.42-5.12.39-7.84,1.38.28,4.73-.06,9.84-4,13.24Z"/><path class="cls-5" d="M119.91,475.05c2.87-2.49,2.42-7.42,2-12.2-.08-.79-.15-1.58-.21-2.34a46.77,46.77,0,0,1,.14-7.77,46.59,46.59,0,0,1-11,1.34c-1,0-1.95-.08-2.92-.14a121.32,121.32,0,0,1-7.47,19.17,22.84,22.84,0,0,1,10.34,2.46,25.35,25.35,0,0,1,5.1,3.38,22.89,22.89,0,0,1,3.32-3.3Z"/><path class="cls-7" d="M264.23,336.51a2.56,2.56,0,0,0,.22-5.11c-31.17-2.73-61.53-5.36-89.17-7.71a2.56,2.56,0,0,0-.43,5.11c27.63,2.34,58,5,89.15,7.7Z"/><path class="cls-7" d="M458.42,62.78a2.15,2.15,0,0,0,.51,0,2.83,2.83,0,0,0,1.52-.43,3.14,3.14,0,0,0,1.32-2.07,4.4,4.4,0,0,0,.1-1.29,2.87,2.87,0,0,0-3.93-2.59,3,3,0,0,0-1.67,1.85,3.12,3.12,0,0,0-.08,1.83h0A2.87,2.87,0,0,0,458.42,62.78Z"/><path class="cls-7" d="M482.13,62.78a2.24,2.24,0,0,0,.52,0,2.86,2.86,0,0,0,1.52-.43,3.14,3.14,0,0,0,1.32-2.07,4.45,4.45,0,0,0,.1-1.32A3,3,0,0,0,484,56.52a2.86,2.86,0,0,0-4,1.75,3.15,3.15,0,0,0-.09,1.86v0A2.9,2.9,0,0,0,482.13,62.78Z"/><path class="cls-7" d="M468.28,72.81l-.55,0a2,2,0,0,0-2.05,1.78,1.93,1.93,0,0,0,1.79,2l.55,0h.13a1.92,1.92,0,0,0,.13-3.83Z"/><path class="cls-7" d="M157.67,65.08a2.9,2.9,0,0,0-2.22,0,3,3,0,0,0-1.62,1.74,3,3,0,0,0-.1,1.86A2.85,2.85,0,0,0,156,71.19a2.81,2.81,0,0,0,.5,0,2.85,2.85,0,0,0,2.77-2.42,3.81,3.81,0,0,0,.1-1.26A3,3,0,0,0,157.67,65.08Zm-1.28,2.83-.13,0,.24-.23Z"/><path class="cls-7" d="M177.57,65.08a2.89,2.89,0,0,0-2.22,0,3,3,0,0,0-1.62,1.74,3.07,3.07,0,0,0-.1,1.86,2.86,2.86,0,0,0,2.27,2.53,2.63,2.63,0,0,0,.49,0,2.87,2.87,0,0,0,2.78-2.42,4.3,4.3,0,0,0,.1-1.24A3,3,0,0,0,177.57,65.08Zm-1.28,2.83-.13,0,.24-.23Z"/><path class="cls-7" d="M164.26,81.51l.51,0h.12A1.92,1.92,0,0,0,165,77.7l-.51,0a1.92,1.92,0,0,0-.23,3.84Z"/><path class="cls-7" d="M170.56,83.47a18.45,18.45,0,0,1-6.86,1A2.6,2.6,0,0,0,161,86.9a2.56,2.56,0,0,0,2.45,2.67c.35,0,.71,0,1.07,0a23.57,23.57,0,0,0,7.7-1.29,2.56,2.56,0,0,0-1.68-4.84Z"/><path class="cls-7" d="M560.41,231a6,6,0,0,0,1.21-.12,43.9,43.9,0,0,0,6.88-2.08c3.37-1.23,6.56-2.4,9.68-2a2.56,2.56,0,0,0,.64-5.08c-4.33-.54-8.27.89-12.08,2.27l-1.2.44a27.45,27.45,0,0,1,6.45-3.29,2.56,2.56,0,1,0-1.71-4.83,32.76,32.76,0,0,0-12,7.5c-1.92,1.89-2.27,4.26-.88,5.9A3.81,3.81,0,0,0,560.41,231Z"/><path class="cls-7" d="M458.36,305a2.52,2.52,0,0,0,1.1-.25,135.83,135.83,0,0,1,15-6.12,2.56,2.56,0,0,0-1.65-4.85,141.29,141.29,0,0,0-15.53,6.35,2.56,2.56,0,0,0,1.11,4.87Z"/><path class="cls-7" d="M397.86,335.57a2.55,2.55,0,0,0,1.34,3.36A82.88,82.88,0,0,1,417,349.39a2.56,2.56,0,0,0,3.59-.47,2.56,2.56,0,0,0-.46-3.59,88,88,0,0,0-18.88-11.1A2.56,2.56,0,0,0,397.86,335.57Z"/><path class="cls-7" d="M359.44,322.64a2.56,2.56,0,1,0-4.46,2.52,208.76,208.76,0,0,0,14.16,21.78,2.56,2.56,0,1,0,4.11-3.05A206.62,206.62,0,0,1,359.44,322.64Z"/><path class="cls-7" d="M362.84,339.75a85.61,85.61,0,0,0-18.28-5.3,2.56,2.56,0,1,0-.86,5.05,80.21,80.21,0,0,1,17.17,5,2.47,2.47,0,0,0,1,.2,2.56,2.56,0,0,0,1-4.93Z"/><polygon class="cls-7" points="324.9 165.52 324.9 165.52 324.9 165.52 324.9 165.52"/><path class="cls-7" d="M328.76,162.35a2.83,2.83,0,0,0-3.71,1.64,3,3,0,0,0-.15,1.53h0c0,.12,0,.24.07.36a2,2,0,0,1-.07-.36c0,.06,0,.24,0,.29a2.83,2.83,0,0,0,2.28,2.49,3.57,3.57,0,0,0,.46,0,2.82,2.82,0,0,0,2.74-2.29,3.48,3.48,0,0,0,.11-1.28A2.89,2.89,0,0,0,328.76,162.35Z"/><path class="cls-7" d="M344,162.36a2.92,2.92,0,0,0-1.56,1.62,3.1,3.1,0,0,0-.09,1.91,1.48,1.48,0,0,1-.07-.36c0,.05,0,.23,0,.28a2.83,2.83,0,0,0,2.28,2.49,3.57,3.57,0,0,0,.46,0,2.82,2.82,0,0,0,2.74-2.29,3.48,3.48,0,0,0,.11-1.28,2.91,2.91,0,0,0-1.75-2.42A3,3,0,0,0,344,162.36Z"/><path class="cls-7" d="M335.05,173.07a1.94,1.94,0,0,0-2,1.83,1.92,1.92,0,0,0,1.83,2l.45,0h.11a1.93,1.93,0,0,0,.11-3.85Z"/><path class="cls-7" d="M343.88,179.53a2.57,2.57,0,0,0-3.22-1.66,19.13,19.13,0,0,1-6.33.82,2.56,2.56,0,0,0-.22,5.12c.33,0,.66,0,1,0a23.83,23.83,0,0,0,7.11-1.08A2.56,2.56,0,0,0,343.88,179.53Z"/><path class="cls-7" d="M211.21,209.82a2.55,2.55,0,0,0,.47,3.59,23.84,23.84,0,0,1,6.17,7.09,2.54,2.54,0,0,0,2.23,1.3,2.5,2.5,0,0,0,1.26-.33,2.57,2.57,0,0,0,1-3.49,28.91,28.91,0,0,0-7.51-8.63A2.56,2.56,0,0,0,211.21,209.82Z"/><path class="cls-7" d="M202,262.52a3.62,3.62,0,0,0-4.75.65,2.43,2.43,0,0,0-.51,1.29l-.15,1.45a2.55,2.55,0,0,0,1.29,2.5,4,4,0,0,0,1.94.5,3.91,3.91,0,0,0,1.17-.18,3.62,3.62,0,0,0,1.53-.92,3.49,3.49,0,0,0-.52-5.29Z"/><path class="cls-7" d="M218.44,263.35a3.41,3.41,0,0,0-3.34-.53,2.53,2.53,0,0,0-1.55,1.93l-.31,1.82a2.55,2.55,0,0,0,1,2.49,3.48,3.48,0,0,0,2.09.68,3.8,3.8,0,0,0,1.53-.33,3.46,3.46,0,0,0,.58-6.06Z"/><path class="cls-7" d="M161.94,289.59a2.56,2.56,0,0,0-5.12-.31,143.34,143.34,0,0,0,.37,22.22,2.56,2.56,0,0,0,2.55,2.32H160a2.57,2.57,0,0,0,2.31-2.8A138,138,0,0,1,161.94,289.59Z"/><path class="cls-7" d="M146.69,299.47a2.56,2.56,0,1,0-4.48,2.48A111.33,111.33,0,0,0,155.54,321a2.56,2.56,0,0,0,3.87-3.36A107,107,0,0,1,146.69,299.47Z"/><path class="cls-7" d="M341.79,161.46a2.56,2.56,0,1,0,2.82-4.28,22.27,22.27,0,0,1-8-8.81,15.36,15.36,0,0,1-1-11.17,2.56,2.56,0,1,0-4.87-1.59,20.46,20.46,0,0,0,1.21,15A27.4,27.4,0,0,0,341.79,161.46Z"/><path class="cls-7" d="M326.35,284.57l13.08,5.09.71.29-.11,0a2.56,2.56,0,0,0,.7,5,2.47,2.47,0,0,0,.7-.1c6.8-1.92,14.44-4.1,21.74-3.34l.16.16a2.55,2.55,0,0,0,3.62-.16l.49-.53a2.56,2.56,0,0,0-1.44-4.25c-6.41-1.13-12.81-.17-18.82,1.29a2.6,2.6,0,0,0-.72-.72,25.84,25.84,0,0,0-5.17-2.48L328.2,279.8a2.56,2.56,0,1,0-1.85,4.77Z"/><path class="cls-7" d="M559.36,310.63a2.58,2.58,0,0,0-2.81,2.28c-5.89,57.29-5.89,102.43-5.89,146.21h2.57l2.56-.11c0-43.54,0-88.55,5.86-145.57A2.56,2.56,0,0,0,559.36,310.63Z"/><path class="cls-7" d="M589.91,217.07H590a2.56,2.56,0,0,0,2.45-2.67,242.23,242.23,0,0,1,9.64-78.63,2.56,2.56,0,0,0-4.92-1.45,247.19,247.19,0,0,0-9.84,80.3A2.57,2.57,0,0,0,589.91,217.07Z"/><path class="cls-7" d="M609.08,130.72a2.6,2.6,0,0,0,.82-.13,100.8,100.8,0,0,1,14.58-3.71,2.56,2.56,0,0,0-.9-5,107.34,107.34,0,0,0-15.31,3.9,2.56,2.56,0,0,0,.81,5Z"/><path class="cls-7" d="M476.47,79.41a11.43,11.43,0,0,1-7.2,1.56,2.56,2.56,0,0,0-.6,5.09,17.29,17.29,0,0,0,1.9.11,16.64,16.64,0,0,0,8.55-2.37,2.56,2.56,0,0,0-2.65-4.39Z"/><path class="cls-7" d="M682.23,229.7c-8.21-1.7-21.49-2.23-28.67-2.4a37,37,0,0,0-12.51,1.88l-4.27,1.43c1.53-35.81,1.59-72.1.12-107.9a2.52,2.52,0,0,0-.88-1.81c-4.24-7.59-14.45-8.08-20.65-8.37-17-.8-34.93-1.77-52.25-2.72s-35.33-1.93-52.42-2.72a2.47,2.47,0,0,0-1.28.3l-2.85-1.31a84.16,84.16,0,0,1,2-28.2,13.88,13.88,0,0,0,1.79-.83c8.7-1.72,18.44-14.11,19.93-20.18a32.06,32.06,0,0,0,.18-12.08c-1.27-9.14-4.83-22-14.47-31.6a4.66,4.66,0,0,1-.4-.45,3.19,3.19,0,0,0,.5-.82,3.67,3.67,0,0,0-1.37-4.33A33.12,33.12,0,0,0,498.06.5a63.26,63.26,0,0,0-17.61.26c-6,.78-12.69,2.19-17.45,6.82a2.56,2.56,0,0,0,3.57,3.68c3.69-3.59,9.42-4.75,14.54-5.42a58.32,58.32,0,0,1,16.21-.27,28.56,28.56,0,0,1,13.29,5.26c-.72,1.51-.53,3.66,1.82,6,8.63,8.55,11.84,20.31,13,28.67a27.26,27.26,0,0,1-.08,10.14c-.59,2.38-3.11,6.32-6.27,9.76.09-.5.2-1,.24-1.49.22-3-.72-6.87-4.05-8.47a7.37,7.37,0,0,0-5.57-.18,10.47,10.47,0,0,0-2.64,1.42,2.81,2.81,0,0,0-.35-.34,57.24,57.24,0,0,1-15.84-15.45l-.63-.92a30.84,30.84,0,0,0-3-4c-1.94-2.1-3.76-2.19-4.93-1.89a4.93,4.93,0,0,0-2.48,1.62,15.74,15.74,0,0,0-2.9,6.14,15.07,15.07,0,0,1-1.38,3.55A41.24,41.24,0,0,1,468,24.36a2.57,2.57,0,0,0-5.12.34,46.41,46.41,0,0,0,8.8,24,5.05,5.05,0,0,0,4.2,2.41,4.6,4.6,0,0,0,3.38-2,16.54,16.54,0,0,0,2.64-5.84,13.21,13.21,0,0,1,1.61-3.89l0,0A27.11,27.11,0,0,1,486,42.83l.66,1a62.63,62.63,0,0,0,17.27,16.84,2.55,2.55,0,0,0,1.39.41h.05c.06.09.09.19.16.28a2.57,2.57,0,0,0,3.62.23,7.36,7.36,0,0,1,2.26-1.47,2.32,2.32,0,0,1,1.64,0c.91.43,1.27,2.07,1.17,3.46a11.78,11.78,0,0,1-5.81,8.78,2.43,2.43,0,0,0-.93.52,11.29,11.29,0,0,1-1.25.51,2.56,2.56,0,0,0-2.19,1.8c-2.67,8.68-3.73,22.17-2.51,32.06a2.53,2.53,0,0,0,1.48,2,2.56,2.56,0,0,0,1.35,1.52l3.2,1.47a27.78,27.78,0,0,0-5.22,9.78l-23.07,0a74.9,74.9,0,0,1-13.82-.89c.4-2.43.83-4.76,1.29-7,1.95-.72,3.77-1.38,5.35-1.94a2.54,2.54,0,0,0,1.53-1.59,2.58,2.58,0,0,0,.65-1.45,60.86,60.86,0,0,0,.08-8,33.94,33.94,0,0,0,6.54-2A75,75,0,0,0,499,88.78a2.57,2.57,0,0,0-3.14-4.06A69.73,69.73,0,0,1,479,94.33c-3,1.19-6.48,2.34-9.78,1.82-5.18-.81-8.89-5.6-10.65-8.38a21.63,21.63,0,0,1-2.7-5.83,32.65,32.65,0,0,1-.82-6.52L455,74.26c-.18-2.71-.46-5.43-.74-8.16-.84-8.14-1.63-15.83.16-23.29a1.41,1.41,0,0,0,0-.2c1.34-5.46,3.49-9.74,5.91-11.75A2.57,2.57,0,0,0,457,26.92c-4.48,3.75-6.72,10.81-7.66,14.69a2.44,2.44,0,0,0,0,.27,51,51,0,0,0-1.1,13.35c-1.56-2.45-2.74-5-2.42-7a17.14,17.14,0,0,1,.76-2.73,24.82,24.82,0,0,0,.89-3.12,24.11,24.11,0,0,0,.34-3.05c0-.44.05-.88.1-1.32.54-5.58,3.57-11,6.25-15.77,1.42-2.52,2.64-4.54,4.44-5.56a2.56,2.56,0,0,0-2.53-4.45c-3.18,1.81-5,5-6.38,7.5-2.93,5.22-6.24,11.13-6.88,17.79-.05.49-.08,1-.12,1.47a19.2,19.2,0,0,1-.25,2.41,19.1,19.1,0,0,1-.72,2.46,23.39,23.39,0,0,0-1,3.58C439.89,53,444.1,58.54,447.49,63c.42.56.82,1.09,1.19,1.6.07.1.18.14.27.22l.18,1.79c.27,2.66.54,5.32.72,8l.07,1.13a37.61,37.61,0,0,0,1,7.55,26.7,26.7,0,0,0,3.32,7.22c3.83,6.07,8.86,9.88,14.18,10.71.28.05.55,0,.83.07.07,1.48.09,3,0,4.46-67.4-2.32-183.48-2.08-238.17-1.81a6.76,6.76,0,0,0,.94-.64,2.56,2.56,0,0,0-3.31-3.91,3.11,3.11,0,0,1-3.32-.22,6.85,6.85,0,0,1-2.48-4,36.72,36.72,0,0,1-1.12-8.88c0-1.2-.11-2.39-.2-3.57a15.41,15.41,0,0,0-2-7.19,11.39,11.39,0,0,0-6.37-4.73c6.48-10,7.63-25.38,2-34.75-4.35-7.23-10.83-12.33-17.46-13.8-4.77-4.4-10.08-4.71-14.38-5l-.3,0c-17-1-28.52,5.85-35.33,21-3.56,7.9-4.44,18.6-2.2,26.19,0,.06,0,.11,0,.17.17,2.52.45,5,.73,7.57.25,2.3.5,4.59.67,6.88l.06,1a30.53,30.53,0,0,0,.94,6.64A22.5,22.5,0,0,0,151.09,93c3.58,5.31,8.29,8.63,13.25,9.36a16.8,16.8,0,0,0,2.33.16,18.82,18.82,0,0,0,3-.27,14.36,14.36,0,0,1,0,4.58l-1.63.4a2.55,2.55,0,0,0-1.49,1.1,70.5,70.5,0,0,0-4.4,7.71,2.59,2.59,0,0,0-1.06.14,96.75,96.75,0,0,0-20.55,10.58,18,18,0,0,0-5.75,5.5c-1.57,2.64-1.88,5.69-2.12,8.14L127,196.11a8.32,8.32,0,0,0-2.55-.48,233,233,0,0,0-25.21.13c-3.56.22-7.31.56-10.68,2.23a2.58,2.58,0,0,0-1.43,2.25c0,2.21,0,4.35,0,6.46a16.28,16.28,0,0,0-3.91-.09,8.08,8.08,0,0,0-5,2.42c-1.88,2.06-2.08,4.89-2.2,6.58-.09,1.18-.26,3.64,1.53,5.36a6.28,6.28,0,0,0,2.82,1.44l.48.13c0,1.11.07,2.22.12,3.34-10.43,3.73-50.78,19.76-68.7,28.07-2.74,1.27-5.35,2.61-7.21,5-2.34,3-2.83,6.85-3,10.17-1.84,36-3.35,89.77-.12,142,.22,3.54.65,7.23,3.34,9.91,1.88,1.87,4.26,2.63,6.74,3.3a59.31,59.31,0,0,0,6.2,1.27c.21,10.17.56,20.95.8,25.89.26,5.44,5.25,7.76,7.65,8.87A17.63,17.63,0,0,0,34.06,462a18.16,18.16,0,0,0,9.31-2.62c2.56-1.53,6.07-3.61,6.23-7.91.19-5.38.26-12.87.33-20.1,0-2.52,0-5,.07-7.26,3.61-1.52,7.92-3.36,11-4.74.08,0,.12-.1.19-.14l6.61.79c-2.15,17-5.85,34.29-14.53,50.25,0,0,0,.08,0,.12a24.24,24.24,0,0,0-2.65.89,23.06,23.06,0,0,0-13,14.1,10,10,0,0,0-.47,5c1.05,5.07,6.63,6.9,11.49,6.93h.27c9.51,0,19.41-3,30-9-.07.21-.17.4-.23.61a9.89,9.89,0,0,0-.47,5c1,5.06,6.62,6.9,11.49,6.93H90c11.72,0,24-4.48,37.57-13.69,4.48-3,10.14-7.26,14.2-12.89a11.25,11.25,0,0,0,2.41-5.74c.32-4.84-3.92-8.51-8.21-9.26a18.53,18.53,0,0,0-9.15,1.15l0-.27c-.8-10.83,3.07-21.07,7.17-31.91l.22-.6c48.2,5.41,112.07,12.43,180.32,19.83q-.37,8.55-.61,17.17a2.56,2.56,0,0,0,2.56,2.63h.06c-.41,7.45-1.08,15.62-4.43,22.48a63.34,63.34,0,0,1-3.75,6.31l-7.62,11.79a9.63,9.63,0,0,0-6.6,1.43c-7.53,5.26-14.48,10.65-16.82,18.85a9,9,0,0,0-.22,4.66A9.23,9.23,0,0,0,279.6,537c3.85,4,9.78,6.2,16.38,6.2l.89,0c6-.17,11.59-1.95,17-3.67,2.14-.67,5.13-1.69,8.13-2.71s5.91-2,8-2.68a2.52,2.52,0,0,0,.58-.32l.17.2c3.85,4,9.79,6.2,16.4,6.2h.87c6-.18,11.59-2,17-3.67l12.83-4.06c6.53-2.07,13.28-4.2,19.75-6.93,7.57-3.2,12.75-6.44,16.8-10.53,3.19-3.21,4.21-6.71,2.79-9.6a8.44,8.44,0,0,0-4.18-3.66,25.5,25.5,0,0,0-20.42-.51c-1.18-13.46-2.34-27.35,2.64-39.43a4.67,4.67,0,0,0,1.36-.77,5.85,5.85,0,0,0,1.76-3.19l.33-1.28c42.65,4.57,79.51,8.47,106.84,11.32a9.6,9.6,0,0,0,8.26,7.46c-.11,9.13-.1,26,.29,34,.26,5.44,5.26,7.75,7.66,8.87a17.55,17.55,0,0,0,7.43,1.66,18.08,18.08,0,0,0,9.31-2.63c2.56-1.52,6.07-3.61,6.22-7.9.2-5.39.27-12.89.34-20.15,0-4.15.07-8.13.13-11.47,1.1,0,2.2,0,3.32,0s2.34,0,3.52,0a27.56,27.56,0,0,0,14.64-4.44c13.37-8.76,44.59-30.58,71-49.1.1,2.45.24,5.66.42,9.41.26,5.44,5.26,7.76,7.66,8.87a17.55,17.55,0,0,0,7.43,1.66,18.22,18.22,0,0,0,9.32-2.62c2.55-1.53,6.06-3.62,6.22-7.91l.1-2.87c.28-7.31.85-22.49.91-29.06l.73-.51a23.58,23.58,0,0,0,10-17.15c3.73-40,6.76-85.84,9.52-144.38A9.63,9.63,0,0,0,682.23,229.7ZM562.84,114.93c17.33.95,35.25,1.92,52.29,2.72,7.11.33,14.25,1.08,16.68,6.21,1.45,36,1.38,72.52-.21,108.52h0c-10.37,3.55-23.71,8.31-34.21,12.68l-.1.07a284.52,284.52,0,0,0-12.18-29.65l-.22-.46a7.35,7.35,0,0,1-.47-1.08c-3-11-8.51-23.91-13.81-36.35s-10.78-25.31-13.66-36c-1.1-4.08-2.46-9.17-5.84-13-3-3.42-7.14-5.31-10.78-7L521,112.72C534.85,113.41,549,114.18,562.84,114.93Zm47.44,144.74a6.19,6.19,0,0,1,1.89,1.91,5.15,5.15,0,0,1-.3,3,26.48,26.48,0,0,1-2.34,5.15,8.25,8.25,0,0,0,.25-4.4,10.54,10.54,0,0,0-1-2.55l-3.7-7.18ZM538.2,126.24c3.33,1.53,6.77,3.11,9.08,5.72,2.58,2.92,3.71,7.17,4.72,10.92,3,11.08,8.53,24.12,13.9,36.72,5.23,12.29,10.64,25,13.58,35.7a11.48,11.48,0,0,0,.81,2l.18.39a279,279,0,0,1,11.79,28.64h0a9.39,9.39,0,0,0-2.55-.3,10.06,10.06,0,0,0-3.91,1.17l-.34.15a25.83,25.83,0,0,1-8.27,2.23,2.56,2.56,0,0,0,.5,5.1,30.75,30.75,0,0,0,9.91-2.67l.36-.17a6.25,6.25,0,0,1,2-.69,7.67,7.67,0,0,1,1.27.19l.79.16a23.17,23.17,0,0,0,7.69-.28c.61-.09,1.23-.16,1.84-.24a2.54,2.54,0,0,0,.64,2.28,2.52,2.52,0,0,0-1.06.27A2.57,2.57,0,0,0,600,257l4.22,8.17a7,7,0,0,1,.61,1.39c.25,1.05-.4,2.49-1,3.62a39,39,0,0,1-3.95,6c.6-1.83,1.15-3.67,1.59-5.54a12,12,0,0,0,.4-4.48,12.54,12.54,0,0,0-1-3.3l-3.49-8.17a2.57,2.57,0,1,0-4.72,2l3.5,8.16a8.7,8.7,0,0,1,.68,2,7.85,7.85,0,0,1-.31,2.59,63,63,0,0,1-6,15.59,12.35,12.35,0,0,1-1.27,2,71.65,71.65,0,0,1,1.1-10.43l.1-.57A22.8,22.8,0,0,0,591,271c-.13-4.84-2.9-8.87-5.13-12.1a2.56,2.56,0,0,0-3.78-.49c-.92.79-1.82,1.51-2.68,2.2-3.13,2.52-6.09,4.9-7.24,8.58a17.7,17.7,0,0,0-.6,3,17.18,17.18,0,0,1-.29,1.77,12.76,12.76,0,0,1-2.2,4.41,8,8,0,0,1-1.36,1.58l0-8.09a5.51,5.51,0,0,1,1-3.76l5.81-10.56a2.57,2.57,0,0,0-4.5-2.47l-2.48,4.52c-2.46-4.52-4-8-5.54-11.6a129.34,129.34,0,0,0-7.66-15.41c-3.44-8.25-7.9-18.53-12.62-29.41-6.83-15.73-13.88-32-18.65-43.94a2.56,2.56,0,1,0-4.76,1.9c3.83,9.6,9.13,22,14.59,34.58a2.69,2.69,0,0,0-.24.48,268.87,268.87,0,0,0-8,42.45,3.25,3.25,0,0,0,0,.54l4.5,40.75q-5.08,3.23-10,6.64a21.43,21.43,0,0,0-9.06,15c-.08.72-.16,1.47-.25,2.2L491,302.13a3.34,3.34,0,0,0-.82,0,4,4,0,0,1-.2-1.28c-2.3-35.44,2.84-71.42,7.81-106.21,2.59-18.1,5.26-36.82,6.88-55.31.74-8.45,1.71-18.8,7.86-24.85ZM534,277.08,529.75,239a261.49,261.49,0,0,1,6.34-35.62c.28.64.57,1.29.85,1.94,4.74,10.93,9.22,21.25,12.66,29.5a1.68,1.68,0,0,0,.15.3,123.86,123.86,0,0,1,7.46,15c1.51,3.47,3.07,7.05,5.53,11.61h0A284.31,284.31,0,0,0,534,277.08ZM428.73,346.77A54.2,54.2,0,0,0,421.5,326a2.56,2.56,0,0,0-4.39,2.63,49.18,49.18,0,0,1,6.54,18.8,2.56,2.56,0,0,0,2.54,2.23l.33,0a2.42,2.42,0,0,0,1.34-.65,17.16,17.16,0,0,1-2.33,4.11L422.76,351a2.57,2.57,0,0,0-4.14,1.92c-.82,20.22-6.92,40-12.81,59.11-1.82,5.91-3.7,12-5.41,18.06s-3.2,11.93-4.69,17.75q-1.11,4.36-2.25,8.73c0,.11-.09.35-.15.53l-.53.06c-7.41.7-14.91,1.18-22.36,1.42,3.4-43.25,8.3-84.86,15-127.08,20-11.82,43.16-16.93,65.54-21.87a2.56,2.56,0,1,0-1.11-5l-4.5,1c.61-4.44,1.09-9,1.39-13.48a2.56,2.56,0,0,0-2.38-2.73,2.62,2.62,0,0,0-2.73,2.39c-.32,4.68-.81,9.4-1.47,14a2.42,2.42,0,0,0,.06,1c-20.09,4.57-40.38,10-58.47,20.94a2.57,2.57,0,0,0-1.21,1.79q-1.2,7.62-2.33,15.22a2.59,2.59,0,0,0-2.27,1.65,7.33,7.33,0,0,1-9.13,4l-.28-.12c-1.51-.62-4.32-1.78-6.49.3a5.52,5.52,0,0,0-1.39,4.51c.27,5.11,1.85,7.76,3.64,9.09l-21.93,96c-7.54.9-14.82,1.43-21.24,1.82a1007.18,1007.18,0,0,1,12.17-130.18c.66-4,1.36-7.58,3.38-10.14,1.87-2.36,4.8-3.84,8.16-5.39a419.93,419.93,0,0,1,60.6-22.4,2.48,2.48,0,0,0,1.31-.94l1.17-.4c10.71-3.35,18.11-1.61,25.29.08l2.14.5a5.85,5.85,0,0,0,5.07-1.24,6.37,6.37,0,0,0,1.86-3.8c.25-1.24.52-2.53.77-3.79a327.39,327.39,0,0,1,43.33,3.34c.07,4.52.24,9,.54,13.55.07,1.09.21,3.37,2,4.82a6.5,6.5,0,0,0,3.69,1.26l18.69,1.68c-.94,9.23-1.69,19.34-2.28,29.9a2.52,2.52,0,0,0-3.14.35c-1.37,1.4-3.85,1.72-6.49,1.95-22.07,1.93-44.49,3.46-66.64,4.56A2.54,2.54,0,0,0,428.73,346.77ZM387.59,502c.13,1.54.27,3.07.39,4.59.23,2.78.3,6.65-1.77,8.09-1.14.8-2.84.85-4.81.9-1,0-2.09.06-3.1.19a23.61,23.61,0,0,0-9.26,3.75c-.13-.31-.21-.61-.36-.93-2.32-5.18-8.44-9.77-11.86-11.88l7-10.88a66.65,66.65,0,0,0,4-6.81q.74-1.5,1.32-3.06a68.36,68.36,0,0,0,17.32-4.24A191.06,191.06,0,0,0,387.59,502Zm-65.93-35c5.18-.34,10.83-.79,16.71-1.43a60.38,60.38,0,0,0-2.72,14.07c-1.09.36-2.23.67-3.36.94l-8.58,2a30.47,30.47,0,0,1-4,.75A93,93,0,0,0,321.66,466.94Zm44.14-106.7c-1.12-.27-1.89-2.31-2.06-5.47v-.12c.28.1.58.23.81.32l.3.13a12.16,12.16,0,0,0,9.35-.28A12.8,12.8,0,0,0,377,353.1c-4.51,31.4-8.08,62.69-10.79,94.78L348.82,446l18.88-82.7A2.56,2.56,0,0,0,365.8,360.24ZM341.59,509c-1.22-14.33-2.72-32.13,2.75-44.79a0,0,0,0,0,0,0,2.56,2.56,0,0,0,.58-1.09l2.74-12L365.75,453c-.22,2.66-.45,5.31-.66,8a2.59,2.59,0,0,0,.7,2,2.56,2.56,0,0,0,1.86.8h.09c-.41,7.59-1,16-4.46,23a61.82,61.82,0,0,1-3.75,6.31l-7.61,11.78a9.65,9.65,0,0,0-6.61,1.44C344,507.15,342.81,508.05,341.59,509Zm45.21-32.88a62.9,62.9,0,0,1-16,4.45,94,94,0,0,0,2.05-17c5.57-.22,11.13-.55,16.67-1A57,57,0,0,0,386.8,476.07ZM271.89,356a24.28,24.28,0,0,0,2.82.19,41.94,41.94,0,0,0,10.85-1.75,78.51,78.51,0,0,0-3.22,11.08,5,5,0,0,1-.4,1.38,5.49,5.49,0,0,1-1.18.95c-6.8,4.55-15.26,10.22-24.2,10.34-1.38,0-1.7-.22-1.77-.29a1.49,1.49,0,0,1,.1-1.32,9.76,9.76,0,0,1,2.22-2.48l.21-.19A78.18,78.18,0,0,0,271.89,356Zm16-7.12a2.39,2.39,0,0,0-1.3,0c-3.77,1.05-7.94,2.2-12,2.18a78,78,0,0,0,6.09-16.62,2.43,2.43,0,0,0-.05-1.23A19.1,19.1,0,0,1,287,333q4.85.47,9.7,1A77.93,77.93,0,0,0,287.85,348.84Zm-.33-20.91c-3.81-.37-7.82-.55-11.27,1.56a2.56,2.56,0,0,0-.84,3.52,2.16,2.16,0,0,0,.25.27c0,.15-.08.3-.12.44-.22-.34-.45-.66-.66-1a4.56,4.56,0,0,1-.94-1.68,4.08,4.08,0,0,1,.42-1.23A89.71,89.71,0,0,1,303,294.34a2.55,2.55,0,0,0,1.32-.94,88.35,88.35,0,0,1,9.46-5.95c1.51-.81,5.52-2.95,5.2-6.95a7.45,7.45,0,0,0-1-3,6.59,6.59,0,0,1-.46-1,1,1,0,0,1,.52-.69,1,1,0,0,1,.82-.22,2.55,2.55,0,0,0,2.34.36,2.59,2.59,0,0,0,1.64-1.71,39.89,39.89,0,0,0,1.62-11.69v-.31a272,272,0,0,1,3.3-38.13,2.56,2.56,0,1,0-5.06-.81c-1.1,7-1.92,14-2.48,21.09-7.37,8.6-14.27,15.84-23.39,18.18-.51.13-.69.14-.64.17a3.22,3.22,0,0,1-.43-.39,28.18,28.18,0,0,1-4.43-5.88l-.15-.26c.14-.19.36-.42.48-.56,5.53-6,9.86-13,14.05-19.74,1.36-2.18,2.71-4.37,4.11-6.52,4.57-7.05,10.89-15.64,19.44-20.83a5.36,5.36,0,0,0,2.13.81,39.32,39.32,0,0,0,20.94-1.92,96.56,96.56,0,0,0,9.76.54,93.84,93.84,0,0,0,13.7-1c.63-.09,1.28-.22,1.93-.38a3.76,3.76,0,0,0,.31.25c6.5,3.46,11.77,10.46,15.66,20.82,6.13,16.32,7.07,33.61,2.67,48.81a54.45,54.45,0,0,1-10.45,3.75c-2.06-10.35-3.78-20.88-5.15-31.34l-.06-.47c-.82-6.35-1.67-12.92-5.3-18.53a2.56,2.56,0,0,0-4.31,2.78c3,4.64,3.78,10.62,4.53,16.41l.06.47c1.1,8.41,2.43,16.86,4,25.22a2.8,2.8,0,0,0-.15.65c-.16,7.34-2.5,12.69-5.47,19.47-.44,1-.9,2-1.35,3.1a2.05,2.05,0,0,0-.1.48c-10.82,3.95-21.48,8.32-31.9,13.12-3.83,1.76-7.47,3.62-10,6.87C327.84,322,327,326.22,326.2,331l-.36,2.38C313.22,331,300.33,329.15,287.52,327.93Zm-8.85-20.09a19.17,19.17,0,0,1-8.1,1.5,9.08,9.08,0,0,1,5.54-3.37,2.56,2.56,0,0,0,.82-4.75c-2.34-1.33-2.8-5-2.05-8a16.46,16.46,0,0,1,9.78-11.13,2.56,2.56,0,0,0-1.88-4.77,21.67,21.67,0,0,0-12.87,14.65,16,16,0,0,0-.34,6,66.54,66.54,0,0,1-14.17,5.25,2.52,2.52,0,0,0-.59-2.55,2.56,2.56,0,0,0-3.62,0A58.53,58.53,0,0,1,234,312.35c-4.91,2.2-8.8,3-12.26,2.53-1.86-.26-3.83-1.28-3.93-2.56a2.26,2.26,0,0,0-.2-.73,58.79,58.79,0,0,1,9.85-6.22,2.56,2.56,0,0,0-2.4-4.53,58.09,58.09,0,0,0-11.47,7.44,23.68,23.68,0,0,0-9.87-7.53,2.56,2.56,0,1,0-1.92,4.75,18.32,18.32,0,0,1,8.44,6.93c.09.14.21.26.31.39a3.9,3.9,0,0,1-2.07,1.51,11.92,11.92,0,0,1-4.91.19,45.33,45.33,0,0,1-6-1.15c-3.78-1-6.07-2.49-6.81-4.43a4.24,4.24,0,0,1,1.88-4.92,4.77,4.77,0,0,0,1.72-1.43,4.86,4.86,0,0,0,.77-2.16l1.36-9.26c5.14-.06,10-2,14.13-3.67L221,283.34a7.07,7.07,0,0,0,.77,2.65,7.43,7.43,0,0,0,2.89,2.83,12,12,0,0,0,6.09,1.57,14,14,0,0,0,5.84-1.28,19.76,19.76,0,0,0,8.28-7.66A28.41,28.41,0,0,0,248.71,262a149.8,149.8,0,0,1,16.46-.12,5.31,5.31,0,0,0,.3.64,6,6,0,0,0,2.72,2.15,20,20,0,0,0,5.54,1.35c.61.09,1.22.18,1.82.29,1.49.27,3.42.86,4.22,2.12.1.17.19.35.29.53a6.64,6.64,0,0,0,1.72,2.27,5,5,0,0,0,3.21,1.09,8.33,8.33,0,0,0,3.07-.67l1.13.9c6.46,5.15,12.06,9.64,10.82,17.6a95.67,95.67,0,0,0-18.66,18.18A2.58,2.58,0,0,0,278.67,307.84ZM163.3,321.89a2.56,2.56,0,0,0-.6,3.23c3.69,6.55,3.06,14.63,1.94,23.75l-6.37,51.72c-20.56,2.53-41.67,1.78-62.1,1.06l-51.36-1.81c4.36-31.18,9.51-66.13,22.94-97.08,1.89-4.37,4.08-8.92,7.18-12.56,3.5-4.11,8.23-7.16,12.82-9.84,18.38-10.77,38.79-18.29,58.53-25.56a2.49,2.49,0,0,0,1.44-1.33c.76.18,1.56.34,2.38.45a41.36,41.36,0,0,0,9.11,0l1.85-.14a86,86,0,0,1,25.2,2,81.1,81.1,0,0,0-7.38,9.19c0,.05-3.13,4.84-1.33,8.94a6.84,6.84,0,0,0,4.92,3.81,11.71,11.71,0,0,0,1.21,7.13,12.33,12.33,0,0,0,7.72,5.78l-1.33,9-.12.07a8.62,8.62,0,0,0-2.66,2.4ZM121.68,460.51c.06.76.13,1.55.21,2.34.44,4.78.89,9.71-2,12.2l-.69.6a22.89,22.89,0,0,0-3.32,3.3,25.35,25.35,0,0,0-5.1-3.38,22.84,22.84,0,0,0-10.34-2.46,121.32,121.32,0,0,0,7.47-19.17c1,.06,1.94.14,2.92.14a46.59,46.59,0,0,0,11-1.34A46.77,46.77,0,0,0,121.68,460.51ZM81.56,443.72a41.06,41.06,0,0,1-13.24,1.65c3.39-13.12,4.93-26.44,6.11-39.36l19.89.7c-1.42,6.63-4,12.78-6.43,18.74S83,437.3,81.61,443.72Zm.62,31.69c3.92-3.4,4.25-8.51,4-13.24,2.73-1,5.38-1.8,7.85-1.38,2,.35,4.09,2,4,3.88a6.76,6.76,0,0,1-1.46,3.08C93,472.69,88,476.41,83.59,479.39c-1.55,1.06-3.09,2.05-4.6,3a10.26,10.26,0,0,0-.95-2.88c.12-.12.27-.18.36-.32a16,16,0,0,1,3-3.12ZM100.86,459a10.75,10.75,0,0,0-6-3.29,18.68,18.68,0,0,0-9.16,1.15,2.45,2.45,0,0,1,0-.27c-.79-10.6,3-19.63,6.92-29.2.59-1.43,1.18-2.86,1.77-4.31l14.51,1.65A178.06,178.06,0,0,1,100.86,459Zm8.73-39.35-13.31-1.51a76,76,0,0,0,3.23-11.29c3.8.14,7.6.27,11.44.37C110.56,411.32,110.12,415.48,109.59,419.68Zm25.89-179.11a19.25,19.25,0,0,1,2.63-.49,18.3,18.3,0,0,0,4.89-1.21,2.56,2.56,0,1,0-2.07-4.68,14.33,14.33,0,0,1-3.56.82l-.22,0c1.33-.42,2.63-.85,3.89-1.26a2.56,2.56,0,0,0-1.61-4.87c-5.67,1.88-11.51,3.81-17.41,4.19l.55-.34,0,0c1.24-.23,2.42-.56,3.49-.86l14.18-4.1a2.56,2.56,0,1,0-1.42-4.92l-14.19,4.09a22.63,22.63,0,0,1-3.81.88c2.62-2.34,6.4-4,11.46-5.15,1.87-.42,3.77-.74,5.67-1.06a63.92,63.92,0,0,0,11.54-2.72,2.56,2.56,0,0,0-1.78-4.8c-.24.09-.5.15-.75.24a6.74,6.74,0,0,0-2.55-2.88c-.37-.24-.76-.46-1.15-.67a6.91,6.91,0,0,1-1.4-.93,1.46,1.46,0,0,1-.35-.83,16.69,16.69,0,0,0,7.51,3.58l.57.1A5.27,5.27,0,0,1,151,213a4.28,4.28,0,0,1,.78.66c.36.34.71.7,1.06,1.06,2.12,2.15,4.52,4.6,8,5.29a2.94,2.94,0,0,0,.51,0,2.17,2.17,0,0,0,.43-.08l2.47,11a34.32,34.32,0,0,0-9.44,4.7c-2.73,1.74-5.3,3.38-8.11,4.12a29.81,29.81,0,0,1-5.67.7l-6.63.4C134.71,240.82,135.09,240.68,135.48,240.57Zm-5.48-37a41.13,41.13,0,0,1,7.12,2.15,6.8,6.8,0,0,0,1.06,7.62,10,10,0,0,0,2.62,1.87c.28.16.56.31.82.49-1.47.29-3,.56-4.5.82-2,.33-4,.67-5.91,1.1-.53.12-1,.26-1.53.39C130,213.25,130.13,208.42,130,203.61Zm98.41,56.09a2.56,2.56,0,0,0-3.3,1.48,65.24,65.24,0,0,0-3.93,17.07,2.52,2.52,0,0,0-1.51.08l-11,4.41c-4.41,1.78-9.91,4-14.88,3.11a7.8,7.8,0,0,1-5.63-3.52,7,7,0,0,1-.6-4.28,7.39,7.39,0,0,0,1.23,2.34,2.55,2.55,0,0,0,2,1h0a3.52,3.52,0,0,0,3.32-4.4c-.52-1.94-2.62-3-4.88-2.43a2.29,2.29,0,0,0-.74.35,29.89,29.89,0,0,1,2.81-4.65,108.37,108.37,0,0,1,10-12.2,2.56,2.56,0,1,0-3.71-3.53,112.56,112.56,0,0,0-10.5,12.77,34.83,34.83,0,0,0-3.28,5.44,2.4,2.4,0,0,1-1.67-.93c-.49-1.07.43-3.31.85-4,2.4-3.46,7.15-9.78,12-13.15,3.26-2.25,6.74-4.46,10.37-4.66a8.61,8.61,0,0,1,1.64.28,10.91,10.91,0,0,0,2.94.4,44.67,44.67,0,0,0,8-1A30.76,30.76,0,0,1,237.21,253a12.13,12.13,0,0,1,4.13,3.22,11.33,11.33,0,0,1,1.59,3.36,23.2,23.2,0,0,1-2.45,19.13,14.83,14.83,0,0,1-6.07,5.73,8,8,0,0,1-7.21-.05,2.64,2.64,0,0,1-1-.86,4.92,4.92,0,0,1-.19-2.16A60.38,60.38,0,0,1,229.9,263,2.56,2.56,0,0,0,228.41,259.7Zm-14.6-14.45c-1.09.15-2.13.23-3.93.31a11.16,11.16,0,0,1-1.61-.28,11.15,11.15,0,0,0-3.05-.4c-5,.28-9.13,2.9-13,5.56-.5.34-1,.73-1.47,1.12,0,0-.08-.05-.13-.06a91.16,91.16,0,0,0-29.92-2.88l-1.91.14a36.32,36.32,0,0,1-8,.08c-.52-.07-1-.16-1.54-.27l.55-4.08c0-.1,0-.2,0-.3a40.92,40.92,0,0,0,7.71-4.13,30.24,30.24,0,0,1,8-4.06,2.53,2.53,0,0,0,.92,1,2.59,2.59,0,0,0,1.27.33,2.44,2.44,0,0,0,.8-.13c5.19-1.69,10.87-2.08,16.36-2.46l30.48-2.09Zm65.62-14.88c-.94-.75-2-1.44-3-2.11a19.24,19.24,0,0,1-4-3.11,3,3,0,0,1-.26-.32A2.81,2.81,0,0,1,274,224a6,6,0,0,1,3.95,1.42,31.66,31.66,0,0,1,5.61,5.72c1.78,2.14,3.61,4.35,4.49,6.73,1.77,4.83.19,9.63-4.83,14.68a1.45,1.45,0,0,0-.17.26l-1.33-.26c2.48-3.25,4.36-7.29,4.16-10.59A16.33,16.33,0,0,0,279.43,230.37Zm7.32,28.6h.08l0,0a33.17,33.17,0,0,0,3.75,5.22,24.51,24.51,0,0,1-4,2.48,5.1,5.1,0,0,1-1.59.51,4.6,4.6,0,0,1-.39-.67c-.15-.29-.31-.58-.48-.85-1.43-2.28-4-3.77-7.62-4.44-.67-.13-1.35-.22-2-.32a16.33,16.33,0,0,1-4.19-1c-.31-.14-.45-.24-.48-.24a.75.75,0,0,1,.1-.33,3.49,3.49,0,0,1,1.43-1.07C275.65,256.22,281.09,257.43,286.75,259Zm25.79,18.8a9,9,0,0,0,.9,2.13,4.34,4.34,0,0,1,.45,1s0,.68-2.5,2c-2.09,1.11-4.12,2.32-6.11,3.59-.63-8-6.73-13.07-12.41-17.6.59-.42,1.17-.85,1.74-1.31a5,5,0,0,0,1.45.23,8.06,8.06,0,0,0,2-.3c8.57-2.19,15.13-7.79,21.55-14.77-.15,3.14-.26,6.27-.31,9.4v.31a35,35,0,0,1-.8,8,6.46,6.46,0,0,0-3.36,1.13A5.79,5.79,0,0,0,312.54,277.77Zm6.19-94.64,0-.64a9.89,9.89,0,0,1,.07-3,3.08,3.08,0,0,1,.32-.75,16.49,16.49,0,0,0,.54,2.4,19,19,0,0,0,3,5.51c.11.15.24.29.35.44a24.14,24.14,0,0,1-4.56,3.32,5.6,5.6,0,0,1-.55.27A19.33,19.33,0,0,0,318.73,183.13Zm8,.46a13.75,13.75,0,0,1-2.19-4,20.19,20.19,0,0,1-.67-4.56l-.06-.84c-.15-2-.39-4-.64-6s-.5-4.13-.64-6.19c0,0,0,0,0,0a2.37,2.37,0,0,0-.12-.95c-2-6-.68-14.05,1.72-18.92,5.41-11,14.31-15.73,27.88-15h.29c3.83.21,7.46.41,10.68,3.36a2.64,2.64,0,0,0,1.32.64c5.91,1,10.85,5.61,13.5,9.64,3.65,5.53,3.37,14.45,0,21.24a6,6,0,0,0-2.7-2.26,7.25,7.25,0,0,0-4.79-.13,10.94,10.94,0,0,0-3.46,1.82,2.14,2.14,0,0,0-.28.32,2.54,2.54,0,0,0-1.66-2.47c-2-.73-3.83-2.43-5.74-5.37a37,37,0,0,1-5.92-17.72,2.52,2.52,0,0,0-2.73-2.38,2.57,2.57,0,0,0-2.39,2.73,42.28,42.28,0,0,0,6.74,20.17c2.57,3.92,5.2,6.27,8.3,7.39a2.61,2.61,0,0,0,.87.15,2.57,2.57,0,0,0,1.82-.8,2.51,2.51,0,0,0,4.05,2.09,6.15,6.15,0,0,1,1.86-1,2.28,2.28,0,0,1,1.39,0c.61.25.69,1.24.64,1.73-.25,2.82-3.07,5.59-6.71,6.58a2.29,2.29,0,0,0-.31.16,2.44,2.44,0,0,0-.56.28,2.58,2.58,0,0,0-.32.34,3.09,3.09,0,0,0-.33.39,2.47,2.47,0,0,0-.22.59,3,3,0,0,0-.12.32c-.21,1.39-.49,2.89-.77,4.43a75.6,75.6,0,0,0-1.58,12.38,2.45,2.45,0,0,0,.51,1.47l-12.15,8.74-.05,0A46.39,46.39,0,0,1,345.7,199a2.6,2.6,0,0,0,.1-.25,19.76,19.76,0,0,0,.46-5.94,68.37,68.37,0,0,0,14.88-7.31,2.56,2.56,0,0,0-2.82-4.28,63.06,63.06,0,0,1-14.36,7c-2.55.87-5.53,1.7-8.36,1.32C331.26,189,328.16,185.57,326.7,183.59Zm51.08-12.35a8.24,8.24,0,0,1,6.8,5.64,17,17,0,0,1,.34,4.76c0,1.07,0,2.14,0,3.2a14.45,14.45,0,0,0,.68,3.53l-1-.38a77.51,77.51,0,0,1-15.12-8.22c.16-.87.31-1.72.45-2.54a14.66,14.66,0,0,0,7.3-6s.11-.06.15-.1l0,0C377.57,171.16,377.67,171.22,377.78,171.24Zm-5.16,29.37a4.15,4.15,0,0,0,2,1.18l.41.15a90.64,90.64,0,0,1-16.21.83l11.82-8.51a2.46,2.46,0,0,0,.64-.69c.66.28,1.34.51,2,.85a3.11,3.11,0,0,1,.52.33l-.44.35a4.45,4.45,0,0,0-1.56,3A3.37,3.37,0,0,0,372.62,200.61Zm-36.43,0a3.78,3.78,0,0,0-1.52-1.89,1.41,1.41,0,0,1,.46-1.19,3.09,3.09,0,0,1,.59-.36,2.49,2.49,0,0,0,.77,1.38,49.55,49.55,0,0,0,8.05,5.68,34,34,0,0,1-9.72.43,3.22,3.22,0,0,0,.28-.24A3.65,3.65,0,0,0,336.19,200.65Zm4.63-5.15a2.45,2.45,0,0,0,.36-.6c0,.28-.05.55-.08.83Zm127.8-22.27.63.14c0,.17,0,.38,0,.48A142,142,0,0,1,466.88,210a5.2,5.2,0,0,1-.27,1,4.08,4.08,0,0,1-1.75.28l-22.59,1c-.15,0-.5,0-.73,0a7.2,7.2,0,0,1-.2-.77c-2.71-12.86-2.77-28.31-2.5-37.15C444.44,171.09,458,171.16,468.62,173.23Zm-33.4,113.83c-.05.23-.17.84-.22.95a.75.75,0,0,1-.55.1l-2.1-.49a67.62,67.62,0,0,0-12.44-2.08,2.4,2.4,0,0,0,.74-1.47,10.26,10.26,0,0,0-.16-1.91,7.46,7.46,0,0,1-.11-1c0-1.55,1.48-3.1,3.07-4.74.42-.43.84-.86,1.24-1.29,4.83-5.32,8.15-15.23,8.93-22.27.32-2.93.37-6.13.43-9.23a76.51,76.51,0,0,1,.75-11.4c1.4-2.73,2.72-5.43,3.84-7.92a2.64,2.64,0,0,0-.59-3.14c-.46-.85-.92-1.71-1.45-2.51a7.92,7.92,0,0,0,2.84-1.74,6.31,6.31,0,0,0,2.36.42l.7,0L450,217c-2.21,11-4.73,22.72-7.18,34.09C440.19,263.12,437.52,275.53,435.22,287.06Zm-47.68,6.27s-.06-.11-.11-.15a2.56,2.56,0,0,0-2.68-.5,23.61,23.61,0,0,0,2.63-7.54,59.62,59.62,0,0,0,7.09-2.28,1.8,1.8,0,0,0,.16.38,12.55,12.55,0,0,1,2.12,7.24C393.67,291.4,390.6,292.34,387.54,293.33Zm48.79-80.78,0,.15a2.66,2.66,0,0,1-1.58,1.24,2.35,2.35,0,0,0-.48-1c.69-.3,1.35-.58,1.93-.85C436.27,212.22,436.29,212.39,436.33,212.55Zm-3.93,9.15.17.27-.23.12C432.37,222,432.38,221.83,432.4,221.7Zm1.32-33.53,0,0c-.87.43-2.14,1-3.54,1.54-3.6,1.49-7.67,3.18-9.63,5.1a2.56,2.56,0,0,0,1.79,4.39,2.52,2.52,0,0,0,1.79-.73c1.26-1.23,5.32-2.91,8-4l1.87-.78c.07,1.17.16,2.36.25,3.56a2,2,0,0,0-.22.08c-.66.38-1.82.91-3.05,1.48-4.15,1.9-7.19,3.39-8.64,5.32a2.56,2.56,0,0,0,.52,3.59,2.51,2.51,0,0,0,1.53.51,2.55,2.55,0,0,0,2.05-1c.79-1,4.61-2.8,6.67-3.74l1.68-.78c.16,1.37.33,2.74.54,4.09l0,0a33,33,0,0,1-3.54,1.64c-3.48,1.48-5.86,2.55-7.14,3.91a2.55,2.55,0,0,0,3.6,3.6,8.64,8.64,0,0,0-.61,2.11,12.75,12.75,0,0,0-.11,1.63,7.7,7.7,0,0,1-.11,1.3,7.27,7.27,0,0,1-1.66,2.49,4.4,4.4,0,0,1-4.61,2.28,2.43,2.43,0,0,0-1.1.28h0c-2.24-.84-3.6-3.24-4.2-4.6a25.56,25.56,0,0,1-1.14-3.26c1.29-8.71,2.44-17.56,3.41-26.32a6.43,6.43,0,0,1,.42-2.06c.46-.85,1.86-1.32,3.26-1.74,1.58-.47,10-2,11.44-2.16a2.37,2.37,0,0,0,.53,0C433.68,186.6,433.69,187.38,433.72,188.17Zm-4.8,55.42c-.05,3.12-.1,6.07-.4,8.76-.67,6.06-3.57,14.91-7.63,19.38-.35.39-.73.78-1.11,1.18-2,2.09-4.57,4.71-4.52,8.37a12.48,12.48,0,0,0,.14,1.5c-2.88,1.49-10.91,4.74-13.13,5.55l-.48.16a17.7,17.7,0,0,0-2.67-7.66l.5-.23a2.55,2.55,0,0,0,1.3-1.54A77.7,77.7,0,0,0,403.85,250c2.38,3,5.46,5.71,9.57,5.93l.55,0c6.78,0,11.24-7,12.73-9.37.73-1.15,1.48-2.39,2.24-3.66C428.93,243.13,428.93,243.36,428.92,243.59ZM325.06,338.41q-1.05,6.9-2,13.87a1.83,1.83,0,0,0-.13.16c-.38.78-.77,1.53-1.15,2.28a2.54,2.54,0,0,0-1.2-.08l-.77.15a34.08,34.08,0,0,1-5.1.77,10.77,10.77,0,0,1-3.41-.31,64.13,64.13,0,0,0,6.24-18.17C320,337.51,322.56,337.94,325.06,338.41ZM307.31,362.3c.51-.83,1-1.65,1.46-2.46a14.81,14.81,0,0,0,5.16.87l1,0a32.35,32.35,0,0,0,4.13-.54,37.78,37.78,0,0,0-3.43,12.1l-.06.58c-.19,1.84-.36,3.58-1.19,4.68-1,1.28-2.82,1.81-5,2.42a16.05,16.05,0,0,0-9.1,5.26c-1.38,1.38-2.58,2.57-4,2.91s-2.83-.09-4.73-.65c-1.57-.46-1.84-.74-1.88-.84s-.17-.5,1.24-2.28l1.43-1.79A213.42,213.42,0,0,0,307.31,362.3Zm172-235.25,21.77,0a111.91,111.91,0,0,0-1.47,11.79c-1.6,18.36-4.26,37-6.84,55-4.14,29-8.39,58.77-8.42,88.55a332.18,332.18,0,0,0-42.26-3.27c1.83-8.86,3.81-18,5.74-27,2.55-11.81,5.18-24,7.45-35.4l9.85-.43c1.32-.06,3.79-.17,5.41-2.07a7.07,7.07,0,0,0,1.41-3.36,146.28,146.28,0,0,0,2.49-37.42,5.1,5.1,0,0,0-4.8-5.33,87.87,87.87,0,0,0-10.36-1.33c1-6.3,1.84-13.22,2.74-20.54.84-6.79,1.69-13.7,2.67-20.24A80.48,80.48,0,0,0,479.27,127.05ZM456.9,145.71c-.93,7.5-1.8,14.59-2.81,20.95-5.6-.06-11.31.5-15.61,2.21,0-.55-.07-1.05-.11-1.53-.09-1.19-.17-2.32-.21-4.2a44.83,44.83,0,0,0-5.9-21.25,2.56,2.56,0,0,0-4.45,2.54A39.75,39.75,0,0,1,433,163.25c.05,2,.14,3.21.23,4.47.08,1,.16,2.11.22,3.76a2.45,2.45,0,0,0,.34,1.14,2.27,2.27,0,0,0-.06.25c-.08,2.2-.14,4.91-.15,7.95-2.89-.15-13.28,2.28-13.38,2.31-1.8.53-4.81,1.43-6.31,4.22a10.39,10.39,0,0,0-1,3.93c-.76,6.88-1.66,13.8-2.62,20.68-.07,0-.13,0-.19,0a2.57,2.57,0,0,0-1.68,3.21c.27.86.5,1.72.74,2.59a39.63,39.63,0,0,0,1.9,5.73c1.61,3.6,4.12,6.2,7.09,7.31a10.69,10.69,0,0,0,3.78.66,16.91,16.91,0,0,0,7.22-1.82c.58-.28,1.14-.61,1.71-.92-2.65,5.23-5.71,10.7-8.48,15.07-3.09,4.86-6,7.12-8.68,7-3.14-.18-5.66-3.47-7.7-6.67a21.88,21.88,0,0,1-3.41-7.18c-.54-2.72,0-5.72.57-8.62,5.67-30,11.54-61.08,20.95-90.61a17.93,17.93,0,0,1,2.79-6.08c1.47-1.78,3.81-3,6.09-4,6.64-3.13,18.26-7.74,28.12-11.46C459.42,125.22,458.14,135.6,456.9,145.71Zm4.31-35.1c-10.34,3.87-23.22,9-30.41,12.34-2.79,1.32-5.71,2.83-7.85,5.42a22.82,22.82,0,0,0-3.73,7.79c-9.33,29.31-15.19,59.94-20.79,89.62-4.06-10.75-9.4-18.07-16.26-22.37a3.59,3.59,0,0,0,.19-1,3.49,3.49,0,0,0-1.28-2.7,13.29,13.29,0,0,0-2.9-2,4.34,4.34,0,0,0,.68-1c1.22-2.42-.11-5.25-3.23-6.89a29.94,29.94,0,0,0-7.31-2.66c.08-.65.16-1.29.27-1.95a81.85,81.85,0,0,0,14.14,7.46,19.44,19.44,0,0,0,7.25,1.75,11.44,11.44,0,0,0,2.09-.19,2.57,2.57,0,0,0,.51-4.88c-1.65-.7-2.37-3-2.5-4.91-.06-.92-.05-1.85,0-2.78a21.47,21.47,0,0,0-.53-6.21,13.27,13.27,0,0,0-8.58-8.75c5.43-8.61,6.2-21,1.1-28.78-4.05-6.15-10.06-10.49-16.21-11.75-4.42-3.71-9.12-4-13.3-4.18l-.28,0c-15.74-.84-26.41,5-32.75,17.83-2.82,5.72-4.52,14.8-2.1,22.41,0,0,0,.08,0,.12.15,2.14.41,4.29.67,6.43.15,1.25.27,2.5.4,3.74a8.75,8.75,0,0,0-4.67,5.66,14.6,14.6,0,0,0-.22,4.61l0,.59c.11,1.93.07,6.61-2.69,8.44a2.56,2.56,0,0,0,.91,4.65,11.26,11.26,0,0,0,2.21.22,14.72,14.72,0,0,0,6.72-1.79,30.73,30.73,0,0,0,5.73-4.16,18,18,0,0,0,5.19,3,6.65,6.65,0,0,0-2.16,4.89,5.45,5.45,0,0,0,.78,2.76,6.28,6.28,0,0,0-.69.45,4.92,4.92,0,0,0-1.19,1.26,2,2,0,0,0-.35.11c-10.24,5.63-17.44,15.43-22.57,23.34-1.42,2.18-2.79,4.39-4.16,6.61-2.53,4.06-5.13,8.18-8,12.1a15.79,15.79,0,0,0-.54-9.24c-1.18-3.21-3.4-5.88-5.35-8.23a35.63,35.63,0,0,0-6.56-6.61,11.11,11.11,0,0,0-7.35-2.37,7.89,7.89,0,0,0-5.34,2.73,5,5,0,0,0-1.18,3.78,6,6,0,0,0,1.55,3.14,23.1,23.1,0,0,0,5,4c.9.59,1.8,1.18,2.62,1.83a11.23,11.23,0,0,1,4.5,7.88c.15,2.55-2.65,7.4-5.7,9.94a16.45,16.45,0,0,0-6,1.55,8.14,8.14,0,0,0-3.51,2.95l0,.06a158.17,158.17,0,0,0-17.49.14,2.64,2.64,0,0,0-.57.14,14.82,14.82,0,0,0-2-3.87,17.3,17.3,0,0,0-5.8-4.66,35.88,35.88,0,0,0-20.58-4L220.41,233a2.55,2.55,0,0,0-.06-.73c2.67-.24,6.07-.8,8.51-3.23s3.06-5.85,3.44-9.09a368.71,368.71,0,0,0-.6-88.83c-.46-3.59-1.13-7.33-3.79-10.1-2.18-2.28-5.14-3.25-7.52-4L202.6,111.2l0-2C220.13,109.1,374.2,108,461.21,110.61Zm-258.67-6.5a3.29,3.29,0,0,0-.72-1.38,3.35,3.35,0,0,0-1.44-1,169.75,169.75,0,0,1,2-17.55l.1-.64A24.09,24.09,0,0,0,219.68,104Zm12.75-25.84a10.76,10.76,0,0,1,1.22,4.87c.09,1.14.14,2.27.19,3.41A41,41,0,0,0,218,96.68c.15.49.34.93.52,1.39a19.26,19.26,0,0,1-6.26-4.54,20,20,0,0,1-4.83-15.21,15.09,15.09,0,0,0,2.29-2.84A6.64,6.64,0,0,1,215.29,78.27ZM152.47,40.36c5.91-13.12,15.53-18.82,30.34-17.94h.31c4.16.25,8.09.48,11.64,4a2.61,2.61,0,0,0,1.36.72c6.44,1.14,11.84,6.72,14.75,11.55,4.1,6.81,3.74,17.83-.12,26.11A6.42,6.42,0,0,0,207.8,62a7.19,7.19,0,0,0-5.18-.16,11,11,0,0,0-1.1.44,29.65,29.65,0,0,1-6.84-7.85,44.16,44.16,0,0,1-6.19-14.21A2.57,2.57,0,0,0,184.23,39,115,115,0,0,1,150,61.11,36.4,36.4,0,0,1,152.47,40.36ZM174.63,101l1.29-.45a71.11,71.11,0,0,0,16.79-8.93,2.56,2.56,0,0,0-3-4.16,66.5,66.5,0,0,1-15.58,8.29c-2.76,1-6,2-9,1.57-4.75-.7-8.15-4.79-9.76-7.16a17.84,17.84,0,0,1-2.45-4.92,26.67,26.67,0,0,1-.74-5.54l-.07-1c-.17-2.36-.43-4.72-.69-7.09-.19-1.76-.37-3.52-.53-5.28a120.56,120.56,0,0,0,33.78-20.82,52.85,52.85,0,0,0,5.74,11.73A35.37,35.37,0,0,0,198,66.06a2.52,2.52,0,0,0,.53,1.56,2.56,2.56,0,0,0,3.61.37,6.74,6.74,0,0,1,2.06-1.24,2.27,2.27,0,0,1,1.5,0c.7.32,1,1.54.9,2.58-.29,3.56-3.43,7-7.48,8.22a2.55,2.55,0,0,0-1.72,3.19,2,2,0,0,0,.23.47l-.34,2.29c-.88,6-2,13.33-2.06,18.5a194.76,194.76,0,0,0-20.31,3.56A19.09,19.09,0,0,0,174.63,101Zm-4.31,11a187.13,187.13,0,0,1,27.23-5.12l-.07,3.74-28.89,4.23C169.12,113.88,169.7,112.94,170.32,112Zm-32.58,29c.22-2.16.45-4.38,1.44-6a13.45,13.45,0,0,1,4.21-3.87,91.38,91.38,0,0,1,19.46-10,2.56,2.56,0,0,0,.79-.49,2.62,2.62,0,0,0,.38.09,2.31,2.31,0,0,0,.37,0l35-5.12a3.11,3.11,0,0,0,.4.22l19,6.2c1.93.63,4.12,1.35,5.41,2.69,1.58,1.65,2,4.35,2.41,7.21a363.56,363.56,0,0,1,.58,87.59c-.28,2.44-.64,4.74-1.95,6.05s-3.92,1.67-6.59,1.85l-34.2,2.35a84.1,84.1,0,0,0-14.91,1.92l-3.06-13.66a185.8,185.8,0,0,1,33.27-5.62,2.55,2.55,0,0,0,1.67-4.31.56.56,0,0,1,0-.36,1.65,1.65,0,0,1,.68-1.12c1.19-.75,3-.39,4.06-.12.75.21,1.48.48,2.21.74a24.63,24.63,0,0,0,4.06,1.19,2.56,2.56,0,0,0,.89-5,19.42,19.42,0,0,1-3.22-1l-.89-.29c-.53-16.54-.69-33.31-.45-49.82a22.27,22.27,0,0,1,.77-6.73,22.85,22.85,0,0,1,3-5.32,26.32,26.32,0,0,0,3.7-6.7,2.56,2.56,0,0,0-4.87-1.6,22.29,22.29,0,0,1-3.05,5.39,27.16,27.16,0,0,0-3.67,6.59,26.58,26.58,0,0,0-1,8.29c-.24,16.2-.09,32.64.42,48.88a8.65,8.65,0,0,0-4.7,1.18,6.86,6.86,0,0,0-3,4.82c0,.15,0,.31,0,.47a189.44,189.44,0,0,0-33.5,6.16,2.57,2.57,0,0,0-1.54,1.23c-1.68-.57-3.19-2-4.77-3.65L155.33,210a8.72,8.72,0,0,0-2-1.51,7.19,7.19,0,0,0-2-.69c1.18-6.49,2.42-13.76,1-20.86a59,59,0,0,0-1.79-6.47,34.59,34.59,0,0,1-2-8.64c-.19-3.62.84-7.23,1.93-11.05.5-1.77,1-3.55,1.39-5.33,1.76-8.06.15-14.89-4.41-18.73a2.56,2.56,0,0,0-3.3,3.92c4.34,3.66,3.34,10.81,2.7,13.72-.36,1.68-.84,3.35-1.31,5-1.16,4.05-2.35,8.24-2.12,12.7a39.15,39.15,0,0,0,2.22,9.95,52.49,52.49,0,0,1,1.65,5.9c1.17,5.94.2,12.16-.9,18.22a11.6,11.6,0,0,1-2.38-1.81,4.79,4.79,0,0,0-1.66-1.19,2.51,2.51,0,0,0-1.11-1.19c-.56-.29-1.13-.54-1.71-.78a46.2,46.2,0,0,0-8-2.49,2.49,2.49,0,0,0,.37-1.05ZM99.53,200.88a225,225,0,0,1,24.64-.13,3.77,3.77,0,0,1,.62.06,139.51,139.51,0,0,1-.38,19,21.93,21.93,0,0,0-9.54,7,3.9,3.9,0,0,0-.86,2.41,3.31,3.31,0,0,0,1.1,2.37,4.88,4.88,0,0,0-.73,1.88,3.93,3.93,0,0,0,2.19,4.24c-6.68.44-13.41.59-20.07.42-.13,0-.44,0-.65,0a4.85,4.85,0,0,1-.14-.54A149.54,149.54,0,0,1,92.21,202,27.71,27.71,0,0,1,99.53,200.88Zm-9.88,32.66.21,1.09L89,234.4C89.18,234.1,89.43,233.83,89.65,233.54ZM81.08,216c.1-1.39.25-2.8.88-3.5a3.05,3.05,0,0,1,1.85-.78,14.12,14.12,0,0,1,3.26.14c.06,0,.11,0,.17,0q.15,3.64.45,7.16c-2-.46-4-.94-6-1.51-.18,0-.6-.17-.6-.11A3.74,3.74,0,0,1,81.08,216Zm6.76,8.33a2.91,2.91,0,0,0,.4.05c.15,1.28.33,2.55.52,3.82l-2.67-.55c-.08-1.26-.1-2.53-.12-3.79C86.59,224,87.22,224.18,87.84,224.31Zm-43.37,227c0,1.3-1.13,2.15-3.72,3.69a12.63,12.63,0,0,1-12,.72c-3.34-1.55-4.61-2.76-4.69-4.46-.23-4.78-.57-15.08-.78-25,5.67.62,11.37.88,15.16,1H39a17.55,17.55,0,0,0,5.89-1c0,1.66,0,3.35-.05,5.1C44.74,438.52,44.67,446,44.47,451.28Zm-.63-30.13a12.14,12.14,0,0,1-5.23,1c-5-.13-17.59-.67-25.31-2.76a10.1,10.1,0,0,1-4.45-2C7.43,416,7.17,413.45,7,410.78c-3.21-51.95-1.7-105.55.13-141.38.13-2.53.46-5.37,2-7.3,1.14-1.5,3.07-2.47,5.29-3.5,17-7.87,56.19-23.49,67.46-27.6a3.29,3.29,0,0,0,.73.77,4,4,0,0,0,1.58.69l-.45.79a3.88,3.88,0,0,0-.23,3.81,4,4,0,0,0,2.7,1.91l1.56.4a3.17,3.17,0,0,0,.47,2,2.55,2.55,0,0,0,1.48,1.11,3.38,3.38,0,0,0,.94.13,3.53,3.53,0,0,0,1.87-.56,4.52,4.52,0,0,0,.83.54c-10.56,4.91-24.77,11.09-37.95,16.77a2.56,2.56,0,1,0,2,4.71c17-7.35,35.82-15.54,46.33-20.78,6.3-.05,12.62-.33,18.87-.9a2.63,2.63,0,0,0,.3-.09,10.7,10.7,0,0,0,2,.33l.89,0a5.27,5.27,0,0,0,3,3,7.66,7.66,0,0,0,3,.54c.48,0,.92,0,1.32-.05l8.14-.5c1.06-.06,2.15-.13,3.24-.25l-.64,4.73a.22.22,0,0,1,0,.08c-19.75,7.27-40.14,14.82-58.72,25.7-5,2.92-10.13,6.26-14.13,10.95-3.54,4.15-5.93,9.1-8,13.84-10.65,24.56-16.17,51.38-20.16,76.91.23-13.42.73-26.71,1.25-40.4.71-18.49,1.44-37.6,1.44-57.55a2.57,2.57,0,0,0-5.13,0c0,19.85-.72,38.91-1.43,57.35-1,26-1.93,50.47-1,77.25a2.56,2.56,0,0,0,2.56,2.48h.09a3.06,3.06,0,0,0,.41-.1,1.29,1.29,0,0,0,.21.07c2.43.34,5.79.77,10,1.29C48.45,419.21,45.73,420.35,43.84,421.15ZM43,411.81c-.06-2.32-.13-4.62-.17-6.91l26.44.93q-.4,4.53-.91,9.1C56.7,413.55,48.2,412.5,43,411.81Zm23.88,38.62c1,.06,1.9.13,2.86.13a46.43,46.43,0,0,0,11-1.33,44.51,44.51,0,0,0-.14,7.77c0,.77.13,1.55.2,2.34.44,4.78.9,9.71-2,12.2l-.7.6a23.42,23.42,0,0,0-3.32,3.3,24.66,24.66,0,0,0-5.1-3.38,22.9,22.9,0,0,0-10.33-2.46A117.45,117.45,0,0,0,66.91,450.43Zm7,34.84c-9,4.69-17.23,7.05-25.2,6.92-2.85,0-6.1-.91-6.5-2.83a5.48,5.48,0,0,1,.33-2.42,17.83,17.83,0,0,1,10-10.92,17.53,17.53,0,0,1,6.74-1.33,17.77,17.77,0,0,1,8.08,1.93C73.85,480,74.32,483,73.87,485.27ZM115,488.78c-8.95,4.69-17.29,6.85-25.19,6.92-2.85,0-6.1-.91-6.5-2.83a5.22,5.22,0,0,1,.33-2.42,17.81,17.81,0,0,1,10-10.92,17.82,17.82,0,0,1,14.82.6C115,483.47,115.42,486.48,115,488.78Zm20.13-24.48c2,.35,4.1,2,4,3.87a6.75,6.75,0,0,1-1.46,3.09c-3.57,4.95-8.53,8.66-12.92,11.64-1.56,1.06-3.09,2.05-4.61,3a9.81,9.81,0,0,0-1-2.89,2.17,2.17,0,0,0,.37-.31,15.27,15.27,0,0,1,3-3.12l.73-.63c3.91-3.4,4.25-8.51,4-13.24C130,464.69,132.63,463.88,135.09,464.3Zm-12.5-17.05a41.39,41.39,0,0,1-13.24,1.63c3.63-13.82,5.49-28.2,6.74-41.55,3.18.06,6.36.14,9.55.14s6.43-.05,9.64-.13a136.44,136.44,0,0,1-6.12,19.07C126.6,433.18,124,440.1,122.59,447.25ZM136,422.67a106,106,0,0,0,4.54-15.54c6.8-.3,13.59-.81,20.34-1.71a2.57,2.57,0,0,0,2.21-2.22l6.6-53.71c.89-7.16,2.07-16.78-1.58-24.95L185.75,310c.08.26.12.53.22.78,1.36,3.58,4.82,6.12,10.29,7.56a50.07,50.07,0,0,0,6.74,1.29,25.72,25.72,0,0,0,3,.2,13.07,13.07,0,0,0,4.14-.61,9.23,9.23,0,0,0,4.14-2.77,10.78,10.78,0,0,0,6.82,3.53,21.1,21.1,0,0,0,2.66.17c3.7,0,7.7-1,12.38-3.1a63.92,63.92,0,0,0,13.1-7.94c6.84-.08,13.31-2.33,19.43-5.07a13.82,13.82,0,0,0-3.1,3.62c-1.14,1.94-1.11,3.92.07,5.3a4.62,4.62,0,0,0,3.21,1.43c.73.07,1.47.1,2.21.1a25.3,25.3,0,0,0,6.48-.87,93.94,93.94,0,0,0-7.86,14.16,8,8,0,0,0-.86,3.4,8,8,0,0,0,1.91,4.59,5,5,0,0,1,1,1.7,2.54,2.54,0,0,0,2.11,2.16,73.39,73.39,0,0,1-19.91,30.46l-.2.19a13.48,13.48,0,0,0-3.39,4,6.31,6.31,0,0,0,.93,7.25,7.17,7.17,0,0,0,5.17,1.73h.24c10.46-.13,19.62-6.27,27-11.21a8.44,8.44,0,0,0,2.62-2.41,8.72,8.72,0,0,0,1.14-3.2,73.17,73.17,0,0,1,14.69-30.93,2.83,2.83,0,0,0,.37-.71c3.35.45,6.7.93,10,1.45-1.3,7.49-4.41,15.13-9.51,23.33a209.09,209.09,0,0,1-14.54,19.75L287,381.13c-.92,1.17-3.39,4.26-1.91,7.57,1.12,2.48,3.82,3.27,5.11,3.66a18.61,18.61,0,0,0,5.21,1,9.2,9.2,0,0,0,2.19-.25c2.77-.68,4.68-2.58,6.37-4.26a16.37,16.37,0,0,1,2.88-2.48,16.85,16.85,0,0,1,4-1.48c2.66-.76,5.68-1.61,7.68-4.27a9.47,9.47,0,0,0,1.32-2.64c-2.34,21-4,42.55-5.07,64.39C247.22,435,184,428.05,136,422.67Zm176.61,76.14a67.09,67.09,0,0,0,4-6.83c.56-1.15,1-2.32,1.48-3.51.13,0,.27,0,.41,0a27.24,27.24,0,0,0,6.32-1l8.58-2,1.88-.48a223.83,223.83,0,0,0,1.14,24.49l.29,3.35a33,33,0,0,0-5.22,5.87c-.7.11-9.05,1.52-13.64,4-.15-.39-.26-.75-.44-1.15-2.32-5.19-8.44-9.78-11.86-11.88Zm.88,34.6a2.52,2.52,0,0,0-.43,1l-.75.24c-5.09,1.61-10.36,3.27-15.62,3.43-5.55.18-10.42-1.52-13.44-4.63a4.39,4.39,0,0,1-1.23-1.87,4,4,0,0,1,.17-2c1.88-6.58,8.08-11.35,14.82-16a4.1,4.1,0,0,1,2.33-.61,6.22,6.22,0,0,1,2.24.42c1.16.49,9,5.43,11.19,10.36C314.76,528,315,531.32,313.52,533.41Zm6.85-1.48-1,.32a13.51,13.51,0,0,0,0-4.44s.08,0,.11-.08c.88-.94,5.41-2.36,9.22-3.24-.06.21-.16.41-.22.63a9.21,9.21,0,0,0-.31,4.2C326.07,530,323.23,531,320.37,531.93Zm44.35-1.52a2.63,2.63,0,0,0-.42,1l-.76.24c-5.09,1.61-10.35,3.27-15.62,3.43-5.55.15-10.42-1.52-13.44-4.63a4.39,4.39,0,0,1-1.23-1.87,4,4,0,0,1,.17-2c1.88-6.58,8.08-11.35,14.83-16a4.07,4.07,0,0,1,2.32-.61,6.22,6.22,0,0,1,2.24.42c1.16.49,9,5.44,11.19,10.36C366,525,366.2,528.32,364.72,530.41Zm46.17-24.06c.36.17,1.48.7,1.77,1.29.36.75-.38,2.28-1.83,3.73-3.56,3.59-8.23,6.49-15.16,9.42-6.24,2.63-12.88,4.73-19.34,6.78l-5.74,1.81a13.46,13.46,0,0,0,0-4.57s.08,0,.11-.08c1.46-1.59,5.63-3.57,8.26-3.92.84-.1,1.71-.12,2.58-.15,2.44-.06,5.21-.14,7.61-1.82,4.07-2.84,4.29-8,4-12.34a1.46,1.46,0,0,0,.36-.09A20.64,20.64,0,0,1,410.89,506.35Zm-10.21-57.29c1.48-5.8,3-11.79,4.66-17.62,1.68-6,3.55-12.07,5.37-17.95,5.52-17.91,11.21-36.37,12.73-55.5a3.77,3.77,0,0,0,3.14.8,3.82,3.82,0,0,0,1.92-1.22,22.32,22.32,0,0,0,4.2-6.86c21.64-1.1,43.52-2.6,65.08-4.48,2.51-.22,6.18-.56,8.94-2.81-2.29,45.44-1.78,97.43-1.41,119.25C478.22,459.86,442,456,400,451.52,400.25,450.7,400.47,449.88,400.68,449.06ZM540,489.13c-.06,7.22-.13,14.68-.33,20,0,1.3-1.14,2.15-3.72,3.69a12.65,12.65,0,0,1-12,.72c-3.34-1.55-4.61-2.76-4.69-4.47-.37-7.73-.39-24-.29-33.15,6.29.69,13.49,1.34,21.14,1.64C540.05,480.92,540,484.94,540,489.13Zm123.74-58.62-.1,2.87c-.05,1.3-1.14,2.15-3.73,3.7a12.63,12.63,0,0,1-12,.71c-3.35-1.55-4.62-2.76-4.7-4.46-.28-5.84-.46-10.41-.54-12.68l11.26-7.91,10.61-7.46C664.38,412.71,663.94,424.38,663.71,430.51Zm11.65-47a18.42,18.42,0,0,1-7.83,13.42L651,408.55l-11.67,8.2a2.48,2.48,0,0,0-1.29.9c-27,19-60.25,42.24-74.13,51.32A22.48,22.48,0,0,1,552,472.58a270.73,270.73,0,0,1-37.44-2.33,4.5,4.5,0,0,1-4-4.38c-.47-25.49-1.53-112.64,4.64-163.62A16.32,16.32,0,0,1,522,290.86a281.07,281.07,0,0,1,41.42-23.78,9,9,0,0,0-.66,1.81,12.26,12.26,0,0,0-.25,3.08l.05,9.64a4.23,4.23,0,0,0,.54,2.26,3.94,3.94,0,0,0,3.4,1.81c3.67,0,6-3.22,6.74-4.3a18.11,18.11,0,0,0,3-6.17,21.5,21.5,0,0,0,.38-2.27,13.89,13.89,0,0,1,.41-2.18c.68-2.2,2.84-3.92,5.56-6.11l.58-.47c1.55,2.43,2.61,4.65,2.68,7a19.09,19.09,0,0,1-.46,3.83l-.11.59a76.71,76.71,0,0,0-1.13,10.46c-5.52,3.47-11,7.11-16.46,10.83a2.56,2.56,0,0,0,1.46,4.67,2.58,2.58,0,0,0,1.45-.45c4.61-3.17,9.31-6.26,14-9.27a2.55,2.55,0,0,0,1.19.87,5.47,5.47,0,0,0,1.84.31,7,7,0,0,0,4.36-1.63,13.1,13.1,0,0,0,3-4c.7-1.29,1.36-2.6,2-3.94a4,4,0,0,0,.81.11c1.29,0,3-.56,4.81-2.65.37-.43.69-.91,1-1.36a5.33,5.33,0,0,0,1.5.2,6.3,6.3,0,0,0,2.83-.68,10.4,10.4,0,0,0,3.28-2.85c.12-.15.22-.31.33-.46s.19-.06.28-.11A477.19,477.19,0,0,1,674.76,247a2.56,2.56,0,0,0-1.78-4.81,483,483,0,0,0-56.76,25.4c.18-.47.37-.93.52-1.4a9.29,9.29,0,0,0,.16-6.52,5.08,5.08,0,0,0-.42-.76,7.72,7.72,0,0,0-1.74-5.63,17.42,17.42,0,0,0-4.07-3.5l-4-2.73-.14-.09c12.8-5,27.61-10,36.13-12.87a32.44,32.44,0,0,1,10.77-1.61c7,.16,19.94.67,27.76,2.29a4.54,4.54,0,0,1,3.67,4.64C682.11,297.81,679.09,343.62,675.36,383.51Z"/></g></g></svg>