<?xml version="1.0" encoding="UTF-8"?><svg id="Layer_2" xmlns="http://www.w3.org/2000/svg" viewBox="0 0 50 50"><defs><style>.cls-1{fill:#fff;}.cls-2,.cls-3{fill:#009b37;}.cls-3{font-family:Bahnschrift-Bold, Bahnschrift;font-size:25px;font-variation-settings:'wght' 700, 'wdth' 100;letter-spacing:.04em;}</style></defs><g id="design"><g><g><path class="cls-1" d="M24.52,49C11.35,48.74,.8,37.81,1,24.63,1.2,11.58,11.58,1.2,24.63,1h.38c13.2,0,23.73,10.33,23.99,23.52,.04,1.91-.15,3.82-.56,5.67-.76,3.47-1.15,6.82-1.15,9.98v6.35c0,.42-.34,.76-.76,.76h-6.35c-3.15,0-6.51,.39-9.98,1.15-1.7,.37-3.44,.56-5.19,.56h-.47Z"/><path class="cls-2" d="M25.01,0V2c12.65,0,22.74,9.9,22.99,22.54,.04,1.83-.14,3.66-.54,5.43-.78,3.54-1.18,6.97-1.18,10.19v6.12h-6.12c-3.23,0-6.66,.4-10.19,1.18-1.62,.36-3.3,.54-4.98,.54-.15,0-.3,0-.46,0-6.15-.12-11.88-2.6-16.12-7-4.24-4.39-6.52-10.2-6.43-16.36C2.19,12.14,12.14,2.19,24.64,2c.12,0,.24,0,.37,0V0M25.01,0C24.87,0,24.74,0,24.61,0,11.11,.21,.21,11.11,0,24.61c-.21,13.83,10.67,25.12,24.5,25.38,.17,0,.33,0,.5,0,1.86,0,3.67-.2,5.41-.59,3.21-.71,6.48-1.13,9.76-1.13h6.35c.97,0,1.76-.79,1.76-1.76v-6.35c0-3.29,.42-6.55,1.13-9.76,.42-1.9,.62-3.87,.58-5.9C49.73,10.81,38.65,0,25.01,0h0Z"/></g><text class="cls-3" transform="translate(16.42 34.02)"><tspan x="0" y="0">Q</tspan></text></g></g></svg>