<?xml version="1.0" encoding="UTF-8"?><svg id="Layer_2" xmlns="http://www.w3.org/2000/svg" viewBox="0 0 68.03 120"><defs><style>.cls-1 {
  fill: #fff;
}

.cls-2 {
  fill: #001400;
}

</style></defs><g id="design"><g><path class="cls-2" d="M7.5,120c-1.77-.51-3.48-1.13-4.82-2.47C.84,115.69,0,113.45,0,110.88c0-3.32,0-6.64,0-9.96C0,70.45,.01,39.99,0,9.53,0,5.69,1.42,2.65,4.97,.96,6.2,.38,7.67,.05,9.03,.05,25.67-.01,42.31,0,58.95,.02c5.39,0,9.02,3.83,9.02,9.39,0,27.1,0,54.21,0,81.31,0,6.21-.13,12.42,.04,18.63,.14,4.86-1.52,9.13-7.54,10.65H7.5Zm-.91-27.8H61.35V14.85H6.6V92.2ZM34.1,5.34c-3.9,0-7.81,0-11.71,0-1.46,0-1.98,.56-1.98,2.07,0,1.51,.55,2.14,1.95,2.14,7.77,0,15.54,0,23.3,0,1.38,0,1.94-.64,1.92-2.16-.01-1.47-.53-2.04-1.89-2.04-3.86,0-7.73,0-11.59,0Zm-.1,106.01c3.06,0,5.6-2.54,5.57-5.58-.03-3.02-2.49-5.48-5.52-5.5-3.09-.03-5.61,2.44-5.63,5.51-.02,3.04,2.52,5.57,5.58,5.57Z"></path><path class="cls-1" d="M6.6,92.2V14.85H61.35V92.2H6.6Z"></path><path class="cls-1" d="M34.1,5.34c3.86,0,7.73,0,11.59,0,1.36,0,1.88,.57,1.89,2.04,.02,1.52-.54,2.16-1.92,2.16-7.77,0-15.54,0-23.3,0-1.4,0-1.96-.62-1.95-2.14,0-1.51,.53-2.07,1.98-2.07,3.9,0,7.81,0,11.71,0Z"></path><path class="cls-1" d="M34,111.34c-3.06,0-5.6-2.54-5.58-5.57,.02-3.06,2.55-5.53,5.63-5.51,3.03,.02,5.49,2.48,5.52,5.5,.03,3.04-2.51,5.58-5.57,5.58Z"></path></g></g></svg>