<?xml version="1.0" encoding="UTF-8"?><svg id="Layer_2" xmlns="http://www.w3.org/2000/svg" viewBox="0 0 109.91 110"><defs><style>.cls-1{fill:#fff;}.cls-2{fill:#001400;}</style></defs><g id="design"><g><path class="cls-1" d="M53.39,4.3c0,.54,0,.96,0,1.38,0,5.05,0,10.1,0,15.14,0,3.59,1.84,5.43,5.4,5.44,5.08,0,10.17,0,15.25,0,.39,0,.78,0,1.27,0,.02,.42,.06,.76,.06,1.1,0,8.23,.01,16.47-.03,24.7,0,.53-.29,1.18-.66,1.56-5.46,5.52-10.96,11.02-16.47,16.49-1.17,1.16-2.02,2.48-2.56,4.03-1.17,3.34-2.36,6.67-3.57,9.99-.64,1.76-.59,3.38,.79,4.77,1.38,1.39,3.02,1.42,4.77,.79,3.26-1.18,6.52-2.37,9.8-3.49,1.74-.59,3.22-1.51,4.47-2.85,1.04-1.12,2.12-2.21,3.38-3.53,.04,.63,.08,.93,.08,1.23,0,7.37,0,14.75,0,22.12,0,1.87-.64,2.51-2.52,2.51-21.98,0-43.96,0-65.94,0-1.93,0-2.56-.63-2.56-2.59,0-32.08,0-64.15,0-96.23,0-1.95,.63-2.58,2.56-2.58,15.11,0,30.22,0,45.32,0h1.15Zm-16.69,55.7c6.84,0,13.67,0,20.51,0,.43,0,.86,.01,1.29-.05,.96-.14,1.66-.93,1.74-1.9,.08-.99-.46-1.88-1.39-2.17-.44-.13-.91-.17-1.37-.17-13.81,0-27.63,0-41.44,0-.39,0-.79,.01-1.17,.1-1.06,.24-1.74,1.17-1.66,2.2,.08,1.05,.86,1.85,1.93,1.97,.39,.04,.79,.03,1.18,.03,6.8,0,13.6,0,20.4,0Zm-2.24-12.72c6.16,0,12.31,0,18.47,0,.36,0,.72,.02,1.07-.02,1.12-.12,1.92-.97,1.95-2.06,.03-1.13-.77-2.05-1.93-2.19-.32-.04-.64-.02-.97-.02-12.38,0-24.77,0-37.15,0-.36,0-.72-.02-1.07,.03-1.09,.16-1.89,1.1-1.86,2.16,.03,1.07,.85,1.96,1.95,2.08,.35,.04,.72,.02,1.07,.02,6.16,0,12.31,0,18.47,0Zm-4.14,25.58c4.94,0,9.88,.01,14.82,0,1.32,0,2.23-.9,2.24-2.1,.01-1.15-.84-2.05-2.09-2.17-.35-.03-.72-.02-1.07-.02-6.77,0-13.53,0-20.3,0-2.72,0-5.44,0-8.16,0-1,0-1.85,.27-2.33,1.22-.75,1.47,.3,3.07,2.07,3.07,4.94,.02,9.88,0,14.82,0Zm.09-42.87c-4.72,0-9.45,0-14.17,0-2.05,0-3.08,.74-3.05,2.17,.03,1.41,1.02,2.09,3.02,2.09,9.38,0,18.76,0,28.13,0,.43,0,.86,0,1.28-.06,1.05-.17,1.78-1.07,1.75-2.12-.02-1.01-.73-1.86-1.73-2.03-.39-.06-.78-.06-1.18-.06-4.69,0-9.38,0-14.07,0Zm-2.27,55.75c.43,0,.86,0,1.29,0,3.8,0,7.59,0,11.39,0,1.05,0,1.81-.46,2.15-1.45,.31-.9,.13-1.78-.66-2.3-.53-.35-1.26-.52-1.9-.52-8.16-.03-16.33-.02-24.49-.02-.32,0-.65,0-.96,.06-1.39,.29-2.14,1.73-1.55,2.98,.45,.95,1.26,1.27,2.29,1.27,4.15-.02,8.31,0,12.46,0Zm38.49-40.65c-.02-1.18-.96-2.11-2.13-2.1-1.14,0-2.13,.99-2.14,2.13,0,1.18,1.02,2.19,2.21,2.15,1.18-.04,2.07-.98,2.05-2.17Z"/><path class="cls-1" d="M95.16,39.43l2.03,1.99c-10.79,10.79-21.54,21.54-32.3,32.3l-2.02-2c10.77-10.76,21.5-21.5,32.3-32.29Z"/><path class="cls-1" d="M100.48,44.74l1.91,1.9c-10.78,10.78-21.53,21.53-32.29,32.29l-1.84-1.98c10.7-10.7,21.44-21.44,32.22-32.22Z"/><path class="cls-1" d="M71.92,21.92c-.14,.01-.37,.05-.61,.05-4.18,0-8.37-.01-12.55,.01-.75,0-1.1-.17-1.1-1.01,.03-4.25,.01-8.51,.02-12.76,0-.2,.06-.4,.07-.45,4.7,4.7,9.44,9.43,14.17,14.16Z"/><path class="cls-1" d="M59.93,75.06l6.82,6.82c-.92,.34-1.83,.71-2.77,.99-.22,.06-.6-.16-.8-.36-1.31-1.27-2.61-2.55-3.86-3.88-.22-.24-.33-.76-.25-1.08,.21-.82,.55-1.61,.86-2.48Z"/><path class="cls-1" d="M98.76,36.53c1.86-.73,3.89-.25,5.39,1.31,1.44,1.5,1.85,3.53,1.13,5.16-2.15-2.13-4.33-4.3-6.52-6.47Z"/><path class="cls-1" d="M59.05,84.64l-2.91,1.04,1.04-2.96,1.87,1.92Z"/><g><path class="cls-2" d="M0,5.59c.06-.12,.15-.24,.18-.38C.88,1.94,3.22,0,6.57,0,19.35,0,32.13,0,44.91,0c2.94,0,5.87,.01,8.81,0,1.82-.01,3.34,.63,4.62,1.91,6.45,6.46,12.9,12.92,19.37,19.36,1.35,1.34,1.98,2.93,1.98,4.81,0,7.05,0,14.11,0,21.16,0,.38,0,.76,0,1.36,.45-.41,.73-.66,1-.92,4.31-4.3,8.58-8.64,12.92-12.9,4.87-4.77,12.64-3.39,15.46,2.71,1.58,3.41,.96,7.5-1.62,10.3-1.31,1.42-2.71,2.76-4.08,4.12-7.62,7.62-15.23,15.24-22.87,22.85-.57,.57-.83,1.13-.83,1.96,.03,8.52,.02,17.04,.02,25.56,0,4.54-1.01,6.07-5.13,7.72H5.16c-1.6-.54-3.12-1.25-4-2.77-.5-.87-.78-1.87-1.16-2.81C0,71.47,0,38.53,0,5.59Zm53.39-1.29h-1.15c-15.11,0-30.22,0-45.32,0-1.93,0-2.56,.63-2.56,2.58,0,32.08,0,64.15,0,96.23,0,1.95,.63,2.59,2.56,2.59,21.98,0,43.96,0,65.94,0,1.87,0,2.52-.64,2.52-2.51,0-7.37,0-14.75,0-22.12,0-.3-.04-.6-.08-1.23-1.26,1.32-2.34,2.4-3.38,3.53-1.24,1.35-2.73,2.26-4.47,2.85-3.28,1.12-6.54,2.3-9.8,3.49-1.75,.64-3.39,.61-4.77-.79-1.38-1.39-1.43-3.01-.79-4.77,1.22-3.32,2.4-6.65,3.57-9.99,.54-1.55,1.39-2.87,2.56-4.03,5.51-5.48,11-10.97,16.47-16.49,.37-.38,.66-1.03,.66-1.56,.04-8.23,.03-16.47,.03-24.7,0-.34-.04-.68-.06-1.1-.49,0-.88,0-1.27,0-5.08,0-10.17,0-15.25,0-3.57,0-5.4-1.85-5.4-5.44,0-5.05,0-10.1,0-15.14,0-.42,0-.85,0-1.38Zm41.77,35.13c-10.8,10.8-21.53,21.53-32.3,32.29l2.02,2c10.77-10.77,21.51-21.51,32.3-32.3l-2.03-1.99Zm5.32,5.31c-10.77,10.77-21.52,21.52-32.22,32.22l1.84,1.98c10.76-10.76,21.51-21.52,32.29-32.29l-1.91-1.9Zm-28.56-22.82c-4.73-4.73-9.47-9.46-14.17-14.16,0,.05-.07,.25-.07,.45,0,4.25,.01,8.51-.02,12.76,0,.84,.35,1.01,1.1,1.01,4.18-.03,8.37-.01,12.55-.01,.23,0,.47-.04,.61-.05Zm-11.99,53.14c-.31,.87-.66,1.66-.86,2.48-.08,.33,.03,.84,.25,1.08,1.25,1.33,2.55,2.61,3.86,3.88,.2,.2,.58,.42,.8,.36,.94-.27,1.86-.65,2.77-.99l-6.82-6.82Zm38.84-38.53c2.19,2.18,4.37,4.34,6.52,6.47,.72-1.63,.31-3.67-1.13-5.16-1.5-1.56-3.53-2.04-5.39-1.31Zm-39.72,48.11l-1.87-1.92-1.04,2.96,2.91-1.04Z"/><path class="cls-2" d="M36.7,60c-6.8,0-13.6,0-20.4,0-.39,0-.79,0-1.18-.03-1.08-.11-1.85-.92-1.93-1.97-.08-1.03,.6-1.95,1.66-2.2,.38-.09,.78-.1,1.17-.1,13.81,0,27.63,0,41.44,0,.46,0,.94,.03,1.37,.17,.93,.28,1.47,1.18,1.39,2.17-.08,.98-.77,1.76-1.74,1.9-.42,.06-.86,.05-1.29,.05-6.84,0-13.67,0-20.51,0Z"/><path class="cls-2" d="M34.46,47.28c-6.16,0-12.31,0-18.47,0-.36,0-.72,.02-1.07-.02-1.1-.12-1.92-1.02-1.95-2.08-.03-1.06,.77-2,1.86-2.16,.35-.05,.71-.03,1.07-.03,12.38,0,24.77,0,37.15,0,.32,0,.65-.02,.97,.02,1.16,.14,1.97,1.06,1.93,2.19-.03,1.09-.83,1.94-1.95,2.06-.35,.04-.72,.02-1.07,.02-6.16,0-12.31,0-18.47,0Z"/><path class="cls-2" d="M30.31,72.86c-4.94,0-9.88,.01-14.82,0-1.77,0-2.82-1.6-2.07-3.07,.48-.95,1.33-1.22,2.33-1.22,2.72,0,5.44,0,8.16,0,6.77,0,13.53,0,20.3,0,.36,0,.72-.02,1.07,.02,1.25,.12,2.1,1.02,2.09,2.17-.01,1.2-.93,2.1-2.24,2.1-4.94,.02-9.88,0-14.82,0Z"/><path class="cls-2" d="M30.4,29.99c4.69,0,9.38,0,14.07,0,.39,0,.79,0,1.18,.06,1,.17,1.71,1.02,1.73,2.03,.02,1.05-.71,1.95-1.75,2.12-.42,.07-.86,.06-1.28,.06-9.38,0-18.76,0-28.13,0-2,0-2.99-.69-3.02-2.09-.03-1.44,1-2.17,3.05-2.17,4.72,0,9.45,0,14.17,0Z"/><path class="cls-2" d="M28.13,85.74c-4.15,0-8.31-.01-12.46,0-1.03,0-1.84-.32-2.29-1.27-.59-1.25,.17-2.69,1.55-2.98,.31-.07,.64-.06,.96-.06,8.16,0,16.33-.01,24.49,.02,.64,0,1.38,.18,1.9,.52,.79,.52,.98,1.4,.66,2.3-.35,.99-1.11,1.45-2.15,1.45-3.8,0-7.59,0-11.39,0-.43,0-.86,0-1.29,0Z"/><path class="cls-2" d="M66.62,45.09c.02,1.19-.87,2.14-2.05,2.17-1.19,.04-2.22-.97-2.21-2.15,0-1.14,.99-2.12,2.14-2.13,1.17,0,2.11,.92,2.13,2.1Z"/></g></g></g></svg>