<?xml version="1.0" encoding="UTF-8"?><svg id="Layer_2" xmlns="http://www.w3.org/2000/svg" viewBox="0 0 90.11 120"><defs><style>.cls-1{fill:#fff;}.cls-2{fill:#001400;}</style></defs><g id="design"><g><path class="cls-1" d="M2.36,26.97V94.47c0,12.79,19.11,23.16,42.69,23.16s42.69-10.37,42.69-23.16V26.97"/><g><ellipse class="cls-1" cx="45.06" cy="25.53" rx="42.69" ry="23.16"/><path class="cls-2" d="M90.11,25.53C90.11,11.21,70.32,0,45.06,0S0,11.21,0,25.53c0,.34,.02,.68,.04,1.01-.03,.14-.04,.28-.04,.43V94.47c0,14.31,19.79,25.53,45.06,25.53s45.06-11.21,45.06-25.53V26.97c0-.15-.02-.29-.04-.43,.02-.34,.04-.67,.04-1.01ZM45.06,4.73c21.86,0,40.33,9.52,40.33,20.8s-18.47,20.8-40.33,20.8S4.73,36.8,4.73,25.53,23.2,4.73,45.06,4.73Zm40.33,89.74c0,11.27-18.47,20.8-40.33,20.8S4.73,105.75,4.73,94.47v-5.65c7.32,8.35,22.45,13.97,40.33,13.97s33-5.62,40.33-13.97v5.65Zm0-17.2c0,11.27-18.47,20.8-40.33,20.8S4.73,88.54,4.73,77.27v-5.72c7.32,8.35,22.45,13.97,40.33,13.97s33-5.62,40.33-13.97v5.72Zm0-17.27c0,11.27-18.47,20.8-40.33,20.8S4.73,71.27,4.73,60v-5.71c7.32,8.35,22.45,13.97,40.33,13.97s33-5.62,40.33-13.97v5.71Zm0-17.27c0,11.27-18.47,20.8-40.33,20.8S4.73,54,4.73,42.73v-5.65c7.32,8.35,22.45,13.97,40.33,13.97s33-5.62,40.33-13.97v5.65Z"/></g><path class="cls-2" d="M49.31,26.12h8.87c1.93,0,2.14-.99,2.14-1.42,0-.62-.37-1.36-2.14-1.36h-5.68l7.47-6.45c.34-.3,.5-.61,.5-.94,0-.42-.27-1.02-1.54-1.44-.48-.18-1.03-.28-1.54-.28-.86,0-1.57,.25-2.04,.73l-10.26,9.47-10.36-9.47c-.78-.72-2.01-.9-3.45-.46-1.03,.3-1.62,.84-1.62,1.48,0,.35,.18,.67,.51,.92l7.51,6.44h-5.63c-1.86,0-2.14,.87-2.14,1.39s.28,1.39,2.14,1.39h8.77l1.59,1.37v.62h-10.41c-1.42,0-2.14,.46-2.14,1.36,0,.52,.28,1.39,2.14,1.39h10.41v4.38c0,.48,.26,1.58,2.68,1.58,1.68,0,2.68-.59,2.68-1.58v-4.38h10.36c1.93,0,2.14-.97,2.14-1.39,0-1.36-1.61-1.36-2.14-1.36h-10.36v-.6l1.55-1.39Z"/></g></g></svg>