<?xml version="1.0" standalone="no"?>
<!DOCTYPE svg PUBLIC "-//W3C//DTD SVG 20010904//EN"
 "http://www.w3.org/TR/2001/REC-SVG-20010904/DTD/svg10.dtd">
<svg version="1.0" xmlns="http://www.w3.org/2000/svg" width="1855.000000pt" height="625.000000pt" viewBox="0 0 1855.000000 625.000000" preserveAspectRatio="xMidYMid meet">

<g transform="translate(0.000000,625.000000) scale(0.100000,-0.100000)" fill="#BDCCD4" stroke="none">
<path d="M0 6246 c0 -22 800 -567 2360 -1606 1026 -683 1870 -1248 1875 -1254
6 -7 1110 -747 2455 -1644 1345 -897 2470 -1649 2501 -1671 l56 -40 2499 1666
c1374 916 2504 1671 2509 1677 6 7 856 577 1890 1266 1034 689 1990 1332 2125
1429 l245 176 -295 3 -294 2 -2148 -1431 c-1181 -788 -2149 -1435 -2150 -1439
-3 -8 -4353 -2909 -4374 -2917 -11 -4 -99 48 -114 67 -3 4 -959 643 -2125
1420 -1166 776 -2124 1418 -2130 1424 -5 7 -976 657 -2157 1444 l-2148 1432
-290 0 c-159 0 -290 -2 -290 -4z"></path>
</g>
</svg>
