<svg xmlns="http://www.w3.org/2000/svg" viewBox="0 0 125.34 94.22"><defs><style>.cls-1 {
  fill: #01a9e0;
}

.cls-2 {
  fill: #fff;
}

.cls-3 {
  fill: #1a1a1a;
}

.cls-4 {
  fill: #cceef9;
}

.cls-5 {
  fill: #e2deda;
}

</style></defs><g id="Layer_2" data-name="Layer 2"><g id="design"><polygon class="cls-1" points="123.25 92.13 2.09 91.75 12.56 79.66 113.74 79.66 123.25 92.13"></polygon><path class="cls-1" d="M123.26,94.22h0L2.08,93.84A2.09,2.09,0,0,1,.51,90.38L11,78.3a2.08,2.08,0,0,1,1.58-.72H113.74a2.09,2.09,0,0,1,1.66.82l9.51,12.46a2.09,2.09,0,0,1-1.65,3.36Z"></path><rect class="cls-2" x="13.6" y="2.09" width="99.18" height="71.77"></rect><path class="cls-3" d="M112.79,75.94H13.6a2.08,2.08,0,0,1-2.08-2.08V2.09A2.08,2.08,0,0,1,13.6,0h99.19a2.08,2.08,0,0,1,2.08,2.09V73.86A2.08,2.08,0,0,1,112.79,75.94Zm-97.1-4.17h95V4.17h-95Z"></path><path d="M38,31.91a5.54,5.54,0,1,1,5.53-5.53A5.54,5.54,0,0,1,38,31.91Zm0-8.84a3.31,3.31,0,1,0,3.31,3.31A3.31,3.31,0,0,0,38,23.07Z"></path><path d="M45.26,43.14H31.41a3.54,3.54,0,0,1-3.53-3.53v-.72a8,8,0,0,1,8-8h5a8,8,0,0,1,8,8v.72A3.53,3.53,0,0,1,45.26,43.14Zm-9.4-10a5.76,5.76,0,0,0-5.75,5.76v.72a1.31,1.31,0,0,0,1.3,1.31H45.26a1.31,1.31,0,0,0,1.31-1.31v-.72a5.77,5.77,0,0,0-5.76-5.76Z"></path><rect class="cls-4" x="49.87" y="21.61" width="44.71" height="11.51" rx="2.52"></rect><rect class="cls-5" x="55.93" y="36" width="37.5" height="5.04" rx="1.14"></rect><path class="cls-5" d="M92.29,42H57.07A2.1,2.1,0,0,1,55,39.9V37.14A2.1,2.1,0,0,1,57.07,35H92.29a2.1,2.1,0,0,1,2.1,2.1V39.9A2.1,2.1,0,0,1,92.29,42ZM57.07,37a.19.19,0,0,0-.19.19V39.9a.2.2,0,0,0,.19.19H92.29a.19.19,0,0,0,.19-.19V37.14a.18.18,0,0,0-.19-.19Z"></path><rect class="cls-5" x="55.93" y="45.06" width="37.5" height="5.04" rx="1.14"></rect><path class="cls-5" d="M92.29,51.06H57.07A2.1,2.1,0,0,1,55,49V46.2a2.1,2.1,0,0,1,2.09-2.09H92.29a2.1,2.1,0,0,1,2.1,2.09V49A2.1,2.1,0,0,1,92.29,51.06ZM57.07,46a.2.2,0,0,0-.19.19V49a.19.19,0,0,0,.19.19H92.29a.18.18,0,0,0,.19-.19V46.2a.19.19,0,0,0-.19-.19Z"></path></g></g></svg>