<svg xmlns="http://www.w3.org/2000/svg" viewBox="0 0 110 110"><defs><style>.cls-1 {
  fill: #e2deda;
}

.cls-2, .cls-5 {
  fill: #4dc3e9;
}

.cls-3 {
  fill: #cceef9;
}

.cls-4 {
  fill: #fff;
}

.cls-5 {
  stroke: #4dc3e9;
  stroke-miterlimit: 10;
}

.cls-6 {
  fill: #1a1a1a;
}

.cls-7 {
  fill: #01a9e0;
}

</style></defs><g id="Layer_2" data-name="Layer 2"><g id="design"><polygon class="cls-1" points="102.23 53.13 55.24 91.07 25.15 54.98 55.76 26.9 102.23 53.13"></polygon><path class="cls-1" d="M55.24,91.55a.48.48,0,0,1-.37-.17L24.78,55.28a.48.48,0,0,1,0-.65L55.43,26.55a.5.5,0,0,1,.57-.06l46.47,26.22a.47.47,0,0,1,.24.38.5.5,0,0,1-.17.41l-47,37.94A.43.43,0,0,1,55.24,91.55ZM25.81,55l29.5,35.39L101.39,53.2,55.83,27.49Z"></path><rect class="cls-2" x="54.37" y="17.34" width="2.12" height="1.05"></rect><path class="cls-2" d="M56.49,31.08H54.37V29h2.12Zm0-4.23H54.37V24.74h2.12Zm0-4.23H54.37V20.51h2.12Z"></path><rect class="cls-2" x="54.37" y="33.19" width="2.12" height="1.05"></rect><rect class="cls-2" x="54.27" y="75.5" width="2.12" height="1.05"></rect><path class="cls-2" d="M56.39,89.24H54.27V87.13h2.12Zm0-4.23H54.27V82.9h2.12Zm0-4.23H54.27V78.67h2.12Z"></path><rect class="cls-2" x="54.27" y="91.35" width="2.12" height="1.05"></rect><rect class="cls-2" x="75.98" y="54.4" width="1.06" height="2.1"></rect><path class="cls-2" d="M89.84,56.5H87.71V54.4h2.13Zm-4.27,0H83.44V54.4h2.13Zm-4.26,0H79.17V54.4h2.14Z"></path><rect class="cls-2" x="91.97" y="54.4" width="1.06" height="2.1"></rect><rect class="cls-2" x="17.41" y="54.61" width="1.06" height="2.1"></rect><path class="cls-2" d="M31.27,56.71H29.14v-2.1h2.13Zm-4.27,0H24.87v-2.1H27Zm-4.26,0H20.6v-2.1h2.14Z"></path><rect class="cls-2" x="33.4" y="54.61" width="1.06" height="2.1"></rect><path class="cls-3" d="M54.8,101.86c-26.29,0-47.67-21.2-47.67-47.25S28.51,7.36,54.8,7.36s47.67,21.2,47.67,47.25S81.08,101.86,54.8,101.86Zm0-90.3A43.05,43.05,0,1,0,98.23,54.61,43.29,43.29,0,0,0,54.8,11.56Z"></path><ellipse class="cls-4" cx="55.01" cy="9.48" rx="7.85" ry="7.78"></ellipse><path class="cls-2" d="M55,19a9.54,9.54,0,0,1-9.56-9.48,9.56,9.56,0,0,1,19.12,0A9.54,9.54,0,0,1,55,19ZM55,3.4a6.08,6.08,0,1,0,6.13,6.08A6.11,6.11,0,0,0,55,3.4Z"></path><path class="cls-5" d="M56.38,11.34a.17.17,0,0,1-.16-.13l-.3-.93H54.11l-.3.93a.21.21,0,0,1-.17.13.18.18,0,0,1-.18-.18.13.13,0,0,1,0-.06l1.09-3.35a.17.17,0,0,1,.17-.13h.59a.19.19,0,0,1,.17.13l1.07,3.35v.06A.18.18,0,0,1,56.38,11.34ZM55.18,8h-.32l-.64,2h1.59Z"></path><ellipse class="cls-4" cx="100.44" cy="54.61" rx="7.85" ry="7.78"></ellipse><path class="cls-2" d="M100.44,64.09A9.48,9.48,0,1,1,110,54.61,9.53,9.53,0,0,1,100.44,64.09Zm0-15.56a6.08,6.08,0,1,0,6.13,6.08A6.12,6.12,0,0,0,100.44,48.53Z"></path><path class="cls-5" d="M100.47,56.43H99.36a.17.17,0,0,1-.18-.17V53a.19.19,0,0,1,.18-.18h1.09c1.06,0,1.19.64,1.19,1a.74.74,0,0,1-.38.72,1.06,1.06,0,0,1,.43,1C101.69,56.07,101.25,56.43,100.47,56.43Zm0-3.28h-.91v1.13h.86c.53,0,.89-.09.89-.53S101.09,53.15,100.45,53.15Zm0,1.48h-.93v1.45h.93c.71,0,.87-.34.87-.66C101.34,54.87,101.07,54.63,100.47,54.63Z"></path><ellipse class="cls-4" cx="54.8" cy="100.52" rx="7.85" ry="7.78"></ellipse><path class="cls-2" d="M54.8,110a9.48,9.48,0,1,1,9.56-9.48A9.53,9.53,0,0,1,54.8,110Zm0-15.56a6.08,6.08,0,1,0,6.13,6.08A6.11,6.11,0,0,0,54.8,94.44Z"></path><ellipse class="cls-4" cx="9.56" cy="55.66" rx="7.85" ry="7.78"></ellipse><path class="cls-2" d="M9.56,65.14a9.48,9.48,0,1,1,9.57-9.48A9.53,9.53,0,0,1,9.56,65.14Zm0-15.56a6.08,6.08,0,1,0,6.14,6.08A6.11,6.11,0,0,0,9.56,49.58Z"></path><path class="cls-5" d="M10.29,57a1.06,1.06,0,0,1-1,.5H8.41a.18.18,0,0,1-.18-.17V54a.18.18,0,0,1,.18-.18h.83a1.06,1.06,0,0,1,1,.5,4.92,4.92,0,0,1,.61,1.24v.17A5,5,0,0,1,10.29,57Zm.25-1.39A6.45,6.45,0,0,0,10,54.52c-.13-.23-.3-.33-.75-.33H8.59v2.94h.65c.44,0,.62-.1.75-.33a6.43,6.43,0,0,0,.55-1.06Z"></path><path class="cls-5" d="M55.74,102.08H54.9a.83.83,0,0,1-.9-.51c-.54-.92-.59-1.14-.59-1.23v-.16c0-.1.06-.32.59-1.23a.84.84,0,0,1,.9-.51h.84a.18.18,0,0,1,.17.18.17.17,0,0,1-.17.17H54.9c-.37,0-.41,0-.59.34a4.86,4.86,0,0,0-.55,1.05v.16a4.86,4.86,0,0,0,.55,1c.19.31.24.33.59.33h.84a.18.18,0,0,1,0,.36Z"></path><rect class="cls-4" x="31.64" y="34.03" width="47.48" height="34.36"></rect><path class="cls-6" d="M79.12,69.38H31.64a1,1,0,0,1-1-1V34a1,1,0,0,1,1-1H79.12a1,1,0,0,1,1,1V68.38A1,1,0,0,1,79.12,69.38Zm-46.48-2H78.12V35H32.64Z"></path><path d="M44.82,47.84a2.65,2.65,0,1,0-2.94,0,3.81,3.81,0,0,0-3.41,3.77V52a1.69,1.69,0,0,0,1.69,1.69h6.63A1.69,1.69,0,0,0,48.48,52v-.35A3.82,3.82,0,0,0,44.82,47.84Zm-1.49-3.77a1.59,1.59,0,1,1-1.58,1.58A1.59,1.59,0,0,1,43.33,44.07ZM47.42,52a.63.63,0,0,1-.63.63H40.16a.63.63,0,0,1-.62-.63v-.35a2.75,2.75,0,0,1,2.75-2.75h2.37a2.76,2.76,0,0,1,2.76,2.75Z"></path><rect class="cls-3" x="49" y="43.37" width="21.4" height="5.51" rx="1.21"></rect><rect class="cls-1" x="51.9" y="50.26" width="17.95" height="2.41" rx="0.55"></rect><rect class="cls-1" x="51.9" y="54.6" width="17.95" height="2.41" rx="0.55"></rect><path class="cls-1" d="M69.4,56.47a.09.09,0,0,1-.09.09H52.45a.09.09,0,0,1-.09-.09V55.15a.09.09,0,0,1,.09-.09H69.31a.09.09,0,0,1,.09.09Z"></path><path class="cls-7" d="M84.92,76.52l-4.55-6a1,1,0,0,0-.8-.4H31.14a1,1,0,0,0-.76.35l-5,5.78A1,1,0,0,0,26.12,78l58,.18h0a1,1,0,0,0,.79-1.61Z"></path></g></g></svg>