<svg xmlns="http://www.w3.org/2000/svg" viewBox="0 0 110 97.85"><defs><style>.cls-1{fill:#cceef9;}.cls-2{fill:#1a1a1a;}.cls-3,.cls-5{fill:#fff;}.cls-4{fill:#4dc3e9;}.cls-5{stroke:#fff;stroke-miterlimit:10;stroke-width:1.04px;}</style></defs><g id="Layer_2" data-name="Layer 2"><g id="design"><rect class="cls-1" x="2.08" y="2.09" width="60.39" height="93.68" rx="3.78"/><path class="cls-2" d="M58.7,97.85H5.86A5.87,5.87,0,0,1,0,92V5.86A5.87,5.87,0,0,1,5.86,0H58.7a5.87,5.87,0,0,1,5.86,5.86V92A5.87,5.87,0,0,1,58.7,97.85ZM5.86,4.17A1.69,1.69,0,0,0,4.17,5.86V92a1.69,1.69,0,0,0,1.69,1.69H58.7A1.69,1.69,0,0,0,60.39,92V5.86A1.69,1.69,0,0,0,58.7,4.17Z"/><rect class="cls-3" x="9.9" y="9.79" width="44.76" height="65.95"/><path class="cls-3" d="M54.66,76.74H9.9a1,1,0,0,1-1-1V9.79a1,1,0,0,1,1-1H54.66a1,1,0,0,1,1,1V75.74A1,1,0,0,1,54.66,76.74Zm-43.75-2H53.65V10.8H10.91Z"/><circle class="cls-3" cx="32.28" cy="85.1" r="4.93"/><path class="cls-2" d="M32.28,91a5.94,5.94,0,1,1,5.94-5.94A6,6,0,0,1,32.28,91Zm0-9.87a3.93,3.93,0,1,0,3.93,3.93A3.94,3.94,0,0,0,32.28,81.17Z"/><rect class="cls-4" x="18.44" y="42.76" width="27.68" height="13.57" rx="1.27"/><path class="cls-4" d="M44.85,57.4H19.71a2.34,2.34,0,0,1-2.33-2.34V44a2.34,2.34,0,0,1,2.33-2.33H44.85A2.34,2.34,0,0,1,47.18,44v11A2.34,2.34,0,0,1,44.85,57.4ZM19.71,43.82a.22.22,0,0,0-.21.21v11a.21.21,0,0,0,.21.21H44.85a.21.21,0,0,0,.21-.21V44a.22.22,0,0,0-.21-.21Z"/><path class="cls-5" d="M24.14,48H22.25v1.33h1.3a.18.18,0,0,1,.18.19.19.19,0,0,1-.18.18h-1.3v1.35H24.1a.18.18,0,0,1,.18.19.19.19,0,0,1-.18.18h-2a.19.19,0,0,1-.18-.18V47.83a.18.18,0,0,1,.18-.18h2.07a.18.18,0,0,1,.18.18A.18.18,0,0,1,24.14,48Z"/><path class="cls-5" d="M28.55,51.44h-.23a.21.21,0,0,1-.17-.1l-1.77-3.16v3.16a.19.19,0,0,1-.18.18.2.2,0,0,1-.19-.18V47.83a.19.19,0,0,1,.19-.18h.2a.21.21,0,0,1,.17.1L28.36,51v-3.2a.18.18,0,0,1,.19-.19.18.18,0,0,1,.18.19v3.5A.19.19,0,0,1,28.55,51.44Z"/><path class="cls-5" d="M33.08,48.64a.18.18,0,0,1-.19-.18V48H32v3.32a.19.19,0,0,1-.18.18.19.19,0,0,1-.19-.18V48h-.88v.44a.18.18,0,0,1-.18.18.18.18,0,0,1-.19-.18v-.63a.18.18,0,0,1,.19-.18h2.53a.18.18,0,0,1,.18.18v.63A.18.18,0,0,1,33.08,48.64Z"/><path class="cls-5" d="M37.29,51.44a.19.19,0,0,1-.14-.07l-1.46-1.74h-.43v1.71a.19.19,0,0,1-.18.18.2.2,0,0,1-.19-.18V47.83a.19.19,0,0,1,.19-.18h1.63a.7.7,0,0,1,.74.74v.51a.69.69,0,0,1-.74.73h-.54l1.25,1.51a.17.17,0,0,1,0,.12A.18.18,0,0,1,37.29,51.44Zm-.2-3a.35.35,0,0,0-.38-.37H35.26v1.25h1.45a.35.35,0,0,0,.38-.37Z"/><path class="cls-5" d="M42,48.39,40.8,49.92v1.42a.19.19,0,0,1-.18.18.2.2,0,0,1-.19-.18V49.92L39.2,48.39a.21.21,0,0,1,0-.12v-.44a.18.18,0,0,1,.19-.18.18.18,0,0,1,.18.18v.38l1.09,1.36,1.07-1.36v-.38a.19.19,0,0,1,.19-.18.18.18,0,0,1,.18.18v.44A.21.21,0,0,1,42,48.39Z"/><path class="cls-4" d="M32.28,36.58a9.86,9.86,0,1,1,9.86-9.86A9.87,9.87,0,0,1,32.28,36.58Zm0-17.71a7.85,7.85,0,1,0,7.85,7.85A7.86,7.86,0,0,0,32.28,18.87Z"/><path class="cls-4" d="M30.81,30.3a1,1,0,0,1-.81-.41l-2-2.73A1,1,0,1,1,29.63,26l2,2.73a1,1,0,0,1-.22,1.41A1,1,0,0,1,30.81,30.3Z"/><path class="cls-4" d="M30.81,30.2a1,1,0,0,1-.75-.34,1,1,0,0,1,.08-1.42l5.46-4.83a1,1,0,1,1,1.33,1.5l-5.45,4.83A1,1,0,0,1,30.81,30.2Z"/><polygon class="cls-3" points="108.19 69.2 100.94 70.31 100.94 69.27 108.19 69.2"/><path class="cls-3" d="M108.19,69.2V64.9a3.36,3.36,0,0,0-3.35-3.35H103.7a2.77,2.77,0,0,0-2.76,2.76V68.4l-.07-4.05.07,0V62.4a2.66,2.66,0,0,0-2.66-2.66H96.76A2.66,2.66,0,0,0,94.1,62.4v1.67l-.2,0v-2a2.53,2.53,0,0,0-2.53-2.52H89.58a2.53,2.53,0,0,0-2.53,2.52V68.4h-.5v-20a2.78,2.78,0,0,0-2.77-2.77H81a2.78,2.78,0,0,0-2.78,2.77v20h-.5V66.9a3.25,3.25,0,0,0-3.24-3.24H73.08a3.25,3.25,0,0,0-3.24,3.24V84.1A10.09,10.09,0,0,0,79.9,94.16H98.17A10.1,10.1,0,0,0,108.24,84.1V69.54A1.27,1.27,0,0,0,108.19,69.2Z"/><path class="cls-2" d="M110,69V64.9a5.11,5.11,0,0,0-5.11-5.11H103.7a4.52,4.52,0,0,0-1.65.31A4.41,4.41,0,0,0,98.28,58H96.76a4.38,4.38,0,0,0-2.59.84,4.26,4.26,0,0,0-2.8-1H89.58a4.11,4.11,0,0,0-1.27.19V48.42a4.53,4.53,0,0,0-4.53-4.53H81a4.54,4.54,0,0,0-4.54,4.53V62.31a5,5,0,0,0-2-.41H73.08a5,5,0,0,0-5,5V84.1A11.83,11.83,0,0,0,79.9,95.92H98.17A11.83,11.83,0,0,0,110,84.1V69.54A2.76,2.76,0,0,0,110,69ZM106.48,84.1a8.31,8.31,0,0,1-8.31,8.3H79.9a8.31,8.31,0,0,1-8.3-8.3V66.9a1.47,1.47,0,0,1,1.48-1.47h1.37a1.47,1.47,0,0,1,1.48,1.47v1.5a1.76,1.76,0,0,0,1.76,1.76h.5A1.76,1.76,0,0,0,80,68.4v-20a1,1,0,0,1,1-1h2.81a1,1,0,0,1,1,1v20a1.76,1.76,0,0,0,1.76,1.76h.5a1.76,1.76,0,0,0,1.76-1.76V62.06a.77.77,0,0,1,.77-.76h1.79a.77.77,0,0,1,.76.76V68.4a1.76,1.76,0,0,0,1.77,1.76h.2a1.76,1.76,0,0,0,1.76-1.76v-6a.9.9,0,0,1,.9-.9h1.52a.9.9,0,0,1,.9.9v6.87a1.76,1.76,0,0,0,3.52,0v-5a1,1,0,0,1,1-1h1.14a1.6,1.6,0,0,1,1.59,1.59v4.34a1.5,1.5,0,0,0,0,.2s0,.1,0,.15a0,0,0,0,1,0,0Z"/><path class="cls-1" d="M82,40.18a1.31,1.31,0,0,1-1.31-1.25l-.15-3.42a1.31,1.31,0,0,1,2.62-.12l.16,3.42A1.32,1.32,0,0,1,82,40.18Z"/><path class="cls-1" d="M87.14,41a1.32,1.32,0,0,1-1-2.21l2.13-2.33a1.32,1.32,0,0,1,1.94,1.78l-2.13,2.33A1.32,1.32,0,0,1,87.14,41Z"/><path class="cls-1" d="M76.67,41.19a1.3,1.3,0,0,1-1-.45l-2-2.3a1.32,1.32,0,0,1,2-1.74l2,2.31a1.3,1.3,0,0,1-.12,1.85A1.29,1.29,0,0,1,76.67,41.19Z"/></g></g></svg>